<?xml version="1.0" encoding="UTF-8" standalone="no"?>
<!DOCTYPE svg PUBLIC "-//W3C//DTD SVG 1.1//EN"
 "http://www.w3.org/Graphics/SVG/1.1/DTD/svg11.dtd">
<!-- Generated by graphviz version 2.43.0 (0)
 -->
<!-- Title: snakemake_dag Pages: 1 -->
<svg width="123pt" height="116pt"
 viewBox="0.00 0.00 123.00 116.00" xmlns="http://www.w3.org/2000/svg" xmlns:xlink="http://www.w3.org/1999/xlink">
<g id="graph0" class="graph" transform="scale(1 1) rotate(0) translate(4 112)">
<title>snakemake_dag</title>
<polygon fill="white" stroke="transparent" points="-4,4 -4,-112 119,-112 119,4 -4,4"/>
<!-- 0 -->
<g id="node1" class="node">
<title>0</title>
<path fill="none" stroke="#59d856" stroke-width="2" stroke-dasharray="5,2" d="M72.5,-36C72.5,-36 42.5,-36 42.5,-36 36.5,-36 30.5,-30 30.5,-24 30.5,-24 30.5,-12 30.5,-12 30.5,-6 36.5,0 42.5,0 42.5,0 72.5,0 72.5,0 78.5,0 84.5,-6 84.5,-12 84.5,-12 84.5,-24 84.5,-24 84.5,-30 78.5,-36 72.5,-36"/>
<text text-anchor="middle" x="57.5" y="-15.5" font-family="sans" font-size="10.00">all</text>
</g>
<!-- 1 -->
<g id="node2" class="node">
<title>1</title>
<path fill="none" stroke="#d85656" stroke-width="2" stroke-dasharray="5,2" d="M103,-108C103,-108 12,-108 12,-108 6,-108 0,-102 0,-96 0,-96 0,-84 0,-84 0,-78 6,-72 12,-72 12,-72 103,-72 103,-72 109,-72 115,-78 115,-84 115,-84 115,-96 115,-96 115,-102 109,-108 103,-108"/>
<text text-anchor="middle" x="57.5" y="-93" font-family="sans" font-size="10.00">matching_metadata</text>
<text text-anchor="middle" x="57.5" y="-82" font-family="sans" font-size="10.00">date: 20200425</text>
</g>
<!-- 1&#45;&gt;0 -->
<g id="edge1" class="edge">
<title>1&#45;&gt;0</title>
<path fill="none" stroke="grey" stroke-width="2" d="M57.5,-71.7C57.5,-63.98 57.5,-54.71 57.5,-46.11"/>
<polygon fill="grey" stroke="grey" stroke-width="2" points="61,-46.1 57.5,-36.1 54,-46.1 61,-46.1"/>
</g>
</g>
</svg>
