<?xml version="1.0" encoding="UTF-8" standalone="no"?>
<!DOCTYPE svg PUBLIC "-//W3C//DTD SVG 1.1//EN"
 "http://www.w3.org/Graphics/SVG/1.1/DTD/svg11.dtd">
<!-- Generated by graphviz version 2.43.0 (0)
 -->
<!-- Title: snakemake_dag Pages: 1 -->
<svg width="3060pt" height="851pt"
 viewBox="0.00 0.00 3059.50 851.00" xmlns="http://www.w3.org/2000/svg" xmlns:xlink="http://www.w3.org/1999/xlink">
<g id="graph0" class="graph" transform="scale(1 1) rotate(0) translate(4 847)">
<title>snakemake_dag</title>
<polygon fill="white" stroke="transparent" points="-4,4 -4,-847 3055.5,-847 3055.5,4 -4,4"/>
<!-- 0 -->
<g id="node1" class="node">
<title>0</title>
<path fill="none" stroke="#afd856" stroke-width="2" d="M1529,-36C1529,-36 1499,-36 1499,-36 1493,-36 1487,-30 1487,-24 1487,-24 1487,-12 1487,-12 1487,-6 1493,0 1499,0 1499,0 1529,0 1529,0 1535,0 1541,-6 1541,-12 1541,-12 1541,-24 1541,-24 1541,-30 1535,-36 1529,-36"/>
<text text-anchor="middle" x="1514" y="-15.5" font-family="sans" font-size="10.00">all</text>
</g>
<!-- 1 -->
<g id="node2" class="node">
<title>1</title>
<path fill="none" stroke="#d8bc56" stroke-width="2" d="M666,-108C666,-108 446,-108 446,-108 440,-108 434,-102 434,-96 434,-96 434,-84 434,-84 434,-78 440,-72 446,-72 446,-72 666,-72 666,-72 672,-72 678,-78 678,-84 678,-84 678,-96 678,-96 678,-102 672,-108 666,-108"/>
<text text-anchor="middle" x="556" y="-93" font-family="sans" font-size="10.00">nex2nwk</text>
<text text-anchor="middle" x="556" y="-82" font-family="sans" font-size="10.00">tree: raxfast_subsampled_phylogenetic_0.lsd2</text>
</g>
<!-- 1&#45;&gt;0 -->
<g id="edge1" class="edge">
<title>1&#45;&gt;0</title>
<path fill="none" stroke="grey" stroke-width="2" d="M678.3,-80.06C897.1,-64.08 1344.96,-31.35 1476.74,-21.72"/>
<polygon fill="grey" stroke="grey" stroke-width="2" points="1477.02,-25.21 1486.74,-20.99 1476.51,-18.23 1477.02,-25.21"/>
</g>
<!-- 2 -->
<g id="node3" class="node">
<title>2</title>
<path fill="none" stroke="#d8bc56" stroke-width="2" d="M1168,-108C1168,-108 948,-108 948,-108 942,-108 936,-102 936,-96 936,-96 936,-84 936,-84 936,-78 942,-72 948,-72 948,-72 1168,-72 1168,-72 1174,-72 1180,-78 1180,-84 1180,-84 1180,-96 1180,-96 1180,-102 1174,-108 1168,-108"/>
<text text-anchor="middle" x="1058" y="-93" font-family="sans" font-size="10.00">nex2nwk</text>
<text text-anchor="middle" x="1058" y="-82" font-family="sans" font-size="10.00">tree: raxfast_subsampled_phylogenetic_1.lsd2</text>
</g>
<!-- 2&#45;&gt;0 -->
<g id="edge2" class="edge">
<title>2&#45;&gt;0</title>
<path fill="none" stroke="grey" stroke-width="2" d="M1168.97,-71.97C1269.06,-56.6 1410.45,-34.9 1476.84,-24.7"/>
<polygon fill="grey" stroke="grey" stroke-width="2" points="1477.48,-28.15 1486.83,-23.17 1476.41,-21.23 1477.48,-28.15"/>
</g>
<!-- 3 -->
<g id="node4" class="node">
<title>3</title>
<path fill="none" stroke="#d8bc56" stroke-width="2" d="M1493,-108C1493,-108 1273,-108 1273,-108 1267,-108 1261,-102 1261,-96 1261,-96 1261,-84 1261,-84 1261,-78 1267,-72 1273,-72 1273,-72 1493,-72 1493,-72 1499,-72 1505,-78 1505,-84 1505,-84 1505,-96 1505,-96 1505,-102 1499,-108 1493,-108"/>
<text text-anchor="middle" x="1383" y="-93" font-family="sans" font-size="10.00">nex2nwk</text>
<text text-anchor="middle" x="1383" y="-82" font-family="sans" font-size="10.00">tree: raxfast_subsampled_phylogenetic_2.lsd2</text>
</g>
<!-- 3&#45;&gt;0 -->
<g id="edge3" class="edge">
<title>3&#45;&gt;0</title>
<path fill="none" stroke="grey" stroke-width="2" d="M1415.05,-71.88C1434.01,-61.74 1458.09,-48.88 1477.74,-38.37"/>
<polygon fill="grey" stroke="grey" stroke-width="2" points="1479.54,-41.38 1486.71,-33.58 1476.24,-35.21 1479.54,-41.38"/>
</g>
<!-- 4 -->
<g id="node5" class="node">
<title>4</title>
<path fill="none" stroke="#d8bc56" stroke-width="2" d="M1755,-108C1755,-108 1535,-108 1535,-108 1529,-108 1523,-102 1523,-96 1523,-96 1523,-84 1523,-84 1523,-78 1529,-72 1535,-72 1535,-72 1755,-72 1755,-72 1761,-72 1767,-78 1767,-84 1767,-84 1767,-96 1767,-96 1767,-102 1761,-108 1755,-108"/>
<text text-anchor="middle" x="1645" y="-93" font-family="sans" font-size="10.00">nex2nwk</text>
<text text-anchor="middle" x="1645" y="-82" font-family="sans" font-size="10.00">tree: raxfast_subsampled_phylogenetic_3.lsd2</text>
</g>
<!-- 4&#45;&gt;0 -->
<g id="edge4" class="edge">
<title>4&#45;&gt;0</title>
<path fill="none" stroke="grey" stroke-width="2" d="M1612.95,-71.88C1593.99,-61.74 1569.91,-48.88 1550.26,-38.37"/>
<polygon fill="grey" stroke="grey" stroke-width="2" points="1551.76,-35.21 1541.29,-33.58 1548.46,-41.38 1551.76,-35.21"/>
</g>
<!-- 5 -->
<g id="node6" class="node">
<title>5</title>
<path fill="none" stroke="#d8bc56" stroke-width="2" d="M2017,-108C2017,-108 1797,-108 1797,-108 1791,-108 1785,-102 1785,-96 1785,-96 1785,-84 1785,-84 1785,-78 1791,-72 1797,-72 1797,-72 2017,-72 2017,-72 2023,-72 2029,-78 2029,-84 2029,-84 2029,-96 2029,-96 2029,-102 2023,-108 2017,-108"/>
<text text-anchor="middle" x="1907" y="-93" font-family="sans" font-size="10.00">nex2nwk</text>
<text text-anchor="middle" x="1907" y="-82" font-family="sans" font-size="10.00">tree: raxfast_subsampled_phylogenetic_4.lsd2</text>
</g>
<!-- 5&#45;&gt;0 -->
<g id="edge5" class="edge">
<title>5&#45;&gt;0</title>
<path fill="none" stroke="grey" stroke-width="2" d="M1811.36,-71.97C1727.56,-57.04 1610.17,-36.13 1551.08,-25.6"/>
<polygon fill="grey" stroke="grey" stroke-width="2" points="1551.55,-22.13 1541.09,-23.83 1550.32,-29.02 1551.55,-22.13"/>
</g>
<!-- 6 -->
<g id="node7" class="node">
<title>6</title>
<path fill="none" stroke="#88d856" stroke-width="2" d="M2141,-108C2141,-108 2059,-108 2059,-108 2053,-108 2047,-102 2047,-96 2047,-96 2047,-84 2047,-84 2047,-78 2053,-72 2059,-72 2059,-72 2141,-72 2141,-72 2147,-72 2153,-78 2153,-84 2153,-84 2153,-96 2153,-96 2153,-102 2147,-108 2141,-108"/>
<text text-anchor="middle" x="2100" y="-93" font-family="sans" font-size="10.00">freqs_proportional</text>
<text text-anchor="middle" x="2100" y="-82" font-family="sans" font-size="10.00">date: 20200425</text>
</g>
<!-- 6&#45;&gt;0 -->
<g id="edge6" class="edge">
<title>6&#45;&gt;0</title>
<path fill="none" stroke="grey" stroke-width="2" d="M2046.7,-73.78C2043.77,-73.13 2040.85,-72.53 2038,-72 1857.44,-38.36 1637.62,-24.88 1551.31,-20.63"/>
<polygon fill="grey" stroke="grey" stroke-width="2" points="1551.38,-17.13 1541.22,-20.15 1551.04,-24.13 1551.38,-17.13"/>
</g>
<!-- 7 -->
<g id="node8" class="node">
<title>7</title>
<path fill="none" stroke="#d87556" stroke-width="2" d="M285,-180C285,-180 245,-180 245,-180 239,-180 233,-174 233,-168 233,-168 233,-156 233,-156 233,-150 239,-144 245,-144 245,-144 285,-144 285,-144 291,-144 297,-150 297,-156 297,-156 297,-168 297,-168 297,-174 291,-180 285,-180"/>
<text text-anchor="middle" x="265" y="-159.5" font-family="sans" font-size="10.00">date_lsd2</text>
</g>
<!-- 7&#45;&gt;1 -->
<g id="edge7" class="edge">
<title>7&#45;&gt;1</title>
<path fill="none" stroke="grey" stroke-width="2" d="M297.25,-153.24C339.85,-142.99 416.33,-124.6 475.14,-110.45"/>
<polygon fill="grey" stroke="grey" stroke-width="2" points="476.25,-113.78 485.15,-108.04 474.61,-106.98 476.25,-113.78"/>
</g>
<!-- 8 -->
<g id="node9" class="node">
<title>8</title>
<path fill="none" stroke="#d87556" stroke-width="2" d="M901,-180C901,-180 861,-180 861,-180 855,-180 849,-174 849,-168 849,-168 849,-156 849,-156 849,-150 855,-144 861,-144 861,-144 901,-144 901,-144 907,-144 913,-150 913,-156 913,-156 913,-168 913,-168 913,-174 907,-180 901,-180"/>
<text text-anchor="middle" x="881" y="-159.5" font-family="sans" font-size="10.00">date_lsd2</text>
</g>
<!-- 8&#45;&gt;2 -->
<g id="edge8" class="edge">
<title>8&#45;&gt;2</title>
<path fill="none" stroke="grey" stroke-width="2" d="M913.05,-148.32C938.76,-138.16 975.38,-123.67 1005.38,-111.81"/>
<polygon fill="grey" stroke="grey" stroke-width="2" points="1006.85,-114.99 1014.86,-108.06 1004.28,-108.48 1006.85,-114.99"/>
</g>
<!-- 9 -->
<g id="node10" class="node">
<title>9</title>
<path fill="none" stroke="#d87556" stroke-width="2" d="M1403,-180C1403,-180 1363,-180 1363,-180 1357,-180 1351,-174 1351,-168 1351,-168 1351,-156 1351,-156 1351,-150 1357,-144 1363,-144 1363,-144 1403,-144 1403,-144 1409,-144 1415,-150 1415,-156 1415,-156 1415,-168 1415,-168 1415,-174 1409,-180 1403,-180"/>
<text text-anchor="middle" x="1383" y="-159.5" font-family="sans" font-size="10.00">date_lsd2</text>
</g>
<!-- 9&#45;&gt;3 -->
<g id="edge9" class="edge">
<title>9&#45;&gt;3</title>
<path fill="none" stroke="grey" stroke-width="2" d="M1383,-143.7C1383,-135.98 1383,-126.71 1383,-118.11"/>
<polygon fill="grey" stroke="grey" stroke-width="2" points="1386.5,-118.1 1383,-108.1 1379.5,-118.1 1386.5,-118.1"/>
</g>
<!-- 10 -->
<g id="node11" class="node">
<title>10</title>
<path fill="none" stroke="#d87556" stroke-width="2" d="M1906,-180C1906,-180 1866,-180 1866,-180 1860,-180 1854,-174 1854,-168 1854,-168 1854,-156 1854,-156 1854,-150 1860,-144 1866,-144 1866,-144 1906,-144 1906,-144 1912,-144 1918,-150 1918,-156 1918,-156 1918,-168 1918,-168 1918,-174 1912,-180 1906,-180"/>
<text text-anchor="middle" x="1886" y="-159.5" font-family="sans" font-size="10.00">date_lsd2</text>
</g>
<!-- 10&#45;&gt;4 -->
<g id="edge10" class="edge">
<title>10&#45;&gt;4</title>
<path fill="none" stroke="grey" stroke-width="2" d="M1854,-151.7C1818.26,-141.32 1759.36,-124.22 1713.19,-110.81"/>
<polygon fill="grey" stroke="grey" stroke-width="2" points="1714.12,-107.43 1703.54,-108 1712.17,-114.15 1714.12,-107.43"/>
</g>
<!-- 11 -->
<g id="node12" class="node">
<title>11</title>
<path fill="none" stroke="#d87556" stroke-width="2" d="M2522,-180C2522,-180 2482,-180 2482,-180 2476,-180 2470,-174 2470,-168 2470,-168 2470,-156 2470,-156 2470,-150 2476,-144 2482,-144 2482,-144 2522,-144 2522,-144 2528,-144 2534,-150 2534,-156 2534,-156 2534,-168 2534,-168 2534,-174 2528,-180 2522,-180"/>
<text text-anchor="middle" x="2502" y="-159.5" font-family="sans" font-size="10.00">date_lsd2</text>
</g>
<!-- 11&#45;&gt;5 -->
<g id="edge11" class="edge">
<title>11&#45;&gt;5</title>
<path fill="none" stroke="grey" stroke-width="2" d="M2469.92,-157.51C2395.99,-149.42 2207.72,-128.62 2039.08,-108.12"/>
<polygon fill="grey" stroke="grey" stroke-width="2" points="2039.37,-104.63 2029.02,-106.9 2038.52,-111.58 2039.37,-104.63"/>
</g>
<!-- 12 -->
<g id="node13" class="node">
<title>12</title>
<path fill="none" stroke="#56d8a9" stroke-width="2" d="M433.5,-329C433.5,-329 96.5,-329 96.5,-329 90.5,-329 84.5,-323 84.5,-317 84.5,-317 84.5,-305 84.5,-305 84.5,-299 90.5,-293 96.5,-293 96.5,-293 433.5,-293 433.5,-293 439.5,-293 445.5,-299 445.5,-305 445.5,-305 445.5,-317 445.5,-317 445.5,-323 439.5,-329 433.5,-329"/>
<text text-anchor="middle" x="265" y="-314" font-family="sans" font-size="10.00">name</text>
<text text-anchor="middle" x="265" y="-303" font-family="sans" font-size="10.00">tree: rooted_raxfast_subsampled_phylogenetic_0.duplicated.collapsed</text>
</g>
<!-- 12&#45;&gt;7 -->
<g id="edge12" class="edge">
<title>12&#45;&gt;7</title>
<path fill="none" stroke="grey" stroke-width="2" d="M147.79,-292.98C107.4,-284.53 69.21,-272.71 57,-257 10.59,-197.28 149,-174.36 222.44,-166.56"/>
<polygon fill="grey" stroke="grey" stroke-width="2" points="223.18,-170 232.78,-165.52 222.47,-163.04 223.18,-170"/>
</g>
<!-- 13 -->
<g id="node14" class="node">
<title>13</title>
<path fill="none" stroke="#56d8d0" stroke-width="2" d="M452,-257C452,-257 78,-257 78,-257 72,-257 66,-251 66,-245 66,-245 66,-228 66,-228 66,-222 72,-216 78,-216 78,-216 452,-216 452,-216 458,-216 464,-222 464,-228 464,-228 464,-245 464,-245 464,-251 458,-257 452,-257"/>
<text text-anchor="middle" x="265" y="-245" font-family="sans" font-size="10.00">tree_size</text>
<text text-anchor="middle" x="265" y="-234" font-family="sans" font-size="10.00">tree: rooted_raxfast_subsampled_phylogenetic_0.duplicated.collapsed.named</text>
<text text-anchor="middle" x="265" y="-223" font-family="sans" font-size="10.00">type: phylogenies</text>
</g>
<!-- 12&#45;&gt;13 -->
<g id="edge33" class="edge">
<title>12&#45;&gt;13</title>
<path fill="none" stroke="grey" stroke-width="2" d="M265,-292.82C265,-285.2 265,-276 265,-267.32"/>
<polygon fill="grey" stroke="grey" stroke-width="2" points="268.5,-267.12 265,-257.12 261.5,-267.12 268.5,-267.12"/>
</g>
<!-- 14 -->
<g id="node15" class="node">
<title>14</title>
<path fill="none" stroke="#567bd8" stroke-width="2" d="M575.5,-257C575.5,-257 494.5,-257 494.5,-257 488.5,-257 482.5,-251 482.5,-245 482.5,-245 482.5,-228 482.5,-228 482.5,-222 488.5,-216 494.5,-216 494.5,-216 575.5,-216 575.5,-216 581.5,-216 587.5,-222 587.5,-228 587.5,-228 587.5,-245 587.5,-245 587.5,-251 581.5,-257 575.5,-257"/>
<text text-anchor="middle" x="535" y="-245" font-family="sans" font-size="10.00">dates_lsd2</text>
<text text-anchor="middle" x="535" y="-234" font-family="sans" font-size="10.00">freq: phylogenetic</text>
<text text-anchor="middle" x="535" y="-223" font-family="sans" font-size="10.00">i: 0</text>
</g>
<!-- 12&#45;&gt;14 -->
<g id="edge34" class="edge">
<title>12&#45;&gt;14</title>
<path fill="none" stroke="grey" stroke-width="2" d="M336.02,-292.93C373.9,-283.59 421.48,-271.47 472.41,-257.1"/>
<polygon fill="grey" stroke="grey" stroke-width="2" points="473.63,-260.39 482.29,-254.29 471.72,-253.66 473.63,-260.39"/>
</g>
<!-- 13&#45;&gt;7 -->
<g id="edge13" class="edge">
<title>13&#45;&gt;7</title>
<path fill="none" stroke="grey" stroke-width="2" d="M265,-215.69C265,-207.91 265,-198.84 265,-190.45"/>
<polygon fill="grey" stroke="grey" stroke-width="2" points="268.5,-190.32 265,-180.32 261.5,-190.32 268.5,-190.32"/>
</g>
<!-- 14&#45;&gt;7 -->
<g id="edge14" class="edge">
<title>14&#45;&gt;7</title>
<path fill="none" stroke="grey" stroke-width="2" d="M482.29,-218.71C479.15,-217.77 476.04,-216.86 473,-216 415.88,-199.75 349.27,-183.2 307.12,-173.01"/>
<polygon fill="grey" stroke="grey" stroke-width="2" points="307.76,-169.56 297.22,-170.62 306.12,-176.37 307.76,-169.56"/>
</g>
<!-- 15 -->
<g id="node16" class="node">
<title>15</title>
<path fill="none" stroke="#68d856" stroke-width="2" d="M284,-699C284,-699 132,-699 132,-699 126,-699 120,-693 120,-687 120,-687 120,-675 120,-675 120,-669 126,-663 132,-663 132,-663 284,-663 284,-663 290,-663 296,-669 296,-675 296,-675 296,-687 296,-687 296,-693 290,-699 284,-699"/>
<text text-anchor="middle" x="208" y="-684" font-family="sans" font-size="10.00">aln_length</text>
<text text-anchor="middle" x="208" y="-673" font-family="sans" font-size="10.00">aln: subsampled_phylogenetic_0</text>
</g>
<!-- 15&#45;&gt;7 -->
<g id="edge15" class="edge">
<title>15&#45;&gt;7</title>
<path fill="none" stroke="grey" stroke-width="2" d="M141.04,-662.96C80.24,-642.99 0,-603.31 0,-533 0,-533 0,-533 0,-310 0,-263.87 8.25,-245.16 44,-216 95.27,-174.18 174.2,-164.41 222.56,-162.64"/>
<polygon fill="grey" stroke="grey" stroke-width="2" points="222.78,-166.14 232.68,-162.37 222.59,-159.14 222.78,-166.14"/>
</g>
<!-- 32 -->
<g id="node33" class="node">
<title>32</title>
<path fill="none" stroke="#56d86b" stroke-width="2" d="M349,-401C349,-401 181,-401 181,-401 175,-401 169,-395 169,-389 169,-389 169,-377 169,-377 169,-371 175,-365 181,-365 181,-365 349,-365 349,-365 355,-365 361,-371 361,-377 361,-377 361,-389 361,-389 361,-395 355,-401 349,-401"/>
<text text-anchor="middle" x="265" y="-380.5" font-family="sans" font-size="10.00">collapse_non_informative_branches</text>
</g>
<!-- 15&#45;&gt;32 -->
<g id="edge53" class="edge">
<title>15&#45;&gt;32</title>
<path fill="none" stroke="grey" stroke-width="2" d="M206.91,-662.81C205.39,-632.42 203.92,-567.38 215,-514 222.76,-476.63 239.96,-435.92 252,-410.2"/>
<polygon fill="grey" stroke="grey" stroke-width="2" points="255.19,-411.65 256.34,-401.11 248.87,-408.63 255.19,-411.65"/>
</g>
<!-- 53 -->
<g id="node54" class="node">
<title>53</title>
<path fill="none" stroke="#d89c56" stroke-width="2" d="M375.5,-627C375.5,-627 294.5,-627 294.5,-627 288.5,-627 282.5,-621 282.5,-615 282.5,-615 282.5,-598 282.5,-598 282.5,-592 288.5,-586 294.5,-586 294.5,-586 375.5,-586 375.5,-586 381.5,-586 387.5,-592 387.5,-598 387.5,-598 387.5,-615 387.5,-615 387.5,-621 381.5,-627 375.5,-627"/>
<text text-anchor="middle" x="335" y="-615" font-family="sans" font-size="10.00">raxfast</text>
<text text-anchor="middle" x="335" y="-604" font-family="sans" font-size="10.00">freq: phylogenetic</text>
<text text-anchor="middle" x="335" y="-593" font-family="sans" font-size="10.00">i: 0</text>
</g>
<!-- 15&#45;&gt;53 -->
<g id="edge83" class="edge">
<title>15&#45;&gt;53</title>
<path fill="none" stroke="grey" stroke-width="2" d="M238.1,-662.82C254.09,-653.69 274.03,-642.31 291.66,-632.24"/>
<polygon fill="grey" stroke="grey" stroke-width="2" points="293.68,-635.12 300.63,-627.12 290.21,-629.04 293.68,-635.12"/>
</g>
<!-- 16 -->
<g id="node17" class="node">
<title>16</title>
<path fill="none" stroke="#56d8a9" stroke-width="2" d="M1049.5,-329C1049.5,-329 712.5,-329 712.5,-329 706.5,-329 700.5,-323 700.5,-317 700.5,-317 700.5,-305 700.5,-305 700.5,-299 706.5,-293 712.5,-293 712.5,-293 1049.5,-293 1049.5,-293 1055.5,-293 1061.5,-299 1061.5,-305 1061.5,-305 1061.5,-317 1061.5,-317 1061.5,-323 1055.5,-329 1049.5,-329"/>
<text text-anchor="middle" x="881" y="-314" font-family="sans" font-size="10.00">name</text>
<text text-anchor="middle" x="881" y="-303" font-family="sans" font-size="10.00">tree: rooted_raxfast_subsampled_phylogenetic_1.duplicated.collapsed</text>
</g>
<!-- 16&#45;&gt;8 -->
<g id="edge16" class="edge">
<title>16&#45;&gt;8</title>
<path fill="none" stroke="grey" stroke-width="2" d="M763.79,-292.98C723.4,-284.53 685.21,-272.71 673,-257 626.59,-197.28 765,-174.36 838.44,-166.56"/>
<polygon fill="grey" stroke="grey" stroke-width="2" points="839.18,-170 848.78,-165.52 838.47,-163.04 839.18,-170"/>
</g>
<!-- 17 -->
<g id="node18" class="node">
<title>17</title>
<path fill="none" stroke="#56d8d0" stroke-width="2" d="M1068,-257C1068,-257 694,-257 694,-257 688,-257 682,-251 682,-245 682,-245 682,-228 682,-228 682,-222 688,-216 694,-216 694,-216 1068,-216 1068,-216 1074,-216 1080,-222 1080,-228 1080,-228 1080,-245 1080,-245 1080,-251 1074,-257 1068,-257"/>
<text text-anchor="middle" x="881" y="-245" font-family="sans" font-size="10.00">tree_size</text>
<text text-anchor="middle" x="881" y="-234" font-family="sans" font-size="10.00">tree: rooted_raxfast_subsampled_phylogenetic_1.duplicated.collapsed.named</text>
<text text-anchor="middle" x="881" y="-223" font-family="sans" font-size="10.00">type: phylogenies</text>
</g>
<!-- 16&#45;&gt;17 -->
<g id="edge37" class="edge">
<title>16&#45;&gt;17</title>
<path fill="none" stroke="grey" stroke-width="2" d="M881,-292.82C881,-285.2 881,-276 881,-267.32"/>
<polygon fill="grey" stroke="grey" stroke-width="2" points="884.5,-267.12 881,-257.12 877.5,-267.12 884.5,-267.12"/>
</g>
<!-- 18 -->
<g id="node19" class="node">
<title>18</title>
<path fill="none" stroke="#567bd8" stroke-width="2" d="M1191.5,-257C1191.5,-257 1110.5,-257 1110.5,-257 1104.5,-257 1098.5,-251 1098.5,-245 1098.5,-245 1098.5,-228 1098.5,-228 1098.5,-222 1104.5,-216 1110.5,-216 1110.5,-216 1191.5,-216 1191.5,-216 1197.5,-216 1203.5,-222 1203.5,-228 1203.5,-228 1203.5,-245 1203.5,-245 1203.5,-251 1197.5,-257 1191.5,-257"/>
<text text-anchor="middle" x="1151" y="-245" font-family="sans" font-size="10.00">dates_lsd2</text>
<text text-anchor="middle" x="1151" y="-234" font-family="sans" font-size="10.00">freq: phylogenetic</text>
<text text-anchor="middle" x="1151" y="-223" font-family="sans" font-size="10.00">i: 1</text>
</g>
<!-- 16&#45;&gt;18 -->
<g id="edge38" class="edge">
<title>16&#45;&gt;18</title>
<path fill="none" stroke="grey" stroke-width="2" d="M952.02,-292.93C989.9,-283.59 1037.48,-271.47 1088.41,-257.1"/>
<polygon fill="grey" stroke="grey" stroke-width="2" points="1089.63,-260.39 1098.29,-254.29 1087.72,-253.66 1089.63,-260.39"/>
</g>
<!-- 17&#45;&gt;8 -->
<g id="edge17" class="edge">
<title>17&#45;&gt;8</title>
<path fill="none" stroke="grey" stroke-width="2" d="M881,-215.69C881,-207.91 881,-198.84 881,-190.45"/>
<polygon fill="grey" stroke="grey" stroke-width="2" points="884.5,-190.32 881,-180.32 877.5,-190.32 884.5,-190.32"/>
</g>
<!-- 18&#45;&gt;8 -->
<g id="edge18" class="edge">
<title>18&#45;&gt;8</title>
<path fill="none" stroke="grey" stroke-width="2" d="M1098.29,-218.71C1095.15,-217.77 1092.04,-216.86 1089,-216 1031.88,-199.75 965.27,-183.2 923.12,-173.01"/>
<polygon fill="grey" stroke="grey" stroke-width="2" points="923.76,-169.56 913.22,-170.62 922.12,-176.37 923.76,-169.56"/>
</g>
<!-- 19 -->
<g id="node20" class="node">
<title>19</title>
<path fill="none" stroke="#68d856" stroke-width="2" d="M901,-699C901,-699 749,-699 749,-699 743,-699 737,-693 737,-687 737,-687 737,-675 737,-675 737,-669 743,-663 749,-663 749,-663 901,-663 901,-663 907,-663 913,-669 913,-675 913,-675 913,-687 913,-687 913,-693 907,-699 901,-699"/>
<text text-anchor="middle" x="825" y="-684" font-family="sans" font-size="10.00">aln_length</text>
<text text-anchor="middle" x="825" y="-673" font-family="sans" font-size="10.00">aln: subsampled_phylogenetic_1</text>
</g>
<!-- 19&#45;&gt;8 -->
<g id="edge19" class="edge">
<title>19&#45;&gt;8</title>
<path fill="none" stroke="grey" stroke-width="2" d="M757.43,-662.96C696.37,-643.03 616,-603.42 616,-533 616,-533 616,-533 616,-310 616,-263.87 624.25,-245.16 660,-216 711.27,-174.18 790.2,-164.41 838.56,-162.64"/>
<polygon fill="grey" stroke="grey" stroke-width="2" points="838.78,-166.14 848.68,-162.37 838.59,-159.14 838.78,-166.14"/>
</g>
<!-- 34 -->
<g id="node35" class="node">
<title>34</title>
<path fill="none" stroke="#56d86b" stroke-width="2" d="M965,-401C965,-401 797,-401 797,-401 791,-401 785,-395 785,-389 785,-389 785,-377 785,-377 785,-371 791,-365 797,-365 797,-365 965,-365 965,-365 971,-365 977,-371 977,-377 977,-377 977,-389 977,-389 977,-395 971,-401 965,-401"/>
<text text-anchor="middle" x="881" y="-380.5" font-family="sans" font-size="10.00">collapse_non_informative_branches</text>
</g>
<!-- 19&#45;&gt;34 -->
<g id="edge56" class="edge">
<title>19&#45;&gt;34</title>
<path fill="none" stroke="grey" stroke-width="2" d="M823.95,-662.82C822.48,-632.44 821.1,-567.42 832,-514 839.61,-476.7 856.46,-435.98 868.27,-410.23"/>
<polygon fill="grey" stroke="grey" stroke-width="2" points="871.46,-411.68 872.52,-401.14 865.11,-408.72 871.46,-411.68"/>
</g>
<!-- 54 -->
<g id="node55" class="node">
<title>54</title>
<path fill="none" stroke="#d89c56" stroke-width="2" d="M992.5,-627C992.5,-627 911.5,-627 911.5,-627 905.5,-627 899.5,-621 899.5,-615 899.5,-615 899.5,-598 899.5,-598 899.5,-592 905.5,-586 911.5,-586 911.5,-586 992.5,-586 992.5,-586 998.5,-586 1004.5,-592 1004.5,-598 1004.5,-598 1004.5,-615 1004.5,-615 1004.5,-621 998.5,-627 992.5,-627"/>
<text text-anchor="middle" x="952" y="-615" font-family="sans" font-size="10.00">raxfast</text>
<text text-anchor="middle" x="952" y="-604" font-family="sans" font-size="10.00">freq: phylogenetic</text>
<text text-anchor="middle" x="952" y="-593" font-family="sans" font-size="10.00">i: 1</text>
</g>
<!-- 19&#45;&gt;54 -->
<g id="edge86" class="edge">
<title>19&#45;&gt;54</title>
<path fill="none" stroke="grey" stroke-width="2" d="M855.1,-662.82C871.09,-653.69 891.03,-642.31 908.66,-632.24"/>
<polygon fill="grey" stroke="grey" stroke-width="2" points="910.68,-635.12 917.63,-627.12 907.21,-629.04 910.68,-635.12"/>
</g>
<!-- 20 -->
<g id="node21" class="node">
<title>20</title>
<path fill="none" stroke="#56d8a9" stroke-width="2" d="M1644.5,-329C1644.5,-329 1307.5,-329 1307.5,-329 1301.5,-329 1295.5,-323 1295.5,-317 1295.5,-317 1295.5,-305 1295.5,-305 1295.5,-299 1301.5,-293 1307.5,-293 1307.5,-293 1644.5,-293 1644.5,-293 1650.5,-293 1656.5,-299 1656.5,-305 1656.5,-305 1656.5,-317 1656.5,-317 1656.5,-323 1650.5,-329 1644.5,-329"/>
<text text-anchor="middle" x="1476" y="-314" font-family="sans" font-size="10.00">name</text>
<text text-anchor="middle" x="1476" y="-303" font-family="sans" font-size="10.00">tree: rooted_raxfast_subsampled_phylogenetic_2.duplicated.collapsed</text>
</g>
<!-- 20&#45;&gt;9 -->
<g id="edge20" class="edge">
<title>20&#45;&gt;9</title>
<path fill="none" stroke="grey" stroke-width="2" d="M1376.39,-292.98C1337.95,-284.21 1300.45,-272.14 1289,-257 1278.01,-242.46 1279.81,-231.73 1289,-216 1300.37,-196.54 1321.81,-183.66 1341.35,-175.48"/>
<polygon fill="grey" stroke="grey" stroke-width="2" points="1342.69,-178.72 1350.74,-171.83 1340.15,-172.19 1342.69,-178.72"/>
</g>
<!-- 21 -->
<g id="node22" class="node">
<title>21</title>
<path fill="none" stroke="#56d8d0" stroke-width="2" d="M1684,-257C1684,-257 1310,-257 1310,-257 1304,-257 1298,-251 1298,-245 1298,-245 1298,-228 1298,-228 1298,-222 1304,-216 1310,-216 1310,-216 1684,-216 1684,-216 1690,-216 1696,-222 1696,-228 1696,-228 1696,-245 1696,-245 1696,-251 1690,-257 1684,-257"/>
<text text-anchor="middle" x="1497" y="-245" font-family="sans" font-size="10.00">tree_size</text>
<text text-anchor="middle" x="1497" y="-234" font-family="sans" font-size="10.00">tree: rooted_raxfast_subsampled_phylogenetic_2.duplicated.collapsed.named</text>
<text text-anchor="middle" x="1497" y="-223" font-family="sans" font-size="10.00">type: phylogenies</text>
</g>
<!-- 20&#45;&gt;21 -->
<g id="edge41" class="edge">
<title>20&#45;&gt;21</title>
<path fill="none" stroke="grey" stroke-width="2" d="M1480.98,-292.82C1483.23,-285.03 1485.96,-275.6 1488.53,-266.75"/>
<polygon fill="grey" stroke="grey" stroke-width="2" points="1491.9,-267.7 1491.32,-257.12 1485.17,-265.75 1491.9,-267.7"/>
</g>
<!-- 22 -->
<g id="node23" class="node">
<title>22</title>
<path fill="none" stroke="#567bd8" stroke-width="2" d="M1807.5,-257C1807.5,-257 1726.5,-257 1726.5,-257 1720.5,-257 1714.5,-251 1714.5,-245 1714.5,-245 1714.5,-228 1714.5,-228 1714.5,-222 1720.5,-216 1726.5,-216 1726.5,-216 1807.5,-216 1807.5,-216 1813.5,-216 1819.5,-222 1819.5,-228 1819.5,-228 1819.5,-245 1819.5,-245 1819.5,-251 1813.5,-257 1807.5,-257"/>
<text text-anchor="middle" x="1767" y="-245" font-family="sans" font-size="10.00">dates_lsd2</text>
<text text-anchor="middle" x="1767" y="-234" font-family="sans" font-size="10.00">freq: phylogenetic</text>
<text text-anchor="middle" x="1767" y="-223" font-family="sans" font-size="10.00">i: 2</text>
</g>
<!-- 20&#45;&gt;22 -->
<g id="edge42" class="edge">
<title>20&#45;&gt;22</title>
<path fill="none" stroke="grey" stroke-width="2" d="M1556.39,-292.99C1597.98,-283.81 1649.73,-271.81 1704.43,-257.06"/>
<polygon fill="grey" stroke="grey" stroke-width="2" points="1705.58,-260.37 1714.32,-254.37 1703.75,-253.62 1705.58,-260.37"/>
</g>
<!-- 21&#45;&gt;9 -->
<g id="edge21" class="edge">
<title>21&#45;&gt;9</title>
<path fill="none" stroke="grey" stroke-width="2" d="M1466.15,-215.88C1451.49,-206.56 1433.88,-195.36 1418.65,-185.67"/>
<polygon fill="grey" stroke="grey" stroke-width="2" points="1420.31,-182.58 1409.99,-180.17 1416.55,-188.49 1420.31,-182.58"/>
</g>
<!-- 22&#45;&gt;9 -->
<g id="edge22" class="edge">
<title>22&#45;&gt;9</title>
<path fill="none" stroke="grey" stroke-width="2" d="M1714.38,-218.39C1711.22,-217.54 1708.07,-216.73 1705,-216 1606.01,-192.41 1487.42,-175.83 1425.46,-168.04"/>
<polygon fill="grey" stroke="grey" stroke-width="2" points="1425.65,-164.54 1415.29,-166.78 1424.78,-171.48 1425.65,-164.54"/>
</g>
<!-- 23 -->
<g id="node24" class="node">
<title>23</title>
<path fill="none" stroke="#68d856" stroke-width="2" d="M1351,-699C1351,-699 1199,-699 1199,-699 1193,-699 1187,-693 1187,-687 1187,-687 1187,-675 1187,-675 1187,-669 1193,-663 1199,-663 1199,-663 1351,-663 1351,-663 1357,-663 1363,-669 1363,-675 1363,-675 1363,-687 1363,-687 1363,-693 1357,-699 1351,-699"/>
<text text-anchor="middle" x="1275" y="-684" font-family="sans" font-size="10.00">aln_length</text>
<text text-anchor="middle" x="1275" y="-673" font-family="sans" font-size="10.00">aln: subsampled_phylogenetic_2</text>
</g>
<!-- 23&#45;&gt;9 -->
<g id="edge23" class="edge">
<title>23&#45;&gt;9</title>
<path fill="none" stroke="grey" stroke-width="2" d="M1266.5,-662.83C1253.97,-635.87 1232,-581.66 1232,-533 1232,-533 1232,-533 1232,-310 1232,-263.49 1245.31,-249.09 1278,-216 1295.55,-198.24 1320.28,-185.35 1341.34,-176.74"/>
<polygon fill="grey" stroke="grey" stroke-width="2" points="1342.68,-179.97 1350.72,-173.08 1340.13,-173.45 1342.68,-179.97"/>
</g>
<!-- 36 -->
<g id="node37" class="node">
<title>36</title>
<path fill="none" stroke="#56d86b" stroke-width="2" d="M1516,-401C1516,-401 1348,-401 1348,-401 1342,-401 1336,-395 1336,-389 1336,-389 1336,-377 1336,-377 1336,-371 1342,-365 1348,-365 1348,-365 1516,-365 1516,-365 1522,-365 1528,-371 1528,-377 1528,-377 1528,-389 1528,-389 1528,-395 1522,-401 1516,-401"/>
<text text-anchor="middle" x="1432" y="-380.5" font-family="sans" font-size="10.00">collapse_non_informative_branches</text>
</g>
<!-- 23&#45;&gt;36 -->
<g id="edge59" class="edge">
<title>23&#45;&gt;36</title>
<path fill="none" stroke="grey" stroke-width="2" d="M1272.95,-662.97C1269.95,-631.73 1267.09,-563.86 1291,-514 1313.4,-467.29 1360.66,-429.33 1394.28,-406.75"/>
<polygon fill="grey" stroke="grey" stroke-width="2" points="1396.5,-409.48 1402.94,-401.07 1392.66,-403.63 1396.5,-409.48"/>
</g>
<!-- 55 -->
<g id="node56" class="node">
<title>55</title>
<path fill="none" stroke="#d89c56" stroke-width="2" d="M1445.5,-627C1445.5,-627 1364.5,-627 1364.5,-627 1358.5,-627 1352.5,-621 1352.5,-615 1352.5,-615 1352.5,-598 1352.5,-598 1352.5,-592 1358.5,-586 1364.5,-586 1364.5,-586 1445.5,-586 1445.5,-586 1451.5,-586 1457.5,-592 1457.5,-598 1457.5,-598 1457.5,-615 1457.5,-615 1457.5,-621 1451.5,-627 1445.5,-627"/>
<text text-anchor="middle" x="1405" y="-615" font-family="sans" font-size="10.00">raxfast</text>
<text text-anchor="middle" x="1405" y="-604" font-family="sans" font-size="10.00">freq: phylogenetic</text>
<text text-anchor="middle" x="1405" y="-593" font-family="sans" font-size="10.00">i: 2</text>
</g>
<!-- 23&#45;&gt;55 -->
<g id="edge89" class="edge">
<title>23&#45;&gt;55</title>
<path fill="none" stroke="grey" stroke-width="2" d="M1305.81,-662.82C1322.18,-653.69 1342.59,-642.31 1360.63,-632.24"/>
<polygon fill="grey" stroke="grey" stroke-width="2" points="1362.79,-635.05 1369.82,-627.12 1359.38,-628.93 1362.79,-635.05"/>
</g>
<!-- 24 -->
<g id="node25" class="node">
<title>24</title>
<path fill="none" stroke="#56d8a9" stroke-width="2" d="M2259.5,-329C2259.5,-329 1922.5,-329 1922.5,-329 1916.5,-329 1910.5,-323 1910.5,-317 1910.5,-317 1910.5,-305 1910.5,-305 1910.5,-299 1916.5,-293 1922.5,-293 1922.5,-293 2259.5,-293 2259.5,-293 2265.5,-293 2271.5,-299 2271.5,-305 2271.5,-305 2271.5,-317 2271.5,-317 2271.5,-323 2265.5,-329 2259.5,-329"/>
<text text-anchor="middle" x="2091" y="-314" font-family="sans" font-size="10.00">name</text>
<text text-anchor="middle" x="2091" y="-303" font-family="sans" font-size="10.00">tree: rooted_raxfast_subsampled_phylogenetic_3.duplicated.collapsed</text>
</g>
<!-- 24&#45;&gt;10 -->
<g id="edge24" class="edge">
<title>24&#45;&gt;10</title>
<path fill="none" stroke="grey" stroke-width="2" d="M1961.53,-293C1940.29,-285.02 1920.27,-273.52 1905,-257 1888.54,-239.2 1884.66,-211.24 1884.37,-190.43"/>
<polygon fill="grey" stroke="grey" stroke-width="2" points="1887.87,-190.34 1884.5,-180.29 1880.87,-190.25 1887.87,-190.34"/>
</g>
<!-- 25 -->
<g id="node26" class="node">
<title>25</title>
<path fill="none" stroke="#56d8d0" stroke-width="2" d="M2300,-257C2300,-257 1926,-257 1926,-257 1920,-257 1914,-251 1914,-245 1914,-245 1914,-228 1914,-228 1914,-222 1920,-216 1926,-216 1926,-216 2300,-216 2300,-216 2306,-216 2312,-222 2312,-228 2312,-228 2312,-245 2312,-245 2312,-251 2306,-257 2300,-257"/>
<text text-anchor="middle" x="2113" y="-245" font-family="sans" font-size="10.00">tree_size</text>
<text text-anchor="middle" x="2113" y="-234" font-family="sans" font-size="10.00">tree: rooted_raxfast_subsampled_phylogenetic_3.duplicated.collapsed.named</text>
<text text-anchor="middle" x="2113" y="-223" font-family="sans" font-size="10.00">type: phylogenies</text>
</g>
<!-- 24&#45;&gt;25 -->
<g id="edge45" class="edge">
<title>24&#45;&gt;25</title>
<path fill="none" stroke="grey" stroke-width="2" d="M2096.21,-292.82C2098.58,-285.03 2101.44,-275.6 2104.12,-266.75"/>
<polygon fill="grey" stroke="grey" stroke-width="2" points="2107.49,-267.71 2107.05,-257.12 2100.79,-265.67 2107.49,-267.71"/>
</g>
<!-- 26 -->
<g id="node27" class="node">
<title>26</title>
<path fill="none" stroke="#567bd8" stroke-width="2" d="M2423.5,-257C2423.5,-257 2342.5,-257 2342.5,-257 2336.5,-257 2330.5,-251 2330.5,-245 2330.5,-245 2330.5,-228 2330.5,-228 2330.5,-222 2336.5,-216 2342.5,-216 2342.5,-216 2423.5,-216 2423.5,-216 2429.5,-216 2435.5,-222 2435.5,-228 2435.5,-228 2435.5,-245 2435.5,-245 2435.5,-251 2429.5,-257 2423.5,-257"/>
<text text-anchor="middle" x="2383" y="-245" font-family="sans" font-size="10.00">dates_lsd2</text>
<text text-anchor="middle" x="2383" y="-234" font-family="sans" font-size="10.00">freq: phylogenetic</text>
<text text-anchor="middle" x="2383" y="-223" font-family="sans" font-size="10.00">i: 3</text>
</g>
<!-- 24&#45;&gt;26 -->
<g id="edge46" class="edge">
<title>24&#45;&gt;26</title>
<path fill="none" stroke="grey" stroke-width="2" d="M2172.02,-292.95C2213.75,-283.79 2265.61,-271.81 2320.42,-257.06"/>
<polygon fill="grey" stroke="grey" stroke-width="2" points="2321.58,-260.37 2330.32,-254.38 2319.75,-253.62 2321.58,-260.37"/>
</g>
<!-- 25&#45;&gt;10 -->
<g id="edge25" class="edge">
<title>25&#45;&gt;10</title>
<path fill="none" stroke="grey" stroke-width="2" d="M2051.87,-215.98C2012.67,-203.46 1962.79,-187.53 1928.01,-176.42"/>
<polygon fill="grey" stroke="grey" stroke-width="2" points="1928.77,-172.99 1918.18,-173.28 1926.64,-179.65 1928.77,-172.99"/>
</g>
<!-- 26&#45;&gt;10 -->
<g id="edge26" class="edge">
<title>26&#45;&gt;10</title>
<path fill="none" stroke="grey" stroke-width="2" d="M2330.41,-218.24C2327.24,-217.42 2324.09,-216.67 2321,-216 2179.14,-185.32 2007.13,-170.93 1928.7,-165.59"/>
<polygon fill="grey" stroke="grey" stroke-width="2" points="1928.47,-162.07 1918.26,-164.9 1928.01,-169.06 1928.47,-162.07"/>
</g>
<!-- 27 -->
<g id="node28" class="node">
<title>27</title>
<path fill="none" stroke="#68d856" stroke-width="2" d="M1962,-699C1962,-699 1810,-699 1810,-699 1804,-699 1798,-693 1798,-687 1798,-687 1798,-675 1798,-675 1798,-669 1804,-663 1810,-663 1810,-663 1962,-663 1962,-663 1968,-663 1974,-669 1974,-675 1974,-675 1974,-687 1974,-687 1974,-693 1968,-699 1962,-699"/>
<text text-anchor="middle" x="1886" y="-684" font-family="sans" font-size="10.00">aln_length</text>
<text text-anchor="middle" x="1886" y="-673" font-family="sans" font-size="10.00">aln: subsampled_phylogenetic_3</text>
</g>
<!-- 27&#45;&gt;10 -->
<g id="edge27" class="edge">
<title>27&#45;&gt;10</title>
<path fill="none" stroke="grey" stroke-width="2" d="M1878.49,-662.72C1867.42,-635.63 1848,-581.24 1848,-533 1848,-533 1848,-533 1848,-310 1848,-266.85 1863.54,-218.78 1874.74,-189.72"/>
<polygon fill="grey" stroke="grey" stroke-width="2" points="1878.06,-190.86 1878.49,-180.28 1871.55,-188.28 1878.06,-190.86"/>
</g>
<!-- 38 -->
<g id="node39" class="node">
<title>38</title>
<path fill="none" stroke="#56d86b" stroke-width="2" d="M2131,-401C2131,-401 1963,-401 1963,-401 1957,-401 1951,-395 1951,-389 1951,-389 1951,-377 1951,-377 1951,-371 1957,-365 1963,-365 1963,-365 2131,-365 2131,-365 2137,-365 2143,-371 2143,-377 2143,-377 2143,-389 2143,-389 2143,-395 2137,-401 2131,-401"/>
<text text-anchor="middle" x="2047" y="-380.5" font-family="sans" font-size="10.00">collapse_non_informative_branches</text>
</g>
<!-- 27&#45;&gt;38 -->
<g id="edge62" class="edge">
<title>27&#45;&gt;38</title>
<path fill="none" stroke="grey" stroke-width="2" d="M1884.3,-662.93C1881.95,-631.62 1880.44,-563.66 1905,-514 1928.05,-467.38 1975.54,-429.41 2009.24,-406.79"/>
<polygon fill="grey" stroke="grey" stroke-width="2" points="2011.48,-409.51 2017.92,-401.1 2007.64,-403.66 2011.48,-409.51"/>
</g>
<!-- 56 -->
<g id="node57" class="node">
<title>56</title>
<path fill="none" stroke="#d89c56" stroke-width="2" d="M2054.5,-627C2054.5,-627 1973.5,-627 1973.5,-627 1967.5,-627 1961.5,-621 1961.5,-615 1961.5,-615 1961.5,-598 1961.5,-598 1961.5,-592 1967.5,-586 1973.5,-586 1973.5,-586 2054.5,-586 2054.5,-586 2060.5,-586 2066.5,-592 2066.5,-598 2066.5,-598 2066.5,-615 2066.5,-615 2066.5,-621 2060.5,-627 2054.5,-627"/>
<text text-anchor="middle" x="2014" y="-615" font-family="sans" font-size="10.00">raxfast</text>
<text text-anchor="middle" x="2014" y="-604" font-family="sans" font-size="10.00">freq: phylogenetic</text>
<text text-anchor="middle" x="2014" y="-593" font-family="sans" font-size="10.00">i: 3</text>
</g>
<!-- 27&#45;&gt;56 -->
<g id="edge92" class="edge">
<title>27&#45;&gt;56</title>
<path fill="none" stroke="grey" stroke-width="2" d="M1916.33,-662.82C1932.45,-653.69 1952.55,-642.31 1970.32,-632.24"/>
<polygon fill="grey" stroke="grey" stroke-width="2" points="1972.39,-635.09 1979.36,-627.12 1968.94,-629 1972.39,-635.09"/>
</g>
<!-- 28 -->
<g id="node29" class="node">
<title>28</title>
<path fill="none" stroke="#56d8a9" stroke-width="2" d="M2868.5,-329C2868.5,-329 2531.5,-329 2531.5,-329 2525.5,-329 2519.5,-323 2519.5,-317 2519.5,-317 2519.5,-305 2519.5,-305 2519.5,-299 2525.5,-293 2531.5,-293 2531.5,-293 2868.5,-293 2868.5,-293 2874.5,-293 2880.5,-299 2880.5,-305 2880.5,-305 2880.5,-317 2880.5,-317 2880.5,-323 2874.5,-329 2868.5,-329"/>
<text text-anchor="middle" x="2700" y="-314" font-family="sans" font-size="10.00">name</text>
<text text-anchor="middle" x="2700" y="-303" font-family="sans" font-size="10.00">tree: rooted_raxfast_subsampled_phylogenetic_4.duplicated.collapsed</text>
</g>
<!-- 28&#45;&gt;11 -->
<g id="edge28" class="edge">
<title>28&#45;&gt;11</title>
<path fill="none" stroke="grey" stroke-width="2" d="M2577.17,-292.88C2556.06,-284.95 2536.1,-273.5 2521,-257 2504.63,-239.12 2500.74,-211.16 2500.42,-190.38"/>
<polygon fill="grey" stroke="grey" stroke-width="2" points="2503.92,-190.3 2500.54,-180.26 2496.92,-190.22 2503.92,-190.3"/>
</g>
<!-- 29 -->
<g id="node30" class="node">
<title>29</title>
<path fill="none" stroke="#56d8d0" stroke-width="2" d="M2916,-257C2916,-257 2542,-257 2542,-257 2536,-257 2530,-251 2530,-245 2530,-245 2530,-228 2530,-228 2530,-222 2536,-216 2542,-216 2542,-216 2916,-216 2916,-216 2922,-216 2928,-222 2928,-228 2928,-228 2928,-245 2928,-245 2928,-251 2922,-257 2916,-257"/>
<text text-anchor="middle" x="2729" y="-245" font-family="sans" font-size="10.00">tree_size</text>
<text text-anchor="middle" x="2729" y="-234" font-family="sans" font-size="10.00">tree: rooted_raxfast_subsampled_phylogenetic_4.duplicated.collapsed.named</text>
<text text-anchor="middle" x="2729" y="-223" font-family="sans" font-size="10.00">type: phylogenies</text>
</g>
<!-- 28&#45;&gt;29 -->
<g id="edge49" class="edge">
<title>28&#45;&gt;29</title>
<path fill="none" stroke="grey" stroke-width="2" d="M2706.87,-292.82C2710.02,-284.95 2713.84,-275.4 2717.41,-266.46"/>
<polygon fill="grey" stroke="grey" stroke-width="2" points="2720.69,-267.7 2721.15,-257.12 2714.19,-265.1 2720.69,-267.7"/>
</g>
<!-- 30 -->
<g id="node31" class="node">
<title>30</title>
<path fill="none" stroke="#567bd8" stroke-width="2" d="M3039.5,-257C3039.5,-257 2958.5,-257 2958.5,-257 2952.5,-257 2946.5,-251 2946.5,-245 2946.5,-245 2946.5,-228 2946.5,-228 2946.5,-222 2952.5,-216 2958.5,-216 2958.5,-216 3039.5,-216 3039.5,-216 3045.5,-216 3051.5,-222 3051.5,-228 3051.5,-228 3051.5,-245 3051.5,-245 3051.5,-251 3045.5,-257 3039.5,-257"/>
<text text-anchor="middle" x="2999" y="-245" font-family="sans" font-size="10.00">dates_lsd2</text>
<text text-anchor="middle" x="2999" y="-234" font-family="sans" font-size="10.00">freq: phylogenetic</text>
<text text-anchor="middle" x="2999" y="-223" font-family="sans" font-size="10.00">i: 4</text>
</g>
<!-- 28&#45;&gt;30 -->
<g id="edge50" class="edge">
<title>28&#45;&gt;30</title>
<path fill="none" stroke="grey" stroke-width="2" d="M2784.33,-292.96C2827.3,-283.84 2880.52,-271.9 2936.57,-257.01"/>
<polygon fill="grey" stroke="grey" stroke-width="2" points="2937.57,-260.37 2946.32,-254.4 2935.76,-253.61 2937.57,-260.37"/>
</g>
<!-- 29&#45;&gt;11 -->
<g id="edge29" class="edge">
<title>29&#45;&gt;11</title>
<path fill="none" stroke="grey" stroke-width="2" d="M2667.87,-215.98C2628.67,-203.46 2578.79,-187.53 2544.01,-176.42"/>
<polygon fill="grey" stroke="grey" stroke-width="2" points="2544.77,-172.99 2534.18,-173.28 2542.64,-179.65 2544.77,-172.99"/>
</g>
<!-- 30&#45;&gt;11 -->
<g id="edge30" class="edge">
<title>30&#45;&gt;11</title>
<path fill="none" stroke="grey" stroke-width="2" d="M2946.41,-218.24C2943.24,-217.42 2940.09,-216.67 2937,-216 2795.14,-185.32 2623.13,-170.93 2544.7,-165.59"/>
<polygon fill="grey" stroke="grey" stroke-width="2" points="2544.47,-162.07 2534.26,-164.9 2544.01,-169.06 2544.47,-162.07"/>
</g>
<!-- 31 -->
<g id="node32" class="node">
<title>31</title>
<path fill="none" stroke="#68d856" stroke-width="2" d="M2578,-699C2578,-699 2426,-699 2426,-699 2420,-699 2414,-693 2414,-687 2414,-687 2414,-675 2414,-675 2414,-669 2420,-663 2426,-663 2426,-663 2578,-663 2578,-663 2584,-663 2590,-669 2590,-675 2590,-675 2590,-687 2590,-687 2590,-693 2584,-699 2578,-699"/>
<text text-anchor="middle" x="2502" y="-684" font-family="sans" font-size="10.00">aln_length</text>
<text text-anchor="middle" x="2502" y="-673" font-family="sans" font-size="10.00">aln: subsampled_phylogenetic_4</text>
</g>
<!-- 31&#45;&gt;11 -->
<g id="edge31" class="edge">
<title>31&#45;&gt;11</title>
<path fill="none" stroke="grey" stroke-width="2" d="M2494.49,-662.72C2483.42,-635.63 2464,-581.24 2464,-533 2464,-533 2464,-533 2464,-310 2464,-266.85 2479.54,-218.78 2490.74,-189.72"/>
<polygon fill="grey" stroke="grey" stroke-width="2" points="2494.06,-190.86 2494.49,-180.28 2487.55,-188.28 2494.06,-190.86"/>
</g>
<!-- 40 -->
<g id="node41" class="node">
<title>40</title>
<path fill="none" stroke="#56d86b" stroke-width="2" d="M2754,-401C2754,-401 2586,-401 2586,-401 2580,-401 2574,-395 2574,-389 2574,-389 2574,-377 2574,-377 2574,-371 2580,-365 2586,-365 2586,-365 2754,-365 2754,-365 2760,-365 2766,-371 2766,-377 2766,-377 2766,-389 2766,-389 2766,-395 2760,-401 2754,-401"/>
<text text-anchor="middle" x="2670" y="-380.5" font-family="sans" font-size="10.00">collapse_non_informative_branches</text>
</g>
<!-- 31&#45;&gt;40 -->
<g id="edge65" class="edge">
<title>31&#45;&gt;40</title>
<path fill="none" stroke="grey" stroke-width="2" d="M2500.23,-662.83C2497.79,-631.34 2496.25,-563.1 2522,-514 2546.75,-466.82 2596.19,-428.91 2631.1,-406.47"/>
<polygon fill="grey" stroke="grey" stroke-width="2" points="2633.04,-409.39 2639.64,-401.1 2629.31,-403.46 2633.04,-409.39"/>
</g>
<!-- 57 -->
<g id="node58" class="node">
<title>57</title>
<path fill="none" stroke="#d89c56" stroke-width="2" d="M2669.5,-627C2669.5,-627 2588.5,-627 2588.5,-627 2582.5,-627 2576.5,-621 2576.5,-615 2576.5,-615 2576.5,-598 2576.5,-598 2576.5,-592 2582.5,-586 2588.5,-586 2588.5,-586 2669.5,-586 2669.5,-586 2675.5,-586 2681.5,-592 2681.5,-598 2681.5,-598 2681.5,-615 2681.5,-615 2681.5,-621 2675.5,-627 2669.5,-627"/>
<text text-anchor="middle" x="2629" y="-615" font-family="sans" font-size="10.00">raxfast</text>
<text text-anchor="middle" x="2629" y="-604" font-family="sans" font-size="10.00">freq: phylogenetic</text>
<text text-anchor="middle" x="2629" y="-593" font-family="sans" font-size="10.00">i: 4</text>
</g>
<!-- 31&#45;&gt;57 -->
<g id="edge95" class="edge">
<title>31&#45;&gt;57</title>
<path fill="none" stroke="grey" stroke-width="2" d="M2532.1,-662.82C2548.09,-653.69 2568.03,-642.31 2585.66,-632.24"/>
<polygon fill="grey" stroke="grey" stroke-width="2" points="2587.68,-635.12 2594.63,-627.12 2584.21,-629.04 2587.68,-635.12"/>
</g>
<!-- 32&#45;&gt;12 -->
<g id="edge32" class="edge">
<title>32&#45;&gt;12</title>
<path fill="none" stroke="grey" stroke-width="2" d="M265,-364.7C265,-356.98 265,-347.71 265,-339.11"/>
<polygon fill="grey" stroke="grey" stroke-width="2" points="268.5,-339.1 265,-329.1 261.5,-339.1 268.5,-339.1"/>
</g>
<!-- 33 -->
<g id="node34" class="node">
<title>33</title>
<path fill="none" stroke="#569ad8" stroke-width="2" d="M471,-771C471,-771 319,-771 319,-771 313,-771 307,-765 307,-759 307,-759 307,-747 307,-747 307,-741 313,-735 319,-735 319,-735 471,-735 471,-735 477,-735 483,-741 483,-747 483,-747 483,-759 483,-759 483,-765 477,-771 471,-771"/>
<text text-anchor="middle" x="395" y="-756" font-family="sans" font-size="10.00">aln_for_ids</text>
<text text-anchor="middle" x="395" y="-745" font-family="sans" font-size="10.00">ids: subsampled_phylogenetic_0</text>
</g>
<!-- 33&#45;&gt;15 -->
<g id="edge35" class="edge">
<title>33&#45;&gt;15</title>
<path fill="none" stroke="grey" stroke-width="2" d="M349.25,-734.88C323.24,-725.14 290.47,-712.87 263.05,-702.61"/>
<polygon fill="grey" stroke="grey" stroke-width="2" points="264.19,-699.3 253.6,-699.07 261.74,-705.85 264.19,-699.3"/>
</g>
<!-- 42 -->
<g id="node43" class="node">
<title>42</title>
<path fill="none" stroke="#56d88a" stroke-width="2" d="M375.5,-478C375.5,-478 294.5,-478 294.5,-478 288.5,-478 282.5,-472 282.5,-466 282.5,-466 282.5,-449 282.5,-449 282.5,-443 288.5,-437 294.5,-437 294.5,-437 375.5,-437 375.5,-437 381.5,-437 387.5,-443 387.5,-449 387.5,-449 387.5,-466 387.5,-466 387.5,-472 381.5,-478 375.5,-478"/>
<text text-anchor="middle" x="335" y="-466" font-family="sans" font-size="10.00">repopulate</text>
<text text-anchor="middle" x="335" y="-455" font-family="sans" font-size="10.00">freq: phylogenetic</text>
<text text-anchor="middle" x="335" y="-444" font-family="sans" font-size="10.00">i: 0</text>
</g>
<!-- 33&#45;&gt;42 -->
<g id="edge68" class="edge">
<title>33&#45;&gt;42</title>
<path fill="none" stroke="grey" stroke-width="2" d="M412.09,-734.9C420.73,-725.2 430.52,-712.35 436,-699 467.36,-622.57 498.38,-583.67 454,-514 441.2,-493.9 419.01,-480.96 397.23,-472.69"/>
<polygon fill="grey" stroke="grey" stroke-width="2" points="398.22,-469.33 387.63,-469.31 395.9,-475.93 398.22,-469.33"/>
</g>
<!-- 33&#45;&gt;53 -->
<g id="edge82" class="edge">
<title>33&#45;&gt;53</title>
<path fill="none" stroke="grey" stroke-width="2" d="M378.35,-734.71C369.84,-724.95 360.03,-712.1 354,-699 345.04,-679.54 340.26,-655.8 337.74,-637.38"/>
<polygon fill="grey" stroke="grey" stroke-width="2" points="341.19,-636.73 336.51,-627.22 334.24,-637.57 341.19,-636.73"/>
</g>
<!-- 58 -->
<g id="node59" class="node">
<title>58</title>
<path fill="none" stroke="#56c1d8" stroke-width="2" d="M415,-699C415,-699 375,-699 375,-699 369,-699 363,-693 363,-687 363,-687 363,-675 363,-675 363,-669 369,-663 375,-663 375,-663 415,-663 415,-663 421,-663 427,-669 427,-675 427,-675 427,-687 427,-687 427,-693 421,-699 415,-699"/>
<text text-anchor="middle" x="395" y="-678.5" font-family="sans" font-size="10.00">start_tree</text>
</g>
<!-- 33&#45;&gt;58 -->
<g id="edge97" class="edge">
<title>33&#45;&gt;58</title>
<path fill="none" stroke="grey" stroke-width="2" d="M395,-734.7C395,-726.98 395,-717.71 395,-709.11"/>
<polygon fill="grey" stroke="grey" stroke-width="2" points="398.5,-709.1 395,-699.1 391.5,-709.1 398.5,-709.1"/>
</g>
<!-- 34&#45;&gt;16 -->
<g id="edge36" class="edge">
<title>34&#45;&gt;16</title>
<path fill="none" stroke="grey" stroke-width="2" d="M881,-364.7C881,-356.98 881,-347.71 881,-339.11"/>
<polygon fill="grey" stroke="grey" stroke-width="2" points="884.5,-339.1 881,-329.1 877.5,-339.1 884.5,-339.1"/>
</g>
<!-- 35 -->
<g id="node36" class="node">
<title>35</title>
<path fill="none" stroke="#569ad8" stroke-width="2" d="M1088,-771C1088,-771 936,-771 936,-771 930,-771 924,-765 924,-759 924,-759 924,-747 924,-747 924,-741 930,-735 936,-735 936,-735 1088,-735 1088,-735 1094,-735 1100,-741 1100,-747 1100,-747 1100,-759 1100,-759 1100,-765 1094,-771 1088,-771"/>
<text text-anchor="middle" x="1012" y="-756" font-family="sans" font-size="10.00">aln_for_ids</text>
<text text-anchor="middle" x="1012" y="-745" font-family="sans" font-size="10.00">ids: subsampled_phylogenetic_1</text>
</g>
<!-- 35&#45;&gt;19 -->
<g id="edge39" class="edge">
<title>35&#45;&gt;19</title>
<path fill="none" stroke="grey" stroke-width="2" d="M966.25,-734.88C940.24,-725.14 907.47,-712.87 880.05,-702.61"/>
<polygon fill="grey" stroke="grey" stroke-width="2" points="881.19,-699.3 870.6,-699.07 878.74,-705.85 881.19,-699.3"/>
</g>
<!-- 44 -->
<g id="node45" class="node">
<title>44</title>
<path fill="none" stroke="#56d88a" stroke-width="2" d="M992.5,-478C992.5,-478 911.5,-478 911.5,-478 905.5,-478 899.5,-472 899.5,-466 899.5,-466 899.5,-449 899.5,-449 899.5,-443 905.5,-437 911.5,-437 911.5,-437 992.5,-437 992.5,-437 998.5,-437 1004.5,-443 1004.5,-449 1004.5,-449 1004.5,-466 1004.5,-466 1004.5,-472 998.5,-478 992.5,-478"/>
<text text-anchor="middle" x="952" y="-466" font-family="sans" font-size="10.00">repopulate</text>
<text text-anchor="middle" x="952" y="-455" font-family="sans" font-size="10.00">freq: phylogenetic</text>
<text text-anchor="middle" x="952" y="-444" font-family="sans" font-size="10.00">i: 1</text>
</g>
<!-- 35&#45;&gt;44 -->
<g id="edge70" class="edge">
<title>35&#45;&gt;44</title>
<path fill="none" stroke="grey" stroke-width="2" d="M1029.09,-734.9C1037.73,-725.2 1047.52,-712.35 1053,-699 1084.36,-622.57 1115.38,-583.67 1071,-514 1058.2,-493.9 1036.01,-480.96 1014.23,-472.69"/>
<polygon fill="grey" stroke="grey" stroke-width="2" points="1015.22,-469.33 1004.63,-469.31 1012.9,-475.93 1015.22,-469.33"/>
</g>
<!-- 35&#45;&gt;54 -->
<g id="edge85" class="edge">
<title>35&#45;&gt;54</title>
<path fill="none" stroke="grey" stroke-width="2" d="M995.35,-734.71C986.84,-724.95 977.03,-712.1 971,-699 962.04,-679.54 957.26,-655.8 954.74,-637.38"/>
<polygon fill="grey" stroke="grey" stroke-width="2" points="958.19,-636.73 953.51,-627.22 951.24,-637.57 958.19,-636.73"/>
</g>
<!-- 59 -->
<g id="node60" class="node">
<title>59</title>
<path fill="none" stroke="#56c1d8" stroke-width="2" d="M1032,-699C1032,-699 992,-699 992,-699 986,-699 980,-693 980,-687 980,-687 980,-675 980,-675 980,-669 986,-663 992,-663 992,-663 1032,-663 1032,-663 1038,-663 1044,-669 1044,-675 1044,-675 1044,-687 1044,-687 1044,-693 1038,-699 1032,-699"/>
<text text-anchor="middle" x="1012" y="-678.5" font-family="sans" font-size="10.00">start_tree</text>
</g>
<!-- 35&#45;&gt;59 -->
<g id="edge98" class="edge">
<title>35&#45;&gt;59</title>
<path fill="none" stroke="grey" stroke-width="2" d="M1012,-734.7C1012,-726.98 1012,-717.71 1012,-709.11"/>
<polygon fill="grey" stroke="grey" stroke-width="2" points="1015.5,-709.1 1012,-699.1 1008.5,-709.1 1015.5,-709.1"/>
</g>
<!-- 36&#45;&gt;20 -->
<g id="edge40" class="edge">
<title>36&#45;&gt;20</title>
<path fill="none" stroke="grey" stroke-width="2" d="M1442.88,-364.7C1447.99,-356.56 1454.2,-346.69 1459.84,-337.7"/>
<polygon fill="grey" stroke="grey" stroke-width="2" points="1462.89,-339.43 1465.25,-329.1 1456.96,-335.71 1462.89,-339.43"/>
</g>
<!-- 37 -->
<g id="node38" class="node">
<title>37</title>
<path fill="none" stroke="#569ad8" stroke-width="2" d="M1508,-771C1508,-771 1356,-771 1356,-771 1350,-771 1344,-765 1344,-759 1344,-759 1344,-747 1344,-747 1344,-741 1350,-735 1356,-735 1356,-735 1508,-735 1508,-735 1514,-735 1520,-741 1520,-747 1520,-747 1520,-759 1520,-759 1520,-765 1514,-771 1508,-771"/>
<text text-anchor="middle" x="1432" y="-756" font-family="sans" font-size="10.00">aln_for_ids</text>
<text text-anchor="middle" x="1432" y="-745" font-family="sans" font-size="10.00">ids: subsampled_phylogenetic_2</text>
</g>
<!-- 37&#45;&gt;23 -->
<g id="edge43" class="edge">
<title>37&#45;&gt;23</title>
<path fill="none" stroke="grey" stroke-width="2" d="M1393.59,-734.88C1372.13,-725.31 1345.2,-713.3 1322.43,-703.15"/>
<polygon fill="grey" stroke="grey" stroke-width="2" points="1323.84,-699.94 1313.28,-699.07 1320.99,-706.34 1323.84,-699.94"/>
</g>
<!-- 45 -->
<g id="node46" class="node">
<title>45</title>
<path fill="none" stroke="#56d88a" stroke-width="2" d="M1472.5,-478C1472.5,-478 1391.5,-478 1391.5,-478 1385.5,-478 1379.5,-472 1379.5,-466 1379.5,-466 1379.5,-449 1379.5,-449 1379.5,-443 1385.5,-437 1391.5,-437 1391.5,-437 1472.5,-437 1472.5,-437 1478.5,-437 1484.5,-443 1484.5,-449 1484.5,-449 1484.5,-466 1484.5,-466 1484.5,-472 1478.5,-478 1472.5,-478"/>
<text text-anchor="middle" x="1432" y="-466" font-family="sans" font-size="10.00">repopulate</text>
<text text-anchor="middle" x="1432" y="-455" font-family="sans" font-size="10.00">freq: phylogenetic</text>
<text text-anchor="middle" x="1432" y="-444" font-family="sans" font-size="10.00">i: 2</text>
</g>
<!-- 37&#45;&gt;45 -->
<g id="edge72" class="edge">
<title>37&#45;&gt;45</title>
<path fill="none" stroke="grey" stroke-width="2" d="M1464.78,-734.93C1478.68,-726.05 1493.77,-713.91 1503,-699 1538.43,-641.78 1523.98,-617.03 1530,-550 1531.43,-534.06 1538.06,-527.82 1530,-514 1521.64,-499.66 1508.05,-488.73 1493.62,-480.52"/>
<polygon fill="grey" stroke="grey" stroke-width="2" points="1495.04,-477.32 1484.56,-475.76 1491.78,-483.51 1495.04,-477.32"/>
</g>
<!-- 37&#45;&gt;55 -->
<g id="edge88" class="edge">
<title>37&#45;&gt;55</title>
<path fill="none" stroke="grey" stroke-width="2" d="M1428.3,-734.84C1426.09,-724.48 1423.29,-711 1421,-699 1417.05,-678.34 1412.97,-654.99 1409.92,-637.05"/>
<polygon fill="grey" stroke="grey" stroke-width="2" points="1413.37,-636.44 1408.25,-627.17 1406.47,-637.61 1413.37,-636.44"/>
</g>
<!-- 60 -->
<g id="node61" class="node">
<title>60</title>
<path fill="none" stroke="#56c1d8" stroke-width="2" d="M1482,-699C1482,-699 1442,-699 1442,-699 1436,-699 1430,-693 1430,-687 1430,-687 1430,-675 1430,-675 1430,-669 1436,-663 1442,-663 1442,-663 1482,-663 1482,-663 1488,-663 1494,-669 1494,-675 1494,-675 1494,-687 1494,-687 1494,-693 1488,-699 1482,-699"/>
<text text-anchor="middle" x="1462" y="-678.5" font-family="sans" font-size="10.00">start_tree</text>
</g>
<!-- 37&#45;&gt;60 -->
<g id="edge99" class="edge">
<title>37&#45;&gt;60</title>
<path fill="none" stroke="grey" stroke-width="2" d="M1439.42,-734.7C1442.79,-726.81 1446.87,-717.3 1450.62,-708.55"/>
<polygon fill="grey" stroke="grey" stroke-width="2" points="1453.95,-709.67 1454.67,-699.1 1447.51,-706.92 1453.95,-709.67"/>
</g>
<!-- 38&#45;&gt;24 -->
<g id="edge44" class="edge">
<title>38&#45;&gt;24</title>
<path fill="none" stroke="grey" stroke-width="2" d="M2057.88,-364.7C2062.99,-356.56 2069.2,-346.69 2074.84,-337.7"/>
<polygon fill="grey" stroke="grey" stroke-width="2" points="2077.89,-339.43 2080.25,-329.1 2071.96,-335.71 2077.89,-339.43"/>
</g>
<!-- 39 -->
<g id="node40" class="node">
<title>39</title>
<path fill="none" stroke="#569ad8" stroke-width="2" d="M2078,-771C2078,-771 1926,-771 1926,-771 1920,-771 1914,-765 1914,-759 1914,-759 1914,-747 1914,-747 1914,-741 1920,-735 1926,-735 1926,-735 2078,-735 2078,-735 2084,-735 2090,-741 2090,-747 2090,-747 2090,-759 2090,-759 2090,-765 2084,-771 2078,-771"/>
<text text-anchor="middle" x="2002" y="-756" font-family="sans" font-size="10.00">aln_for_ids</text>
<text text-anchor="middle" x="2002" y="-745" font-family="sans" font-size="10.00">ids: subsampled_phylogenetic_3</text>
</g>
<!-- 39&#45;&gt;27 -->
<g id="edge47" class="edge">
<title>39&#45;&gt;27</title>
<path fill="none" stroke="grey" stroke-width="2" d="M1973.62,-734.88C1958.46,-725.72 1939.59,-714.34 1923.26,-704.48"/>
<polygon fill="grey" stroke="grey" stroke-width="2" points="1924.86,-701.36 1914.49,-699.19 1921.24,-707.35 1924.86,-701.36"/>
</g>
<!-- 46 -->
<g id="node47" class="node">
<title>46</title>
<path fill="none" stroke="#56d88a" stroke-width="2" d="M2087.5,-478C2087.5,-478 2006.5,-478 2006.5,-478 2000.5,-478 1994.5,-472 1994.5,-466 1994.5,-466 1994.5,-449 1994.5,-449 1994.5,-443 2000.5,-437 2006.5,-437 2006.5,-437 2087.5,-437 2087.5,-437 2093.5,-437 2099.5,-443 2099.5,-449 2099.5,-449 2099.5,-466 2099.5,-466 2099.5,-472 2093.5,-478 2087.5,-478"/>
<text text-anchor="middle" x="2047" y="-466" font-family="sans" font-size="10.00">repopulate</text>
<text text-anchor="middle" x="2047" y="-455" font-family="sans" font-size="10.00">freq: phylogenetic</text>
<text text-anchor="middle" x="2047" y="-444" font-family="sans" font-size="10.00">i: 3</text>
</g>
<!-- 39&#45;&gt;46 -->
<g id="edge74" class="edge">
<title>39&#45;&gt;46</title>
<path fill="none" stroke="grey" stroke-width="2" d="M2053.14,-734.98C2071.17,-726.68 2090.14,-714.96 2103,-699 2146.08,-645.51 2134.81,-618.07 2144,-550 2146.14,-534.14 2152.03,-527.84 2144,-514 2135.82,-499.89 2122.55,-489.07 2108.42,-480.89"/>
<polygon fill="grey" stroke="grey" stroke-width="2" points="2110.02,-477.77 2099.55,-476.13 2106.71,-483.94 2110.02,-477.77"/>
</g>
<!-- 39&#45;&gt;56 -->
<g id="edge91" class="edge">
<title>39&#45;&gt;56</title>
<path fill="none" stroke="grey" stroke-width="2" d="M2003.42,-734.86C2005.41,-710.89 2009.06,-666.99 2011.51,-637.53"/>
<polygon fill="grey" stroke="grey" stroke-width="2" points="2015.01,-637.65 2012.35,-627.39 2008.03,-637.07 2015.01,-637.65"/>
</g>
<!-- 61 -->
<g id="node62" class="node">
<title>61</title>
<path fill="none" stroke="#56c1d8" stroke-width="2" d="M2082,-699C2082,-699 2042,-699 2042,-699 2036,-699 2030,-693 2030,-687 2030,-687 2030,-675 2030,-675 2030,-669 2036,-663 2042,-663 2042,-663 2082,-663 2082,-663 2088,-663 2094,-669 2094,-675 2094,-675 2094,-687 2094,-687 2094,-693 2088,-699 2082,-699"/>
<text text-anchor="middle" x="2062" y="-678.5" font-family="sans" font-size="10.00">start_tree</text>
</g>
<!-- 39&#45;&gt;61 -->
<g id="edge100" class="edge">
<title>39&#45;&gt;61</title>
<path fill="none" stroke="grey" stroke-width="2" d="M2016.83,-734.7C2024.02,-726.3 2032.8,-716.07 2040.69,-706.86"/>
<polygon fill="grey" stroke="grey" stroke-width="2" points="2043.49,-708.97 2047.34,-699.1 2038.17,-704.42 2043.49,-708.97"/>
</g>
<!-- 40&#45;&gt;28 -->
<g id="edge48" class="edge">
<title>40&#45;&gt;28</title>
<path fill="none" stroke="grey" stroke-width="2" d="M2677.42,-364.7C2680.79,-356.81 2684.87,-347.3 2688.62,-338.55"/>
<polygon fill="grey" stroke="grey" stroke-width="2" points="2691.95,-339.67 2692.67,-329.1 2685.51,-336.92 2691.95,-339.67"/>
</g>
<!-- 41 -->
<g id="node42" class="node">
<title>41</title>
<path fill="none" stroke="#569ad8" stroke-width="2" d="M2694,-771C2694,-771 2542,-771 2542,-771 2536,-771 2530,-765 2530,-759 2530,-759 2530,-747 2530,-747 2530,-741 2536,-735 2542,-735 2542,-735 2694,-735 2694,-735 2700,-735 2706,-741 2706,-747 2706,-747 2706,-759 2706,-759 2706,-765 2700,-771 2694,-771"/>
<text text-anchor="middle" x="2618" y="-756" font-family="sans" font-size="10.00">aln_for_ids</text>
<text text-anchor="middle" x="2618" y="-745" font-family="sans" font-size="10.00">ids: subsampled_phylogenetic_4</text>
</g>
<!-- 41&#45;&gt;31 -->
<g id="edge51" class="edge">
<title>41&#45;&gt;31</title>
<path fill="none" stroke="grey" stroke-width="2" d="M2589.62,-734.88C2574.46,-725.72 2555.59,-714.34 2539.26,-704.48"/>
<polygon fill="grey" stroke="grey" stroke-width="2" points="2540.86,-701.36 2530.49,-699.19 2537.24,-707.35 2540.86,-701.36"/>
</g>
<!-- 47 -->
<g id="node48" class="node">
<title>47</title>
<path fill="none" stroke="#56d88a" stroke-width="2" d="M2710.5,-478C2710.5,-478 2629.5,-478 2629.5,-478 2623.5,-478 2617.5,-472 2617.5,-466 2617.5,-466 2617.5,-449 2617.5,-449 2617.5,-443 2623.5,-437 2629.5,-437 2629.5,-437 2710.5,-437 2710.5,-437 2716.5,-437 2722.5,-443 2722.5,-449 2722.5,-449 2722.5,-466 2722.5,-466 2722.5,-472 2716.5,-478 2710.5,-478"/>
<text text-anchor="middle" x="2670" y="-466" font-family="sans" font-size="10.00">repopulate</text>
<text text-anchor="middle" x="2670" y="-455" font-family="sans" font-size="10.00">freq: phylogenetic</text>
<text text-anchor="middle" x="2670" y="-444" font-family="sans" font-size="10.00">i: 4</text>
</g>
<!-- 41&#45;&gt;47 -->
<g id="edge76" class="edge">
<title>41&#45;&gt;47</title>
<path fill="none" stroke="grey" stroke-width="2" d="M2669.08,-734.93C2687.12,-726.63 2706.09,-714.92 2719,-699 2762.32,-645.55 2751.58,-618.15 2761,-550 2763.19,-534.15 2768.83,-527.95 2761,-514 2753.86,-501.28 2742.49,-491.14 2730.18,-483.18"/>
<polygon fill="grey" stroke="grey" stroke-width="2" points="2731.92,-480.14 2721.54,-478.02 2728.33,-486.15 2731.92,-480.14"/>
</g>
<!-- 41&#45;&gt;57 -->
<g id="edge94" class="edge">
<title>41&#45;&gt;57</title>
<path fill="none" stroke="grey" stroke-width="2" d="M2619.31,-734.86C2621.13,-710.89 2624.47,-666.99 2626.71,-637.53"/>
<polygon fill="grey" stroke="grey" stroke-width="2" points="2630.22,-637.63 2627.49,-627.39 2623.24,-637.1 2630.22,-637.63"/>
</g>
<!-- 62 -->
<g id="node63" class="node">
<title>62</title>
<path fill="none" stroke="#56c1d8" stroke-width="2" d="M2698,-699C2698,-699 2658,-699 2658,-699 2652,-699 2646,-693 2646,-687 2646,-687 2646,-675 2646,-675 2646,-669 2652,-663 2658,-663 2658,-663 2698,-663 2698,-663 2704,-663 2710,-669 2710,-675 2710,-675 2710,-687 2710,-687 2710,-693 2704,-699 2698,-699"/>
<text text-anchor="middle" x="2678" y="-678.5" font-family="sans" font-size="10.00">start_tree</text>
</g>
<!-- 41&#45;&gt;62 -->
<g id="edge101" class="edge">
<title>41&#45;&gt;62</title>
<path fill="none" stroke="grey" stroke-width="2" d="M2632.83,-734.7C2640.02,-726.3 2648.8,-716.07 2656.69,-706.86"/>
<polygon fill="grey" stroke="grey" stroke-width="2" points="2659.49,-708.97 2663.34,-699.1 2654.17,-704.42 2659.49,-708.97"/>
</g>
<!-- 42&#45;&gt;32 -->
<g id="edge52" class="edge">
<title>42&#45;&gt;32</title>
<path fill="none" stroke="grey" stroke-width="2" d="M315.87,-436.69C307.52,-428.04 297.65,-417.81 288.83,-408.68"/>
<polygon fill="grey" stroke="grey" stroke-width="2" points="291.19,-406.08 281.72,-401.32 286.15,-410.94 291.19,-406.08"/>
</g>
<!-- 43 -->
<g id="node44" class="node">
<title>43</title>
<path fill="none" stroke="#ced856" stroke-width="2" d="M1487,-843C1487,-843 1377,-843 1377,-843 1371,-843 1365,-837 1365,-831 1365,-831 1365,-819 1365,-819 1365,-813 1371,-807 1377,-807 1377,-807 1487,-807 1487,-807 1493,-807 1499,-813 1499,-819 1499,-819 1499,-831 1499,-831 1499,-837 1493,-843 1487,-843"/>
<text text-anchor="middle" x="1432" y="-828" font-family="sans" font-size="10.00">subsample_proportional</text>
<text text-anchor="middle" x="1432" y="-817" font-family="sans" font-size="10.00">date: 20200425</text>
</g>
<!-- 43&#45;&gt;33 -->
<g id="edge54" class="edge">
<title>43&#45;&gt;33</title>
<path fill="none" stroke="grey" stroke-width="2" d="M1364.76,-819.46C1186.69,-807.44 702.27,-774.74 493.22,-760.63"/>
<polygon fill="grey" stroke="grey" stroke-width="2" points="493.38,-757.13 483.17,-759.95 492.91,-764.12 493.38,-757.13"/>
</g>
<!-- 43&#45;&gt;35 -->
<g id="edge57" class="edge">
<title>43&#45;&gt;35</title>
<path fill="none" stroke="grey" stroke-width="2" d="M1364.99,-812.83C1296.25,-801.37 1188.58,-783.43 1110.22,-770.37"/>
<polygon fill="grey" stroke="grey" stroke-width="2" points="1110.77,-766.91 1100.33,-768.72 1109.62,-773.82 1110.77,-766.91"/>
</g>
<!-- 43&#45;&gt;37 -->
<g id="edge60" class="edge">
<title>43&#45;&gt;37</title>
<path fill="none" stroke="grey" stroke-width="2" d="M1432,-806.7C1432,-798.98 1432,-789.71 1432,-781.11"/>
<polygon fill="grey" stroke="grey" stroke-width="2" points="1435.5,-781.1 1432,-771.1 1428.5,-781.1 1435.5,-781.1"/>
</g>
<!-- 43&#45;&gt;39 -->
<g id="edge63" class="edge">
<title>43&#45;&gt;39</title>
<path fill="none" stroke="grey" stroke-width="2" d="M1499.06,-815.76C1599.05,-803.49 1787.79,-780.31 1903.48,-766.1"/>
<polygon fill="grey" stroke="grey" stroke-width="2" points="1904.25,-769.53 1913.75,-764.84 1903.39,-762.58 1904.25,-769.53"/>
</g>
<!-- 43&#45;&gt;41 -->
<g id="edge66" class="edge">
<title>43&#45;&gt;41</title>
<path fill="none" stroke="grey" stroke-width="2" d="M1499.16,-820.04C1698.09,-808.29 2284.96,-773.66 2519.51,-759.81"/>
<polygon fill="grey" stroke="grey" stroke-width="2" points="2519.96,-763.29 2529.74,-759.21 2519.55,-756.3 2519.96,-763.29"/>
</g>
<!-- 44&#45;&gt;34 -->
<g id="edge55" class="edge">
<title>44&#45;&gt;34</title>
<path fill="none" stroke="grey" stroke-width="2" d="M932.6,-436.69C924.13,-428.04 914.11,-417.81 905.17,-408.68"/>
<polygon fill="grey" stroke="grey" stroke-width="2" points="907.46,-406.02 897.96,-401.32 902.46,-410.91 907.46,-406.02"/>
</g>
<!-- 45&#45;&gt;36 -->
<g id="edge58" class="edge">
<title>45&#45;&gt;36</title>
<path fill="none" stroke="grey" stroke-width="2" d="M1432,-436.69C1432,-428.91 1432,-419.84 1432,-411.45"/>
<polygon fill="grey" stroke="grey" stroke-width="2" points="1435.5,-411.32 1432,-401.32 1428.5,-411.32 1435.5,-411.32"/>
</g>
<!-- 46&#45;&gt;38 -->
<g id="edge61" class="edge">
<title>46&#45;&gt;38</title>
<path fill="none" stroke="grey" stroke-width="2" d="M2047,-436.69C2047,-428.91 2047,-419.84 2047,-411.45"/>
<polygon fill="grey" stroke="grey" stroke-width="2" points="2050.5,-411.32 2047,-401.32 2043.5,-411.32 2050.5,-411.32"/>
</g>
<!-- 47&#45;&gt;40 -->
<g id="edge64" class="edge">
<title>47&#45;&gt;40</title>
<path fill="none" stroke="grey" stroke-width="2" d="M2670,-436.69C2670,-428.91 2670,-419.84 2670,-411.45"/>
<polygon fill="grey" stroke="grey" stroke-width="2" points="2673.5,-411.32 2670,-401.32 2666.5,-411.32 2673.5,-411.32"/>
</g>
<!-- 48 -->
<g id="node49" class="node">
<title>48</title>
<path fill="none" stroke="#d85656" stroke-width="2" d="M433.5,-550C433.5,-550 236.5,-550 236.5,-550 230.5,-550 224.5,-544 224.5,-538 224.5,-538 224.5,-526 224.5,-526 224.5,-520 230.5,-514 236.5,-514 236.5,-514 433.5,-514 433.5,-514 439.5,-514 445.5,-520 445.5,-526 445.5,-526 445.5,-538 445.5,-538 445.5,-544 439.5,-550 433.5,-550"/>
<text text-anchor="middle" x="335" y="-535" font-family="sans" font-size="10.00">root</text>
<text text-anchor="middle" x="335" y="-524" font-family="sans" font-size="10.00">tree: raxfast_subsampled_phylogenetic_0</text>
</g>
<!-- 48&#45;&gt;42 -->
<g id="edge67" class="edge">
<title>48&#45;&gt;42</title>
<path fill="none" stroke="grey" stroke-width="2" d="M335,-513.82C335,-506.2 335,-497 335,-488.32"/>
<polygon fill="grey" stroke="grey" stroke-width="2" points="338.5,-488.12 335,-478.12 331.5,-488.12 338.5,-488.12"/>
</g>
<!-- 49 -->
<g id="node50" class="node">
<title>49</title>
<path fill="none" stroke="#d85656" stroke-width="2" d="M1050.5,-550C1050.5,-550 853.5,-550 853.5,-550 847.5,-550 841.5,-544 841.5,-538 841.5,-538 841.5,-526 841.5,-526 841.5,-520 847.5,-514 853.5,-514 853.5,-514 1050.5,-514 1050.5,-514 1056.5,-514 1062.5,-520 1062.5,-526 1062.5,-526 1062.5,-538 1062.5,-538 1062.5,-544 1056.5,-550 1050.5,-550"/>
<text text-anchor="middle" x="952" y="-535" font-family="sans" font-size="10.00">root</text>
<text text-anchor="middle" x="952" y="-524" font-family="sans" font-size="10.00">tree: raxfast_subsampled_phylogenetic_1</text>
</g>
<!-- 49&#45;&gt;44 -->
<g id="edge69" class="edge">
<title>49&#45;&gt;44</title>
<path fill="none" stroke="grey" stroke-width="2" d="M952,-513.82C952,-506.2 952,-497 952,-488.32"/>
<polygon fill="grey" stroke="grey" stroke-width="2" points="955.5,-488.12 952,-478.12 948.5,-488.12 955.5,-488.12"/>
</g>
<!-- 50 -->
<g id="node51" class="node">
<title>50</title>
<path fill="none" stroke="#d85656" stroke-width="2" d="M1509.5,-550C1509.5,-550 1312.5,-550 1312.5,-550 1306.5,-550 1300.5,-544 1300.5,-538 1300.5,-538 1300.5,-526 1300.5,-526 1300.5,-520 1306.5,-514 1312.5,-514 1312.5,-514 1509.5,-514 1509.5,-514 1515.5,-514 1521.5,-520 1521.5,-526 1521.5,-526 1521.5,-538 1521.5,-538 1521.5,-544 1515.5,-550 1509.5,-550"/>
<text text-anchor="middle" x="1411" y="-535" font-family="sans" font-size="10.00">root</text>
<text text-anchor="middle" x="1411" y="-524" font-family="sans" font-size="10.00">tree: raxfast_subsampled_phylogenetic_2</text>
</g>
<!-- 50&#45;&gt;45 -->
<g id="edge71" class="edge">
<title>50&#45;&gt;45</title>
<path fill="none" stroke="grey" stroke-width="2" d="M1415.98,-513.82C1418.23,-506.03 1420.96,-496.6 1423.53,-487.75"/>
<polygon fill="grey" stroke="grey" stroke-width="2" points="1426.9,-488.7 1426.32,-478.12 1420.17,-486.75 1426.9,-488.7"/>
</g>
<!-- 51 -->
<g id="node52" class="node">
<title>51</title>
<path fill="none" stroke="#d85656" stroke-width="2" d="M2123.5,-550C2123.5,-550 1926.5,-550 1926.5,-550 1920.5,-550 1914.5,-544 1914.5,-538 1914.5,-538 1914.5,-526 1914.5,-526 1914.5,-520 1920.5,-514 1926.5,-514 1926.5,-514 2123.5,-514 2123.5,-514 2129.5,-514 2135.5,-520 2135.5,-526 2135.5,-526 2135.5,-538 2135.5,-538 2135.5,-544 2129.5,-550 2123.5,-550"/>
<text text-anchor="middle" x="2025" y="-535" font-family="sans" font-size="10.00">root</text>
<text text-anchor="middle" x="2025" y="-524" font-family="sans" font-size="10.00">tree: raxfast_subsampled_phylogenetic_3</text>
</g>
<!-- 51&#45;&gt;46 -->
<g id="edge73" class="edge">
<title>51&#45;&gt;46</title>
<path fill="none" stroke="grey" stroke-width="2" d="M2030.21,-513.82C2032.58,-506.03 2035.44,-496.6 2038.12,-487.75"/>
<polygon fill="grey" stroke="grey" stroke-width="2" points="2041.49,-488.71 2041.05,-478.12 2034.79,-486.67 2041.49,-488.71"/>
</g>
<!-- 52 -->
<g id="node53" class="node">
<title>52</title>
<path fill="none" stroke="#d85656" stroke-width="2" d="M2739.5,-550C2739.5,-550 2542.5,-550 2542.5,-550 2536.5,-550 2530.5,-544 2530.5,-538 2530.5,-538 2530.5,-526 2530.5,-526 2530.5,-520 2536.5,-514 2542.5,-514 2542.5,-514 2739.5,-514 2739.5,-514 2745.5,-514 2751.5,-520 2751.5,-526 2751.5,-526 2751.5,-538 2751.5,-538 2751.5,-544 2745.5,-550 2739.5,-550"/>
<text text-anchor="middle" x="2641" y="-535" font-family="sans" font-size="10.00">root</text>
<text text-anchor="middle" x="2641" y="-524" font-family="sans" font-size="10.00">tree: raxfast_subsampled_phylogenetic_4</text>
</g>
<!-- 52&#45;&gt;47 -->
<g id="edge75" class="edge">
<title>52&#45;&gt;47</title>
<path fill="none" stroke="grey" stroke-width="2" d="M2647.87,-513.82C2651.02,-505.95 2654.84,-496.4 2658.41,-487.46"/>
<polygon fill="grey" stroke="grey" stroke-width="2" points="2661.69,-488.7 2662.15,-478.12 2655.19,-486.1 2661.69,-488.7"/>
</g>
<!-- 53&#45;&gt;48 -->
<g id="edge77" class="edge">
<title>53&#45;&gt;48</title>
<path fill="none" stroke="grey" stroke-width="2" d="M335,-585.69C335,-577.91 335,-568.84 335,-560.45"/>
<polygon fill="grey" stroke="grey" stroke-width="2" points="338.5,-560.32 335,-550.32 331.5,-560.32 338.5,-560.32"/>
</g>
<!-- 54&#45;&gt;49 -->
<g id="edge78" class="edge">
<title>54&#45;&gt;49</title>
<path fill="none" stroke="grey" stroke-width="2" d="M952,-585.69C952,-577.91 952,-568.84 952,-560.45"/>
<polygon fill="grey" stroke="grey" stroke-width="2" points="955.5,-560.32 952,-550.32 948.5,-560.32 955.5,-560.32"/>
</g>
<!-- 55&#45;&gt;50 -->
<g id="edge79" class="edge">
<title>55&#45;&gt;50</title>
<path fill="none" stroke="grey" stroke-width="2" d="M1406.64,-585.69C1407.28,-577.91 1408.03,-568.84 1408.73,-560.45"/>
<polygon fill="grey" stroke="grey" stroke-width="2" points="1412.23,-560.57 1409.57,-550.32 1405.25,-560 1412.23,-560.57"/>
</g>
<!-- 56&#45;&gt;51 -->
<g id="edge80" class="edge">
<title>56&#45;&gt;51</title>
<path fill="none" stroke="grey" stroke-width="2" d="M2017.01,-585.69C2018.19,-577.91 2019.56,-568.84 2020.84,-560.45"/>
<polygon fill="grey" stroke="grey" stroke-width="2" points="2024.33,-560.73 2022.37,-550.32 2017.41,-559.68 2024.33,-560.73"/>
</g>
<!-- 57&#45;&gt;52 -->
<g id="edge81" class="edge">
<title>57&#45;&gt;52</title>
<path fill="none" stroke="grey" stroke-width="2" d="M2632.28,-585.69C2633.57,-577.91 2635.07,-568.84 2636.46,-560.45"/>
<polygon fill="grey" stroke="grey" stroke-width="2" points="2639.95,-560.76 2638.13,-550.32 2633.05,-559.61 2639.95,-560.76"/>
</g>
<!-- 58&#45;&gt;53 -->
<g id="edge84" class="edge">
<title>58&#45;&gt;53</title>
<path fill="none" stroke="grey" stroke-width="2" d="M380.78,-662.82C373.92,-654.53 365.52,-644.38 357.79,-635.04"/>
<polygon fill="grey" stroke="grey" stroke-width="2" points="360.31,-632.59 351.24,-627.12 354.92,-637.06 360.31,-632.59"/>
</g>
<!-- 59&#45;&gt;54 -->
<g id="edge87" class="edge">
<title>59&#45;&gt;54</title>
<path fill="none" stroke="grey" stroke-width="2" d="M997.78,-662.82C990.92,-654.53 982.52,-644.38 974.79,-635.04"/>
<polygon fill="grey" stroke="grey" stroke-width="2" points="977.31,-632.59 968.24,-627.12 971.92,-637.06 977.31,-632.59"/>
</g>
<!-- 60&#45;&gt;55 -->
<g id="edge90" class="edge">
<title>60&#45;&gt;55</title>
<path fill="none" stroke="grey" stroke-width="2" d="M1448.49,-662.82C1441.97,-654.53 1433.99,-644.38 1426.65,-635.04"/>
<polygon fill="grey" stroke="grey" stroke-width="2" points="1429.36,-632.82 1420.43,-627.12 1423.85,-637.14 1429.36,-632.82"/>
</g>
<!-- 61&#45;&gt;56 -->
<g id="edge93" class="edge">
<title>61&#45;&gt;56</title>
<path fill="none" stroke="grey" stroke-width="2" d="M2050.62,-662.82C2045.25,-654.7 2038.69,-644.79 2032.61,-635.61"/>
<polygon fill="grey" stroke="grey" stroke-width="2" points="2035.43,-633.53 2026.99,-627.12 2029.59,-637.39 2035.43,-633.53"/>
</g>
<!-- 62&#45;&gt;57 -->
<g id="edge96" class="edge">
<title>62&#45;&gt;57</title>
<path fill="none" stroke="grey" stroke-width="2" d="M2666.39,-662.82C2660.9,-654.7 2654.2,-644.79 2648,-635.61"/>
<polygon fill="grey" stroke="grey" stroke-width="2" points="2650.76,-633.44 2642.26,-627.12 2644.96,-637.36 2650.76,-633.44"/>
</g>
</g>
</svg>
