<?xml version="1.0" encoding="UTF-8" standalone="no"?>
<!DOCTYPE svg PUBLIC "-//W3C//DTD SVG 1.1//EN"
 "http://www.w3.org/Graphics/SVG/1.1/DTD/svg11.dtd">
<!-- Generated by graphviz version 2.43.0 (0)
 -->
<!-- Title: snakemake_dag Pages: 1 -->
<svg width="4344pt" height="319pt"
 viewBox="0.00 0.00 4344.00 319.00" xmlns="http://www.w3.org/2000/svg" xmlns:xlink="http://www.w3.org/1999/xlink">
<g id="graph0" class="graph" transform="scale(1 1) rotate(0) translate(4 315)">
<title>snakemake_dag</title>
<polygon fill="white" stroke="transparent" points="-4,4 -4,-315 4340,-315 4340,4 -4,4"/>
<!-- 0 -->
<g id="node1" class="node">
<title>0</title>
<path fill="none" stroke="#afd856" stroke-width="2" d="M2377,-36C2377,-36 2347,-36 2347,-36 2341,-36 2335,-30 2335,-24 2335,-24 2335,-12 2335,-12 2335,-6 2341,0 2347,0 2347,0 2377,0 2377,0 2383,0 2389,-6 2389,-12 2389,-12 2389,-24 2389,-24 2389,-30 2383,-36 2377,-36"/>
<text text-anchor="middle" x="2362" y="-15.5" font-family="sans" font-size="10.00">all</text>
</g>
<!-- 1 -->
<g id="node2" class="node">
<title>1</title>
<path fill="none" stroke="#56d873" stroke-width="2" d="M80,-113C80,-113 12,-113 12,-113 6,-113 0,-107 0,-101 0,-101 0,-84 0,-84 0,-78 6,-72 12,-72 12,-72 80,-72 80,-72 86,-72 92,-78 92,-84 92,-84 92,-101 92,-101 92,-107 86,-113 80,-113"/>
<text text-anchor="middle" x="46" y="-101" font-family="sans" font-size="10.00">geomap</text>
<text text-anchor="middle" x="46" y="-90" font-family="sans" font-size="10.00">date: 20200425</text>
<text text-anchor="middle" x="46" y="-79" font-family="sans" font-size="10.00">loc: country</text>
</g>
<!-- 1&#45;&gt;0 -->
<g id="edge1" class="edge">
<title>1&#45;&gt;0</title>
<path fill="none" stroke="grey" stroke-width="2" d="M92.23,-73.95C95.17,-73.19 98.11,-72.53 101,-72 328.21,-30.17 2048.69,-20.46 2324.69,-19.16"/>
<polygon fill="grey" stroke="grey" stroke-width="2" points="2324.99,-22.66 2334.98,-19.11 2324.96,-15.66 2324.99,-22.66"/>
</g>
<!-- 2 -->
<g id="node3" class="node">
<title>2</title>
<path fill="none" stroke="#56c9d8" stroke-width="2" d="M168,-110.5C168,-110.5 122,-110.5 122,-110.5 116,-110.5 110,-104.5 110,-98.5 110,-98.5 110,-86.5 110,-86.5 110,-80.5 116,-74.5 122,-74.5 122,-74.5 168,-74.5 168,-74.5 174,-74.5 180,-80.5 180,-86.5 180,-86.5 180,-98.5 180,-98.5 180,-104.5 174,-110.5 168,-110.5"/>
<text text-anchor="middle" x="145" y="-90" font-family="sans" font-size="10.00">pastml_vis</text>
</g>
<!-- 2&#45;&gt;0 -->
<g id="edge2" class="edge">
<title>2&#45;&gt;0</title>
<path fill="none" stroke="grey" stroke-width="2" d="M180.13,-74.51C183.09,-73.52 186.07,-72.66 189,-72 405.31,-23.45 2055.4,-19.37 2324.85,-19.03"/>
<polygon fill="grey" stroke="grey" stroke-width="2" points="2324.91,-22.53 2334.9,-19.02 2324.9,-15.53 2324.91,-22.53"/>
</g>
<!-- 3 -->
<g id="node4" class="node">
<title>3</title>
<path fill="none" stroke="#56c9d8" stroke-width="2" d="M611,-110.5C611,-110.5 565,-110.5 565,-110.5 559,-110.5 553,-104.5 553,-98.5 553,-98.5 553,-86.5 553,-86.5 553,-80.5 559,-74.5 565,-74.5 565,-74.5 611,-74.5 611,-74.5 617,-74.5 623,-80.5 623,-86.5 623,-86.5 623,-98.5 623,-98.5 623,-104.5 617,-110.5 611,-110.5"/>
<text text-anchor="middle" x="588" y="-90" font-family="sans" font-size="10.00">pastml_vis</text>
</g>
<!-- 3&#45;&gt;0 -->
<g id="edge3" class="edge">
<title>3&#45;&gt;0</title>
<path fill="none" stroke="grey" stroke-width="2" d="M623.14,-74.53C626.09,-73.53 629.07,-72.67 632,-72 802.16,-33.25 2088.06,-21.18 2324.65,-19.28"/>
<polygon fill="grey" stroke="grey" stroke-width="2" points="2324.84,-22.78 2334.81,-19.2 2324.78,-15.78 2324.84,-22.78"/>
</g>
<!-- 4 -->
<g id="node5" class="node">
<title>4</title>
<path fill="none" stroke="#d88d56" stroke-width="2" d="M281.5,-110.5C281.5,-110.5 210.5,-110.5 210.5,-110.5 204.5,-110.5 198.5,-104.5 198.5,-98.5 198.5,-98.5 198.5,-86.5 198.5,-86.5 198.5,-80.5 204.5,-74.5 210.5,-74.5 210.5,-74.5 281.5,-74.5 281.5,-74.5 287.5,-74.5 293.5,-80.5 293.5,-86.5 293.5,-86.5 293.5,-98.5 293.5,-98.5 293.5,-104.5 287.5,-110.5 281.5,-110.5"/>
<text text-anchor="middle" x="246" y="-90" font-family="sans" font-size="10.00">pastml_vis_tree</text>
</g>
<!-- 4&#45;&gt;0 -->
<g id="edge4" class="edge">
<title>4&#45;&gt;0</title>
<path fill="none" stroke="grey" stroke-width="2" d="M291.22,-74.44C294.83,-73.48 298.46,-72.65 302,-72 508.22,-34.39 2063.53,-21.22 2324.8,-19.27"/>
<polygon fill="grey" stroke="grey" stroke-width="2" points="2324.94,-22.76 2334.92,-19.19 2324.89,-15.76 2324.94,-22.76"/>
</g>
<!-- 5 -->
<g id="node6" class="node">
<title>5</title>
<path fill="none" stroke="#56c9d8" stroke-width="2" d="M699,-110.5C699,-110.5 653,-110.5 653,-110.5 647,-110.5 641,-104.5 641,-98.5 641,-98.5 641,-86.5 641,-86.5 641,-80.5 647,-74.5 653,-74.5 653,-74.5 699,-74.5 699,-74.5 705,-74.5 711,-80.5 711,-86.5 711,-86.5 711,-98.5 711,-98.5 711,-104.5 705,-110.5 699,-110.5"/>
<text text-anchor="middle" x="676" y="-90" font-family="sans" font-size="10.00">pastml_vis</text>
</g>
<!-- 5&#45;&gt;0 -->
<g id="edge5" class="edge">
<title>5&#45;&gt;0</title>
<path fill="none" stroke="grey" stroke-width="2" d="M711.14,-74.53C714.09,-73.54 717.07,-72.67 720,-72 881.06,-35.19 2095.62,-21.6 2324.77,-19.35"/>
<polygon fill="grey" stroke="grey" stroke-width="2" points="2324.96,-22.85 2334.93,-19.25 2324.9,-15.85 2324.96,-22.85"/>
</g>
<!-- 6 -->
<g id="node7" class="node">
<title>6</title>
<path fill="none" stroke="#d88d56" stroke-width="2" d="M812.5,-110.5C812.5,-110.5 741.5,-110.5 741.5,-110.5 735.5,-110.5 729.5,-104.5 729.5,-98.5 729.5,-98.5 729.5,-86.5 729.5,-86.5 729.5,-80.5 735.5,-74.5 741.5,-74.5 741.5,-74.5 812.5,-74.5 812.5,-74.5 818.5,-74.5 824.5,-80.5 824.5,-86.5 824.5,-86.5 824.5,-98.5 824.5,-98.5 824.5,-104.5 818.5,-110.5 812.5,-110.5"/>
<text text-anchor="middle" x="777" y="-90" font-family="sans" font-size="10.00">pastml_vis_tree</text>
</g>
<!-- 6&#45;&gt;0 -->
<g id="edge6" class="edge">
<title>6&#45;&gt;0</title>
<path fill="none" stroke="grey" stroke-width="2" d="M822.23,-74.47C825.84,-73.51 829.46,-72.66 833,-72 1131.98,-16.09 2119.78,-17.8 2324.61,-18.78"/>
<polygon fill="grey" stroke="grey" stroke-width="2" points="2324.83,-22.28 2334.85,-18.83 2324.86,-15.28 2324.83,-22.28"/>
</g>
<!-- 7 -->
<g id="node8" class="node">
<title>7</title>
<path fill="none" stroke="#56c9d8" stroke-width="2" d="M1142,-110.5C1142,-110.5 1096,-110.5 1096,-110.5 1090,-110.5 1084,-104.5 1084,-98.5 1084,-98.5 1084,-86.5 1084,-86.5 1084,-80.5 1090,-74.5 1096,-74.5 1096,-74.5 1142,-74.5 1142,-74.5 1148,-74.5 1154,-80.5 1154,-86.5 1154,-86.5 1154,-98.5 1154,-98.5 1154,-104.5 1148,-110.5 1142,-110.5"/>
<text text-anchor="middle" x="1119" y="-90" font-family="sans" font-size="10.00">pastml_vis</text>
</g>
<!-- 7&#45;&gt;0 -->
<g id="edge7" class="edge">
<title>7&#45;&gt;0</title>
<path fill="none" stroke="grey" stroke-width="2" d="M1154.15,-74.57C1157.1,-73.57 1160.07,-72.69 1163,-72 1391.72,-18.28 2147.94,-18.08 2324.78,-18.79"/>
<polygon fill="grey" stroke="grey" stroke-width="2" points="2324.87,-22.29 2334.88,-18.83 2324.9,-15.29 2324.87,-22.29"/>
</g>
<!-- 8 -->
<g id="node9" class="node">
<title>8</title>
<path fill="none" stroke="#d88d56" stroke-width="2" d="M1255.5,-110.5C1255.5,-110.5 1184.5,-110.5 1184.5,-110.5 1178.5,-110.5 1172.5,-104.5 1172.5,-98.5 1172.5,-98.5 1172.5,-86.5 1172.5,-86.5 1172.5,-80.5 1178.5,-74.5 1184.5,-74.5 1184.5,-74.5 1255.5,-74.5 1255.5,-74.5 1261.5,-74.5 1267.5,-80.5 1267.5,-86.5 1267.5,-86.5 1267.5,-98.5 1267.5,-98.5 1267.5,-104.5 1261.5,-110.5 1255.5,-110.5"/>
<text text-anchor="middle" x="1220" y="-90" font-family="sans" font-size="10.00">pastml_vis_tree</text>
</g>
<!-- 8&#45;&gt;0 -->
<g id="edge8" class="edge">
<title>8&#45;&gt;0</title>
<path fill="none" stroke="grey" stroke-width="2" d="M1265.55,-74.45C1269.05,-73.5 1272.56,-72.67 1276,-72 1483.38,-31.7 2158.36,-21.36 2324.7,-19.39"/>
<polygon fill="grey" stroke="grey" stroke-width="2" points="2324.95,-22.89 2334.91,-19.27 2324.87,-15.89 2324.95,-22.89"/>
</g>
<!-- 9 -->
<g id="node10" class="node">
<title>9</title>
<path fill="none" stroke="#56c9d8" stroke-width="2" d="M2044,-110.5C2044,-110.5 1998,-110.5 1998,-110.5 1992,-110.5 1986,-104.5 1986,-98.5 1986,-98.5 1986,-86.5 1986,-86.5 1986,-80.5 1992,-74.5 1998,-74.5 1998,-74.5 2044,-74.5 2044,-74.5 2050,-74.5 2056,-80.5 2056,-86.5 2056,-86.5 2056,-98.5 2056,-98.5 2056,-104.5 2050,-110.5 2044,-110.5"/>
<text text-anchor="middle" x="2021" y="-90" font-family="sans" font-size="10.00">pastml_vis</text>
</g>
<!-- 9&#45;&gt;0 -->
<g id="edge9" class="edge">
<title>9&#45;&gt;0</title>
<path fill="none" stroke="grey" stroke-width="2" d="M2056.26,-75C2059.19,-73.9 2062.12,-72.88 2065,-72 2156.24,-44.09 2268.01,-29.06 2324.9,-22.72"/>
<polygon fill="grey" stroke="grey" stroke-width="2" points="2325.3,-26.19 2334.87,-21.63 2324.55,-19.24 2325.3,-26.19"/>
</g>
<!-- 10 -->
<g id="node11" class="node">
<title>10</title>
<path fill="none" stroke="#d88d56" stroke-width="2" d="M1955.5,-110.5C1955.5,-110.5 1884.5,-110.5 1884.5,-110.5 1878.5,-110.5 1872.5,-104.5 1872.5,-98.5 1872.5,-98.5 1872.5,-86.5 1872.5,-86.5 1872.5,-80.5 1878.5,-74.5 1884.5,-74.5 1884.5,-74.5 1955.5,-74.5 1955.5,-74.5 1961.5,-74.5 1967.5,-80.5 1967.5,-86.5 1967.5,-86.5 1967.5,-98.5 1967.5,-98.5 1967.5,-104.5 1961.5,-110.5 1955.5,-110.5"/>
<text text-anchor="middle" x="1920" y="-90" font-family="sans" font-size="10.00">pastml_vis_tree</text>
</g>
<!-- 10&#45;&gt;0 -->
<g id="edge10" class="edge">
<title>10&#45;&gt;0</title>
<path fill="none" stroke="grey" stroke-width="2" d="M1967.7,-74.44C1970.83,-73.55 1973.95,-72.73 1977,-72 2102.5,-42.19 2255.28,-27.34 2324.59,-21.74"/>
<polygon fill="grey" stroke="grey" stroke-width="2" points="2324.9,-25.23 2334.59,-20.95 2324.35,-18.25 2324.9,-25.23"/>
</g>
<!-- 11 -->
<g id="node12" class="node">
<title>11</title>
<path fill="none" stroke="#56c9d8" stroke-width="2" d="M2132,-110.5C2132,-110.5 2086,-110.5 2086,-110.5 2080,-110.5 2074,-104.5 2074,-98.5 2074,-98.5 2074,-86.5 2074,-86.5 2074,-80.5 2080,-74.5 2086,-74.5 2086,-74.5 2132,-74.5 2132,-74.5 2138,-74.5 2144,-80.5 2144,-86.5 2144,-86.5 2144,-98.5 2144,-98.5 2144,-104.5 2138,-110.5 2132,-110.5"/>
<text text-anchor="middle" x="2109" y="-90" font-family="sans" font-size="10.00">pastml_vis</text>
</g>
<!-- 11&#45;&gt;0 -->
<g id="edge11" class="edge">
<title>11&#45;&gt;0</title>
<path fill="none" stroke="grey" stroke-width="2" d="M2144.34,-75.23C2147.24,-74.07 2150.16,-72.98 2153,-72 2212,-51.61 2282.81,-35.3 2325.02,-26.4"/>
<polygon fill="grey" stroke="grey" stroke-width="2" points="2325.77,-29.82 2334.85,-24.35 2324.35,-22.96 2325.77,-29.82"/>
</g>
<!-- 12 -->
<g id="node13" class="node">
<title>12</title>
<path fill="none" stroke="#d88d56" stroke-width="2" d="M2486.5,-110.5C2486.5,-110.5 2415.5,-110.5 2415.5,-110.5 2409.5,-110.5 2403.5,-104.5 2403.5,-98.5 2403.5,-98.5 2403.5,-86.5 2403.5,-86.5 2403.5,-80.5 2409.5,-74.5 2415.5,-74.5 2415.5,-74.5 2486.5,-74.5 2486.5,-74.5 2492.5,-74.5 2498.5,-80.5 2498.5,-86.5 2498.5,-86.5 2498.5,-98.5 2498.5,-98.5 2498.5,-104.5 2492.5,-110.5 2486.5,-110.5"/>
<text text-anchor="middle" x="2451" y="-90" font-family="sans" font-size="10.00">pastml_vis_tree</text>
</g>
<!-- 12&#45;&gt;0 -->
<g id="edge12" class="edge">
<title>12&#45;&gt;0</title>
<path fill="none" stroke="grey" stroke-width="2" d="M2429.91,-74.32C2418.27,-64.84 2403.65,-52.93 2390.95,-42.58"/>
<polygon fill="grey" stroke="grey" stroke-width="2" points="2392.9,-39.66 2382.94,-36.06 2388.48,-45.09 2392.9,-39.66"/>
</g>
<!-- 13 -->
<g id="node14" class="node">
<title>13</title>
<path fill="none" stroke="#56d8a9" stroke-width="2" d="M1360.5,-110.5C1360.5,-110.5 1297.5,-110.5 1297.5,-110.5 1291.5,-110.5 1285.5,-104.5 1285.5,-98.5 1285.5,-98.5 1285.5,-86.5 1285.5,-86.5 1285.5,-80.5 1291.5,-74.5 1297.5,-74.5 1297.5,-74.5 1360.5,-74.5 1360.5,-74.5 1366.5,-74.5 1372.5,-80.5 1372.5,-86.5 1372.5,-86.5 1372.5,-98.5 1372.5,-98.5 1372.5,-104.5 1366.5,-110.5 1360.5,-110.5"/>
<text text-anchor="middle" x="1329" y="-90" font-family="sans" font-size="10.00">consensus_vis</text>
</g>
<!-- 13&#45;&gt;0 -->
<g id="edge13" class="edge">
<title>13&#45;&gt;0</title>
<path fill="none" stroke="grey" stroke-width="2" d="M1371.25,-74.46C1374.52,-73.51 1377.79,-72.67 1381,-72 1566.43,-33.18 2168.74,-21.82 2324.8,-19.5"/>
<polygon fill="grey" stroke="grey" stroke-width="2" points="2324.89,-23 2334.84,-19.35 2324.79,-16 2324.89,-23"/>
</g>
<!-- 14 -->
<g id="node15" class="node">
<title>14</title>
<path fill="none" stroke="#56c9d8" stroke-width="2" d="M1976,-198.5C1976,-198.5 1930,-198.5 1930,-198.5 1924,-198.5 1918,-192.5 1918,-186.5 1918,-186.5 1918,-174.5 1918,-174.5 1918,-168.5 1924,-162.5 1930,-162.5 1930,-162.5 1976,-162.5 1976,-162.5 1982,-162.5 1988,-168.5 1988,-174.5 1988,-174.5 1988,-186.5 1988,-186.5 1988,-192.5 1982,-198.5 1976,-198.5"/>
<text text-anchor="middle" x="1953" y="-178" font-family="sans" font-size="10.00">pastml_vis</text>
</g>
<!-- 14&#45;&gt;0 -->
<g id="edge14" class="edge">
<title>14&#45;&gt;0</title>
<path fill="none" stroke="grey" stroke-width="2" d="M1972.77,-162.42C1979.94,-157.18 1988.4,-152 1997,-149 2054.19,-129.02 2499.6,-157.23 2541,-113 2553.45,-99.7 2551.9,-86.6 2541,-72 2524.02,-49.26 2446.48,-32.83 2399.2,-24.72"/>
<polygon fill="grey" stroke="grey" stroke-width="2" points="2399.76,-21.26 2389.32,-23.07 2398.61,-28.16 2399.76,-21.26"/>
</g>
<!-- 15 -->
<g id="node16" class="node">
<title>15</title>
<path fill="none" stroke="#d88d56" stroke-width="2" d="M1887.5,-198.5C1887.5,-198.5 1816.5,-198.5 1816.5,-198.5 1810.5,-198.5 1804.5,-192.5 1804.5,-186.5 1804.5,-186.5 1804.5,-174.5 1804.5,-174.5 1804.5,-168.5 1810.5,-162.5 1816.5,-162.5 1816.5,-162.5 1887.5,-162.5 1887.5,-162.5 1893.5,-162.5 1899.5,-168.5 1899.5,-174.5 1899.5,-174.5 1899.5,-186.5 1899.5,-186.5 1899.5,-192.5 1893.5,-198.5 1887.5,-198.5"/>
<text text-anchor="middle" x="1852" y="-178" font-family="sans" font-size="10.00">pastml_vis_tree</text>
</g>
<!-- 15&#45;&gt;0 -->
<g id="edge15" class="edge">
<title>15&#45;&gt;0</title>
<path fill="none" stroke="grey" stroke-width="2" d="M1878.24,-162.41C1887.58,-157.17 1898.42,-151.99 1909,-149 1973.05,-130.88 2461.37,-161.46 2507,-113 2519.49,-99.73 2517.44,-86.93 2507,-72 2482.85,-37.46 2433.67,-25.36 2399.31,-21.16"/>
<polygon fill="grey" stroke="grey" stroke-width="2" points="2399.48,-17.66 2389.17,-20.09 2398.75,-24.62 2399.48,-17.66"/>
</g>
<!-- 16 -->
<g id="node17" class="node">
<title>16</title>
<path fill="none" stroke="#56c9d8" stroke-width="2" d="M2702,-198.5C2702,-198.5 2656,-198.5 2656,-198.5 2650,-198.5 2644,-192.5 2644,-186.5 2644,-186.5 2644,-174.5 2644,-174.5 2644,-168.5 2650,-162.5 2656,-162.5 2656,-162.5 2702,-162.5 2702,-162.5 2708,-162.5 2714,-168.5 2714,-174.5 2714,-174.5 2714,-186.5 2714,-186.5 2714,-192.5 2708,-198.5 2702,-198.5"/>
<text text-anchor="middle" x="2679" y="-178" font-family="sans" font-size="10.00">pastml_vis</text>
</g>
<!-- 16&#45;&gt;0 -->
<g id="edge16" class="edge">
<title>16&#45;&gt;0</title>
<path fill="none" stroke="grey" stroke-width="2" d="M2680.33,-162.19C2681.14,-138.3 2678.7,-95.52 2654,-72 2617.89,-37.61 2469.45,-24.93 2399.19,-20.78"/>
<polygon fill="grey" stroke="grey" stroke-width="2" points="2399.2,-17.28 2389.01,-20.21 2398.8,-24.27 2399.2,-17.28"/>
</g>
<!-- 17 -->
<g id="node18" class="node">
<title>17</title>
<path fill="none" stroke="#d88d56" stroke-width="2" d="M2613.5,-198.5C2613.5,-198.5 2542.5,-198.5 2542.5,-198.5 2536.5,-198.5 2530.5,-192.5 2530.5,-186.5 2530.5,-186.5 2530.5,-174.5 2530.5,-174.5 2530.5,-168.5 2536.5,-162.5 2542.5,-162.5 2542.5,-162.5 2613.5,-162.5 2613.5,-162.5 2619.5,-162.5 2625.5,-168.5 2625.5,-174.5 2625.5,-174.5 2625.5,-186.5 2625.5,-186.5 2625.5,-192.5 2619.5,-198.5 2613.5,-198.5"/>
<text text-anchor="middle" x="2578" y="-178" font-family="sans" font-size="10.00">pastml_vis_tree</text>
</g>
<!-- 17&#45;&gt;0 -->
<g id="edge17" class="edge">
<title>17&#45;&gt;0</title>
<path fill="none" stroke="grey" stroke-width="2" d="M2599.27,-162.24C2624.25,-139.9 2659.48,-100.46 2636,-72 2606.44,-36.17 2467.45,-24.28 2399.54,-20.57"/>
<polygon fill="grey" stroke="grey" stroke-width="2" points="2399.44,-17.06 2389.27,-20.04 2399.08,-24.05 2399.44,-17.06"/>
</g>
<!-- 18 -->
<g id="node19" class="node">
<title>18</title>
<path fill="none" stroke="#56c9d8" stroke-width="2" d="M3396,-198.5C3396,-198.5 3350,-198.5 3350,-198.5 3344,-198.5 3338,-192.5 3338,-186.5 3338,-186.5 3338,-174.5 3338,-174.5 3338,-168.5 3344,-162.5 3350,-162.5 3350,-162.5 3396,-162.5 3396,-162.5 3402,-162.5 3408,-168.5 3408,-174.5 3408,-174.5 3408,-186.5 3408,-186.5 3408,-192.5 3402,-198.5 3396,-198.5"/>
<text text-anchor="middle" x="3373" y="-178" font-family="sans" font-size="10.00">pastml_vis</text>
</g>
<!-- 18&#45;&gt;0 -->
<g id="edge18" class="edge">
<title>18&#45;&gt;0</title>
<path fill="none" stroke="grey" stroke-width="2" d="M3355.03,-162.22C3327.63,-137.09 3272.56,-91.38 3216,-72 3061.59,-19.1 2543,-17.97 2399.23,-18.71"/>
<polygon fill="grey" stroke="grey" stroke-width="2" points="2399.13,-15.21 2389.15,-18.76 2399.17,-22.21 2399.13,-15.21"/>
</g>
<!-- 19 -->
<g id="node20" class="node">
<title>19</title>
<path fill="none" stroke="#d88d56" stroke-width="2" d="M3077.5,-198.5C3077.5,-198.5 3006.5,-198.5 3006.5,-198.5 3000.5,-198.5 2994.5,-192.5 2994.5,-186.5 2994.5,-186.5 2994.5,-174.5 2994.5,-174.5 2994.5,-168.5 3000.5,-162.5 3006.5,-162.5 3006.5,-162.5 3077.5,-162.5 3077.5,-162.5 3083.5,-162.5 3089.5,-168.5 3089.5,-174.5 3089.5,-174.5 3089.5,-186.5 3089.5,-186.5 3089.5,-192.5 3083.5,-198.5 3077.5,-198.5"/>
<text text-anchor="middle" x="3042" y="-178" font-family="sans" font-size="10.00">pastml_vis_tree</text>
</g>
<!-- 19&#45;&gt;0 -->
<g id="edge19" class="edge">
<title>19&#45;&gt;0</title>
<path fill="none" stroke="grey" stroke-width="2" d="M3012.65,-162.4C3003.92,-157.7 2994.22,-152.84 2985,-149 2877.28,-104.15 2847.88,-97.42 2734,-72 2613.13,-45.02 2466.95,-28.91 2399.47,-22.38"/>
<polygon fill="grey" stroke="grey" stroke-width="2" points="2399.62,-18.88 2389.33,-21.42 2398.96,-25.85 2399.62,-18.88"/>
</g>
<!-- 20 -->
<g id="node21" class="node">
<title>20</title>
<path fill="none" stroke="#56c9d8" stroke-width="2" d="M3860,-198.5C3860,-198.5 3814,-198.5 3814,-198.5 3808,-198.5 3802,-192.5 3802,-186.5 3802,-186.5 3802,-174.5 3802,-174.5 3802,-168.5 3808,-162.5 3814,-162.5 3814,-162.5 3860,-162.5 3860,-162.5 3866,-162.5 3872,-168.5 3872,-174.5 3872,-174.5 3872,-186.5 3872,-186.5 3872,-192.5 3866,-198.5 3860,-198.5"/>
<text text-anchor="middle" x="3837" y="-178" font-family="sans" font-size="10.00">pastml_vis</text>
</g>
<!-- 20&#45;&gt;0 -->
<g id="edge20" class="edge">
<title>20&#45;&gt;0</title>
<path fill="none" stroke="grey" stroke-width="2" d="M3816.09,-162.45C3809.1,-157.47 3801.03,-152.44 3793,-149 3636.99,-82.2 3587.35,-93.42 3419,-72 3022.37,-21.53 2536.3,-18.57 2399.43,-18.81"/>
<polygon fill="grey" stroke="grey" stroke-width="2" points="2399.08,-15.31 2389.09,-18.84 2399.09,-22.31 2399.08,-15.31"/>
</g>
<!-- 21 -->
<g id="node22" class="node">
<title>21</title>
<path fill="none" stroke="#d88d56" stroke-width="2" d="M3509.5,-198.5C3509.5,-198.5 3438.5,-198.5 3438.5,-198.5 3432.5,-198.5 3426.5,-192.5 3426.5,-186.5 3426.5,-186.5 3426.5,-174.5 3426.5,-174.5 3426.5,-168.5 3432.5,-162.5 3438.5,-162.5 3438.5,-162.5 3509.5,-162.5 3509.5,-162.5 3515.5,-162.5 3521.5,-168.5 3521.5,-174.5 3521.5,-174.5 3521.5,-186.5 3521.5,-186.5 3521.5,-192.5 3515.5,-198.5 3509.5,-198.5"/>
<text text-anchor="middle" x="3474" y="-178" font-family="sans" font-size="10.00">pastml_vis_tree</text>
</g>
<!-- 21&#45;&gt;0 -->
<g id="edge21" class="edge">
<title>21&#45;&gt;0</title>
<path fill="none" stroke="grey" stroke-width="2" d="M3449.63,-162.4C3412.32,-137.3 3337.91,-91.35 3267,-72 3099.45,-26.28 2548.15,-20 2399.31,-19.14"/>
<polygon fill="grey" stroke="grey" stroke-width="2" points="2399.32,-15.64 2389.3,-19.08 2399.28,-22.64 2399.32,-15.64"/>
</g>
<!-- 22 -->
<g id="node23" class="node">
<title>22</title>
<path fill="none" stroke="#56c9d8" stroke-width="2" d="M3948,-198.5C3948,-198.5 3902,-198.5 3902,-198.5 3896,-198.5 3890,-192.5 3890,-186.5 3890,-186.5 3890,-174.5 3890,-174.5 3890,-168.5 3896,-162.5 3902,-162.5 3902,-162.5 3948,-162.5 3948,-162.5 3954,-162.5 3960,-168.5 3960,-174.5 3960,-174.5 3960,-186.5 3960,-186.5 3960,-192.5 3954,-198.5 3948,-198.5"/>
<text text-anchor="middle" x="3925" y="-178" font-family="sans" font-size="10.00">pastml_vis</text>
</g>
<!-- 22&#45;&gt;0 -->
<g id="edge22" class="edge">
<title>22&#45;&gt;0</title>
<path fill="none" stroke="grey" stroke-width="2" d="M3903.55,-162.33C3896.66,-157.46 3888.79,-152.53 3881,-149 3752.07,-90.62 3712.07,-92.31 3572,-72 3337.35,-37.98 2577.12,-22.77 2399.4,-19.63"/>
<polygon fill="grey" stroke="grey" stroke-width="2" points="2399.31,-16.13 2389.25,-19.45 2399.18,-23.13 2399.31,-16.13"/>
</g>
<!-- 23 -->
<g id="node24" class="node">
<title>23</title>
<path fill="none" stroke="#d88d56" stroke-width="2" d="M4061.5,-198.5C4061.5,-198.5 3990.5,-198.5 3990.5,-198.5 3984.5,-198.5 3978.5,-192.5 3978.5,-186.5 3978.5,-186.5 3978.5,-174.5 3978.5,-174.5 3978.5,-168.5 3984.5,-162.5 3990.5,-162.5 3990.5,-162.5 4061.5,-162.5 4061.5,-162.5 4067.5,-162.5 4073.5,-168.5 4073.5,-174.5 4073.5,-174.5 4073.5,-186.5 4073.5,-186.5 4073.5,-192.5 4067.5,-198.5 4061.5,-198.5"/>
<text text-anchor="middle" x="4026" y="-178" font-family="sans" font-size="10.00">pastml_vis_tree</text>
</g>
<!-- 23&#45;&gt;0 -->
<g id="edge23" class="edge">
<title>23&#45;&gt;0</title>
<path fill="none" stroke="grey" stroke-width="2" d="M3997,-162.42C3988.2,-157.66 3978.37,-152.77 3969,-149 3851.65,-101.77 3819.94,-91.76 3695,-72 3435.25,-30.92 2587.39,-21.02 2399.22,-19.3"/>
<polygon fill="grey" stroke="grey" stroke-width="2" points="2399.05,-15.8 2389.01,-19.21 2398.98,-22.8 2399.05,-15.8"/>
</g>
<!-- 24 -->
<g id="node25" class="node">
<title>24</title>
<path fill="none" stroke="#56d8a9" stroke-width="2" d="M3195.5,-110.5C3195.5,-110.5 3132.5,-110.5 3132.5,-110.5 3126.5,-110.5 3120.5,-104.5 3120.5,-98.5 3120.5,-98.5 3120.5,-86.5 3120.5,-86.5 3120.5,-80.5 3126.5,-74.5 3132.5,-74.5 3132.5,-74.5 3195.5,-74.5 3195.5,-74.5 3201.5,-74.5 3207.5,-80.5 3207.5,-86.5 3207.5,-86.5 3207.5,-98.5 3207.5,-98.5 3207.5,-104.5 3201.5,-110.5 3195.5,-110.5"/>
<text text-anchor="middle" x="3164" y="-90" font-family="sans" font-size="10.00">consensus_vis</text>
</g>
<!-- 24&#45;&gt;0 -->
<g id="edge24" class="edge">
<title>24&#45;&gt;0</title>
<path fill="none" stroke="grey" stroke-width="2" d="M3120.39,-86.6C3083.33,-82.49 3028.71,-76.58 2981,-72 2760.58,-50.82 2495.59,-29.53 2399.28,-21.92"/>
<polygon fill="grey" stroke="grey" stroke-width="2" points="2399.41,-18.42 2389.17,-21.12 2398.86,-25.4 2399.41,-18.42"/>
</g>
<!-- 25 -->
<g id="node26" class="node">
<title>25</title>
<path fill="none" stroke="#5692d8" stroke-width="2" d="M522.5,-110.5C522.5,-110.5 323.5,-110.5 323.5,-110.5 317.5,-110.5 311.5,-104.5 311.5,-98.5 311.5,-98.5 311.5,-86.5 311.5,-86.5 311.5,-80.5 317.5,-74.5 323.5,-74.5 323.5,-74.5 522.5,-74.5 522.5,-74.5 528.5,-74.5 534.5,-80.5 534.5,-86.5 534.5,-86.5 534.5,-98.5 534.5,-98.5 534.5,-104.5 528.5,-110.5 522.5,-110.5"/>
<text text-anchor="middle" x="423" y="-95.5" font-family="sans" font-size="10.00">pastml_itol</text>
<text text-anchor="middle" x="423" y="-84.5" font-family="sans" font-size="10.00">tree: raxfast_subsampled_genomic_0.lsd2</text>
</g>
<!-- 25&#45;&gt;0 -->
<g id="edge25" class="edge">
<title>25&#45;&gt;0</title>
<path fill="none" stroke="grey" stroke-width="2" d="M521.92,-74.48C529.37,-73.53 536.8,-72.68 544,-72 907.59,-37.55 2098.55,-22.08 2324.73,-19.42"/>
<polygon fill="grey" stroke="grey" stroke-width="2" points="2324.8,-22.92 2334.76,-19.3 2324.72,-15.92 2324.8,-22.92"/>
</g>
<!-- 26 -->
<g id="node27" class="node">
<title>26</title>
<path fill="none" stroke="#5692d8" stroke-width="2" d="M1053.5,-110.5C1053.5,-110.5 854.5,-110.5 854.5,-110.5 848.5,-110.5 842.5,-104.5 842.5,-98.5 842.5,-98.5 842.5,-86.5 842.5,-86.5 842.5,-80.5 848.5,-74.5 854.5,-74.5 854.5,-74.5 1053.5,-74.5 1053.5,-74.5 1059.5,-74.5 1065.5,-80.5 1065.5,-86.5 1065.5,-86.5 1065.5,-98.5 1065.5,-98.5 1065.5,-104.5 1059.5,-110.5 1053.5,-110.5"/>
<text text-anchor="middle" x="954" y="-95.5" font-family="sans" font-size="10.00">pastml_itol</text>
<text text-anchor="middle" x="954" y="-84.5" font-family="sans" font-size="10.00">tree: raxfast_subsampled_genomic_1.lsd2</text>
</g>
<!-- 26&#45;&gt;0 -->
<g id="edge26" class="edge">
<title>26&#45;&gt;0</title>
<path fill="none" stroke="grey" stroke-width="2" d="M1053.58,-74.49C1060.82,-73.55 1068.01,-72.7 1075,-72 1567.15,-22.39 2169.64,-18.94 2324.38,-18.92"/>
<polygon fill="grey" stroke="grey" stroke-width="2" points="2324.74,-22.42 2334.74,-18.93 2324.75,-15.42 2324.74,-22.42"/>
</g>
<!-- 27 -->
<g id="node28" class="node">
<title>27</title>
<path fill="none" stroke="#5692d8" stroke-width="2" d="M1601.5,-110.5C1601.5,-110.5 1402.5,-110.5 1402.5,-110.5 1396.5,-110.5 1390.5,-104.5 1390.5,-98.5 1390.5,-98.5 1390.5,-86.5 1390.5,-86.5 1390.5,-80.5 1396.5,-74.5 1402.5,-74.5 1402.5,-74.5 1601.5,-74.5 1601.5,-74.5 1607.5,-74.5 1613.5,-80.5 1613.5,-86.5 1613.5,-86.5 1613.5,-98.5 1613.5,-98.5 1613.5,-104.5 1607.5,-110.5 1601.5,-110.5"/>
<text text-anchor="middle" x="1502" y="-95.5" font-family="sans" font-size="10.00">pastml_itol</text>
<text text-anchor="middle" x="1502" y="-84.5" font-family="sans" font-size="10.00">tree: raxfast_subsampled_genomic_2.lsd2</text>
</g>
<!-- 27&#45;&gt;0 -->
<g id="edge27" class="edge">
<title>27&#45;&gt;0</title>
<path fill="none" stroke="grey" stroke-width="2" d="M1602.74,-74.46C1609.25,-73.57 1615.71,-72.73 1622,-72 1890.35,-40.65 2215.77,-25.09 2324.57,-20.49"/>
<polygon fill="grey" stroke="grey" stroke-width="2" points="2324.86,-23.99 2334.7,-20.07 2324.57,-16.99 2324.86,-23.99"/>
</g>
<!-- 28 -->
<g id="node29" class="node">
<title>28</title>
<path fill="none" stroke="#5692d8" stroke-width="2" d="M1842.5,-110.5C1842.5,-110.5 1643.5,-110.5 1643.5,-110.5 1637.5,-110.5 1631.5,-104.5 1631.5,-98.5 1631.5,-98.5 1631.5,-86.5 1631.5,-86.5 1631.5,-80.5 1637.5,-74.5 1643.5,-74.5 1643.5,-74.5 1842.5,-74.5 1842.5,-74.5 1848.5,-74.5 1854.5,-80.5 1854.5,-86.5 1854.5,-86.5 1854.5,-98.5 1854.5,-98.5 1854.5,-104.5 1848.5,-110.5 1842.5,-110.5"/>
<text text-anchor="middle" x="1743" y="-95.5" font-family="sans" font-size="10.00">pastml_itol</text>
<text text-anchor="middle" x="1743" y="-84.5" font-family="sans" font-size="10.00">tree: raxfast_subsampled_genomic_3.lsd2</text>
</g>
<!-- 28&#45;&gt;0 -->
<g id="edge28" class="edge">
<title>28&#45;&gt;0</title>
<path fill="none" stroke="grey" stroke-width="2" d="M1845.39,-74.47C1851.35,-73.6 1857.25,-72.77 1863,-72 2035.06,-48.9 2241.59,-29.65 2324.69,-22.25"/>
<polygon fill="grey" stroke="grey" stroke-width="2" points="2325.24,-25.72 2334.89,-21.35 2324.62,-18.74 2325.24,-25.72"/>
</g>
<!-- 29 -->
<g id="node30" class="node">
<title>29</title>
<path fill="none" stroke="#5692d8" stroke-width="2" d="M2373.5,-110.5C2373.5,-110.5 2174.5,-110.5 2174.5,-110.5 2168.5,-110.5 2162.5,-104.5 2162.5,-98.5 2162.5,-98.5 2162.5,-86.5 2162.5,-86.5 2162.5,-80.5 2168.5,-74.5 2174.5,-74.5 2174.5,-74.5 2373.5,-74.5 2373.5,-74.5 2379.5,-74.5 2385.5,-80.5 2385.5,-86.5 2385.5,-86.5 2385.5,-98.5 2385.5,-98.5 2385.5,-104.5 2379.5,-110.5 2373.5,-110.5"/>
<text text-anchor="middle" x="2274" y="-95.5" font-family="sans" font-size="10.00">pastml_itol</text>
<text text-anchor="middle" x="2274" y="-84.5" font-family="sans" font-size="10.00">tree: raxfast_subsampled_genomic_4.lsd2</text>
</g>
<!-- 29&#45;&gt;0 -->
<g id="edge29" class="edge">
<title>29&#45;&gt;0</title>
<path fill="none" stroke="grey" stroke-width="2" d="M2294.85,-74.32C2306.36,-64.84 2320.82,-52.93 2333.37,-42.58"/>
<polygon fill="grey" stroke="grey" stroke-width="2" points="2335.8,-45.12 2341.29,-36.06 2331.35,-39.72 2335.8,-45.12"/>
</g>
<!-- 30 -->
<g id="node31" class="node">
<title>30</title>
<path fill="none" stroke="#5692d8" stroke-width="2" d="M2238,-198.5C2238,-198.5 2018,-198.5 2018,-198.5 2012,-198.5 2006,-192.5 2006,-186.5 2006,-186.5 2006,-174.5 2006,-174.5 2006,-168.5 2012,-162.5 2018,-162.5 2018,-162.5 2238,-162.5 2238,-162.5 2244,-162.5 2250,-168.5 2250,-174.5 2250,-174.5 2250,-186.5 2250,-186.5 2250,-192.5 2244,-198.5 2238,-198.5"/>
<text text-anchor="middle" x="2128" y="-183.5" font-family="sans" font-size="10.00">pastml_itol</text>
<text text-anchor="middle" x="2128" y="-172.5" font-family="sans" font-size="10.00">tree: raxfast_subsampled_phylogenetic_0.lsd2</text>
</g>
<!-- 30&#45;&gt;0 -->
<g id="edge30" class="edge">
<title>30&#45;&gt;0</title>
<path fill="none" stroke="grey" stroke-width="2" d="M2194.34,-162.47C2214.95,-157.61 2237.83,-152.64 2259,-149 2329.52,-136.87 2531.31,-166.35 2579,-113 2633.09,-52.48 2474.22,-29.37 2399.05,-21.99"/>
<polygon fill="grey" stroke="grey" stroke-width="2" points="2399.31,-18.5 2389.03,-21.05 2398.66,-25.47 2399.31,-18.5"/>
</g>
<!-- 31 -->
<g id="node32" class="node">
<title>31</title>
<path fill="none" stroke="#5692d8" stroke-width="2" d="M2500,-198.5C2500,-198.5 2280,-198.5 2280,-198.5 2274,-198.5 2268,-192.5 2268,-186.5 2268,-186.5 2268,-174.5 2268,-174.5 2268,-168.5 2274,-162.5 2280,-162.5 2280,-162.5 2500,-162.5 2500,-162.5 2506,-162.5 2512,-168.5 2512,-174.5 2512,-174.5 2512,-186.5 2512,-186.5 2512,-192.5 2506,-198.5 2500,-198.5"/>
<text text-anchor="middle" x="2390" y="-183.5" font-family="sans" font-size="10.00">pastml_itol</text>
<text text-anchor="middle" x="2390" y="-172.5" font-family="sans" font-size="10.00">tree: raxfast_subsampled_phylogenetic_1.lsd2</text>
</g>
<!-- 31&#45;&gt;0 -->
<g id="edge31" class="edge">
<title>31&#45;&gt;0</title>
<path fill="none" stroke="grey" stroke-width="2" d="M2463.97,-162.49C2526.52,-147.36 2607.48,-125.72 2617,-113 2627.92,-98.42 2628.5,-86.14 2617,-72 2589.97,-38.77 2463.29,-25.7 2399.26,-21.15"/>
<polygon fill="grey" stroke="grey" stroke-width="2" points="2399.39,-17.65 2389.17,-20.46 2398.91,-24.63 2399.39,-17.65"/>
</g>
<!-- 32 -->
<g id="node33" class="node">
<title>32</title>
<path fill="none" stroke="#5692d8" stroke-width="2" d="M2964,-198.5C2964,-198.5 2744,-198.5 2744,-198.5 2738,-198.5 2732,-192.5 2732,-186.5 2732,-186.5 2732,-174.5 2732,-174.5 2732,-168.5 2738,-162.5 2744,-162.5 2744,-162.5 2964,-162.5 2964,-162.5 2970,-162.5 2976,-168.5 2976,-174.5 2976,-174.5 2976,-186.5 2976,-186.5 2976,-192.5 2970,-198.5 2964,-198.5"/>
<text text-anchor="middle" x="2854" y="-183.5" font-family="sans" font-size="10.00">pastml_itol</text>
<text text-anchor="middle" x="2854" y="-172.5" font-family="sans" font-size="10.00">tree: raxfast_subsampled_phylogenetic_2.lsd2</text>
</g>
<!-- 32&#45;&gt;0 -->
<g id="edge32" class="edge">
<title>32&#45;&gt;0</title>
<path fill="none" stroke="grey" stroke-width="2" d="M2832.52,-162.45C2800.86,-138.26 2738.94,-94.44 2679,-72 2582.38,-35.82 2459.96,-24.26 2399.42,-20.62"/>
<polygon fill="grey" stroke="grey" stroke-width="2" points="2399.38,-17.11 2389.2,-20.05 2398.99,-24.1 2399.38,-17.11"/>
</g>
<!-- 33 -->
<g id="node34" class="node">
<title>33</title>
<path fill="none" stroke="#5692d8" stroke-width="2" d="M3772,-198.5C3772,-198.5 3552,-198.5 3552,-198.5 3546,-198.5 3540,-192.5 3540,-186.5 3540,-186.5 3540,-174.5 3540,-174.5 3540,-168.5 3546,-162.5 3552,-162.5 3552,-162.5 3772,-162.5 3772,-162.5 3778,-162.5 3784,-168.5 3784,-174.5 3784,-174.5 3784,-186.5 3784,-186.5 3784,-192.5 3778,-198.5 3772,-198.5"/>
<text text-anchor="middle" x="3662" y="-183.5" font-family="sans" font-size="10.00">pastml_itol</text>
<text text-anchor="middle" x="3662" y="-172.5" font-family="sans" font-size="10.00">tree: raxfast_subsampled_phylogenetic_3.lsd2</text>
</g>
<!-- 33&#45;&gt;0 -->
<g id="edge33" class="edge">
<title>33&#45;&gt;0</title>
<path fill="none" stroke="grey" stroke-width="2" d="M3621.35,-162.49C3559.79,-137.61 3438.66,-92.07 3331,-72 3147.42,-37.77 2555.18,-23.08 2399.68,-19.76"/>
<polygon fill="grey" stroke="grey" stroke-width="2" points="2399.32,-16.25 2389.25,-19.54 2399.17,-23.25 2399.32,-16.25"/>
</g>
<!-- 34 -->
<g id="node35" class="node">
<title>34</title>
<path fill="none" stroke="#5692d8" stroke-width="2" d="M4324,-198.5C4324,-198.5 4104,-198.5 4104,-198.5 4098,-198.5 4092,-192.5 4092,-186.5 4092,-186.5 4092,-174.5 4092,-174.5 4092,-168.5 4098,-162.5 4104,-162.5 4104,-162.5 4324,-162.5 4324,-162.5 4330,-162.5 4336,-168.5 4336,-174.5 4336,-174.5 4336,-186.5 4336,-186.5 4336,-192.5 4330,-198.5 4324,-198.5"/>
<text text-anchor="middle" x="4214" y="-183.5" font-family="sans" font-size="10.00">pastml_itol</text>
<text text-anchor="middle" x="4214" y="-172.5" font-family="sans" font-size="10.00">tree: raxfast_subsampled_phylogenetic_4.lsd2</text>
</g>
<!-- 34&#45;&gt;0 -->
<g id="edge34" class="edge">
<title>34&#45;&gt;0</title>
<path fill="none" stroke="grey" stroke-width="2" d="M4162.85,-162.45C4085.08,-137.41 3931.97,-91.55 3798,-72 3516.36,-30.91 2595.96,-20.96 2399.22,-19.29"/>
<polygon fill="grey" stroke="grey" stroke-width="2" points="2399.13,-15.79 2389.1,-19.2 2399.07,-22.78 2399.13,-15.79"/>
</g>
<!-- 35 -->
<g id="node36" class="node">
<title>35</title>
<path fill="none" stroke="#d8cb56" stroke-width="2" stroke-dasharray="5,2" d="M179,-212C179,-212 111,-212 111,-212 105,-212 99,-206 99,-200 99,-200 99,-161 99,-161 99,-155 105,-149 111,-149 111,-149 179,-149 179,-149 185,-149 191,-155 191,-161 191,-161 191,-200 191,-200 191,-206 185,-212 179,-212"/>
<text text-anchor="middle" x="145" y="-200" font-family="sans" font-size="10.00">pastml_col</text>
<text text-anchor="middle" x="145" y="-189" font-family="sans" font-size="10.00">col: country</text>
<text text-anchor="middle" x="145" y="-178" font-family="sans" font-size="10.00">date: 20200425</text>
<text text-anchor="middle" x="145" y="-167" font-family="sans" font-size="10.00">dating: lsd2</text>
<text text-anchor="middle" x="145" y="-156" font-family="sans" font-size="10.00">tree: raxfast</text>
</g>
<!-- 35&#45;&gt;2 -->
<g id="edge35" class="edge">
<title>35&#45;&gt;2</title>
<path fill="none" stroke="grey" stroke-width="2" d="M145,-148.94C145,-139.88 145,-130.01 145,-121.14"/>
<polygon fill="grey" stroke="grey" stroke-width="2" points="148.5,-120.95 145,-110.95 141.5,-120.95 148.5,-120.95"/>
</g>
<!-- 36 -->
<g id="node37" class="node">
<title>36</title>
<path fill="none" stroke="#d8cb56" stroke-width="2" stroke-dasharray="5,2" d="M655,-311C655,-311 479,-311 479,-311 473,-311 467,-305 467,-299 467,-299 467,-260 467,-260 467,-254 473,-248 479,-248 479,-248 655,-248 655,-248 661,-248 667,-254 667,-260 667,-260 667,-299 667,-299 667,-305 661,-311 655,-311"/>
<text text-anchor="middle" x="567" y="-299" font-family="sans" font-size="10.00">pastml_col</text>
<text text-anchor="middle" x="567" y="-288" font-family="sans" font-size="10.00">col: country</text>
<text text-anchor="middle" x="567" y="-277" font-family="sans" font-size="10.00">date: 20200425</text>
<text text-anchor="middle" x="567" y="-266" font-family="sans" font-size="10.00">dating: lsd2</text>
<text text-anchor="middle" x="567" y="-255" font-family="sans" font-size="10.00">tree: raxfast_subsampled_genomic_0</text>
</g>
<!-- 36&#45;&gt;3 -->
<g id="edge36" class="edge">
<title>36&#45;&gt;3</title>
<path fill="none" stroke="grey" stroke-width="2" d="M570.47,-247.95C574.48,-212.58 581.04,-154.83 584.89,-120.87"/>
<polygon fill="grey" stroke="grey" stroke-width="2" points="588.39,-121.06 586.04,-110.73 581.44,-120.27 588.39,-121.06"/>
</g>
<!-- 36&#45;&gt;4 -->
<g id="edge37" class="edge">
<title>36&#45;&gt;4</title>
<path fill="none" stroke="grey" stroke-width="2" d="M513.99,-247.95C449.42,-210.74 341.9,-148.77 284.64,-115.77"/>
<polygon fill="grey" stroke="grey" stroke-width="2" points="286.31,-112.69 275.9,-110.73 282.82,-118.76 286.31,-112.69"/>
</g>
<!-- 36&#45;&gt;25 -->
<g id="edge58" class="edge">
<title>36&#45;&gt;25</title>
<path fill="none" stroke="grey" stroke-width="2" d="M543.22,-247.95C515.09,-211.81 468.78,-152.32 442.61,-118.69"/>
<polygon fill="grey" stroke="grey" stroke-width="2" points="445.32,-116.47 436.41,-110.73 439.79,-120.77 445.32,-116.47"/>
</g>
<!-- 41 -->
<g id="node42" class="node">
<title>41</title>
<path fill="none" stroke="#70d856" stroke-width="2" d="M1419.5,-198.5C1419.5,-198.5 1252.5,-198.5 1252.5,-198.5 1246.5,-198.5 1240.5,-192.5 1240.5,-186.5 1240.5,-186.5 1240.5,-174.5 1240.5,-174.5 1240.5,-168.5 1246.5,-162.5 1252.5,-162.5 1252.5,-162.5 1419.5,-162.5 1419.5,-162.5 1425.5,-162.5 1431.5,-168.5 1431.5,-174.5 1431.5,-174.5 1431.5,-186.5 1431.5,-186.5 1431.5,-192.5 1425.5,-198.5 1419.5,-198.5"/>
<text text-anchor="middle" x="1336" y="-183.5" font-family="sans" font-size="10.00">consensus</text>
<text text-anchor="middle" x="1336" y="-172.5" font-family="sans" font-size="10.00">type: raxfast_subsampled_genomic</text>
</g>
<!-- 36&#45;&gt;41 -->
<g id="edge68" class="edge">
<title>36&#45;&gt;41</title>
<path fill="none" stroke="grey" stroke-width="2" d="M667.27,-251.86C673.92,-250.45 680.54,-249.14 687,-248 876.75,-214.35 1100.95,-196.06 1230,-187.57"/>
<polygon fill="grey" stroke="grey" stroke-width="2" points="1230.52,-191.04 1240.27,-186.9 1230.06,-184.06 1230.52,-191.04"/>
</g>
<!-- 37 -->
<g id="node38" class="node">
<title>37</title>
<path fill="none" stroke="#d8cb56" stroke-width="2" stroke-dasharray="5,2" d="M884,-311C884,-311 708,-311 708,-311 702,-311 696,-305 696,-299 696,-299 696,-260 696,-260 696,-254 702,-248 708,-248 708,-248 884,-248 884,-248 890,-248 896,-254 896,-260 896,-260 896,-299 896,-299 896,-305 890,-311 884,-311"/>
<text text-anchor="middle" x="796" y="-299" font-family="sans" font-size="10.00">pastml_col</text>
<text text-anchor="middle" x="796" y="-288" font-family="sans" font-size="10.00">col: country</text>
<text text-anchor="middle" x="796" y="-277" font-family="sans" font-size="10.00">date: 20200425</text>
<text text-anchor="middle" x="796" y="-266" font-family="sans" font-size="10.00">dating: lsd2</text>
<text text-anchor="middle" x="796" y="-255" font-family="sans" font-size="10.00">tree: raxfast_subsampled_genomic_1</text>
</g>
<!-- 37&#45;&gt;5 -->
<g id="edge38" class="edge">
<title>37&#45;&gt;5</title>
<path fill="none" stroke="grey" stroke-width="2" d="M776.18,-247.95C752.84,-211.96 714.48,-152.82 692.62,-119.12"/>
<polygon fill="grey" stroke="grey" stroke-width="2" points="695.56,-117.22 687.18,-110.73 689.68,-121.03 695.56,-117.22"/>
</g>
<!-- 37&#45;&gt;6 -->
<g id="edge39" class="edge">
<title>37&#45;&gt;6</title>
<path fill="none" stroke="grey" stroke-width="2" d="M792.86,-247.95C789.23,-212.58 783.3,-154.83 779.81,-120.87"/>
<polygon fill="grey" stroke="grey" stroke-width="2" points="783.27,-120.32 778.77,-110.73 776.31,-121.04 783.27,-120.32"/>
</g>
<!-- 37&#45;&gt;26 -->
<g id="edge59" class="edge">
<title>37&#45;&gt;26</title>
<path fill="none" stroke="grey" stroke-width="2" d="M822.09,-247.95C852.96,-211.81 903.77,-152.32 932.48,-118.69"/>
<polygon fill="grey" stroke="grey" stroke-width="2" points="935.45,-120.61 939.28,-110.73 930.13,-116.06 935.45,-120.61"/>
</g>
<!-- 37&#45;&gt;41 -->
<g id="edge69" class="edge">
<title>37&#45;&gt;41</title>
<path fill="none" stroke="grey" stroke-width="2" d="M896.3,-260.48C991.6,-243.36 1134.33,-217.73 1231.11,-200.34"/>
<polygon fill="grey" stroke="grey" stroke-width="2" points="1231.99,-203.74 1241.21,-198.53 1230.75,-196.85 1231.99,-203.74"/>
</g>
<!-- 38 -->
<g id="node39" class="node">
<title>38</title>
<path fill="none" stroke="#d8cb56" stroke-width="2" stroke-dasharray="5,2" d="M1389,-311C1389,-311 1213,-311 1213,-311 1207,-311 1201,-305 1201,-299 1201,-299 1201,-260 1201,-260 1201,-254 1207,-248 1213,-248 1213,-248 1389,-248 1389,-248 1395,-248 1401,-254 1401,-260 1401,-260 1401,-299 1401,-299 1401,-305 1395,-311 1389,-311"/>
<text text-anchor="middle" x="1301" y="-299" font-family="sans" font-size="10.00">pastml_col</text>
<text text-anchor="middle" x="1301" y="-288" font-family="sans" font-size="10.00">col: country</text>
<text text-anchor="middle" x="1301" y="-277" font-family="sans" font-size="10.00">date: 20200425</text>
<text text-anchor="middle" x="1301" y="-266" font-family="sans" font-size="10.00">dating: lsd2</text>
<text text-anchor="middle" x="1301" y="-255" font-family="sans" font-size="10.00">tree: raxfast_subsampled_genomic_2</text>
</g>
<!-- 38&#45;&gt;7 -->
<g id="edge40" class="edge">
<title>38&#45;&gt;7</title>
<path fill="none" stroke="grey" stroke-width="2" d="M1256.82,-247.99C1242.55,-237.3 1227.05,-224.76 1214,-212 1183.97,-182.66 1154.55,-143.97 1136.59,-118.92"/>
<polygon fill="grey" stroke="grey" stroke-width="2" points="1139.37,-116.8 1130.73,-110.66 1133.66,-120.85 1139.37,-116.8"/>
</g>
<!-- 38&#45;&gt;8 -->
<g id="edge41" class="edge">
<title>38&#45;&gt;8</title>
<path fill="none" stroke="grey" stroke-width="2" d="M1259.18,-248C1248.19,-237.82 1237.59,-225.57 1231,-212 1217.01,-183.18 1215.93,-145.8 1217.26,-120.8"/>
<polygon fill="grey" stroke="grey" stroke-width="2" points="1220.77,-120.8 1217.97,-110.58 1213.78,-120.32 1220.77,-120.8"/>
</g>
<!-- 38&#45;&gt;27 -->
<g id="edge60" class="edge">
<title>38&#45;&gt;27</title>
<path fill="none" stroke="grey" stroke-width="2" d="M1387.01,-247.95C1405.97,-238.47 1424.89,-226.58 1440,-212 1466.7,-186.24 1484.22,-146.47 1493.62,-120.22"/>
<polygon fill="grey" stroke="grey" stroke-width="2" points="1497.01,-121.13 1496.94,-110.54 1490.39,-118.86 1497.01,-121.13"/>
</g>
<!-- 38&#45;&gt;41 -->
<g id="edge70" class="edge">
<title>38&#45;&gt;41</title>
<path fill="none" stroke="grey" stroke-width="2" d="M1312.07,-247.81C1316.64,-235.15 1321.89,-220.6 1326.3,-208.37"/>
<polygon fill="grey" stroke="grey" stroke-width="2" points="1329.68,-209.32 1329.78,-198.73 1323.1,-206.95 1329.68,-209.32"/>
</g>
<!-- 39 -->
<g id="node40" class="node">
<title>39</title>
<path fill="none" stroke="#d8cb56" stroke-width="2" stroke-dasharray="5,2" d="M1627,-311C1627,-311 1451,-311 1451,-311 1445,-311 1439,-305 1439,-299 1439,-299 1439,-260 1439,-260 1439,-254 1445,-248 1451,-248 1451,-248 1627,-248 1627,-248 1633,-248 1639,-254 1639,-260 1639,-260 1639,-299 1639,-299 1639,-305 1633,-311 1627,-311"/>
<text text-anchor="middle" x="1539" y="-299" font-family="sans" font-size="10.00">pastml_col</text>
<text text-anchor="middle" x="1539" y="-288" font-family="sans" font-size="10.00">col: country</text>
<text text-anchor="middle" x="1539" y="-277" font-family="sans" font-size="10.00">date: 20200425</text>
<text text-anchor="middle" x="1539" y="-266" font-family="sans" font-size="10.00">dating: lsd2</text>
<text text-anchor="middle" x="1539" y="-255" font-family="sans" font-size="10.00">tree: raxfast_subsampled_genomic_3</text>
</g>
<!-- 39&#45;&gt;9 -->
<g id="edge42" class="edge">
<title>39&#45;&gt;9</title>
<path fill="none" stroke="grey" stroke-width="2" d="M1584.53,-247.84C1600.4,-236.83 1618.19,-224.14 1634,-212 1668.53,-185.49 1669.19,-166.61 1709,-149 1818.51,-100.57 1860.64,-145.11 1976,-113 1976.1,-112.97 1976.21,-112.94 1976.31,-112.91"/>
<polygon fill="grey" stroke="grey" stroke-width="2" points="1977.54,-116.19 1985.96,-109.77 1975.37,-109.54 1977.54,-116.19"/>
</g>
<!-- 39&#45;&gt;10 -->
<g id="edge43" class="edge">
<title>39&#45;&gt;10</title>
<path fill="none" stroke="grey" stroke-width="2" d="M1564.53,-247.77C1573.83,-236.53 1584.42,-223.71 1594,-212 1616.81,-184.12 1613.86,-167.12 1645,-149 1727.14,-101.2 1765.28,-134.66 1862.38,-112.84"/>
<polygon fill="grey" stroke="grey" stroke-width="2" points="1863.37,-116.2 1872.28,-110.47 1861.74,-109.39 1863.37,-116.2"/>
</g>
<!-- 39&#45;&gt;28 -->
<g id="edge61" class="edge">
<title>39&#45;&gt;28</title>
<path fill="none" stroke="grey" stroke-width="2" d="M1546.35,-247.87C1554.78,-218.83 1571.28,-175.78 1600,-149 1616.47,-133.65 1637.66,-122.38 1658.65,-114.18"/>
<polygon fill="grey" stroke="grey" stroke-width="2" points="1660.1,-117.37 1668.27,-110.62 1657.67,-110.81 1660.1,-117.37"/>
</g>
<!-- 39&#45;&gt;41 -->
<g id="edge71" class="edge">
<title>39&#45;&gt;41</title>
<path fill="none" stroke="grey" stroke-width="2" d="M1475.05,-247.94C1444.45,-233.32 1408.56,-216.17 1380.91,-202.96"/>
<polygon fill="grey" stroke="grey" stroke-width="2" points="1382.4,-199.79 1371.87,-198.64 1379.38,-206.11 1382.4,-199.79"/>
</g>
<!-- 40 -->
<g id="node41" class="node">
<title>40</title>
<path fill="none" stroke="#d8cb56" stroke-width="2" stroke-dasharray="5,2" d="M1845,-311C1845,-311 1669,-311 1669,-311 1663,-311 1657,-305 1657,-299 1657,-299 1657,-260 1657,-260 1657,-254 1663,-248 1669,-248 1669,-248 1845,-248 1845,-248 1851,-248 1857,-254 1857,-260 1857,-260 1857,-299 1857,-299 1857,-305 1851,-311 1845,-311"/>
<text text-anchor="middle" x="1757" y="-299" font-family="sans" font-size="10.00">pastml_col</text>
<text text-anchor="middle" x="1757" y="-288" font-family="sans" font-size="10.00">col: country</text>
<text text-anchor="middle" x="1757" y="-277" font-family="sans" font-size="10.00">date: 20200425</text>
<text text-anchor="middle" x="1757" y="-266" font-family="sans" font-size="10.00">dating: lsd2</text>
<text text-anchor="middle" x="1757" y="-255" font-family="sans" font-size="10.00">tree: raxfast_subsampled_genomic_4</text>
</g>
<!-- 40&#45;&gt;11 -->
<g id="edge44" class="edge">
<title>40&#45;&gt;11</title>
<path fill="none" stroke="grey" stroke-width="2" d="M1735.25,-247.8C1717.68,-218.92 1699.56,-176.16 1724,-149 1773.03,-94.52 1975.14,-129.75 2063.82,-112.53"/>
<polygon fill="grey" stroke="grey" stroke-width="2" points="2064.85,-115.89 2073.8,-110.23 2063.27,-109.07 2064.85,-115.89"/>
</g>
<!-- 40&#45;&gt;12 -->
<g id="edge45" class="edge">
<title>40&#45;&gt;12</title>
<path fill="none" stroke="grey" stroke-width="2" d="M1761.87,-247.77C1767.98,-213.51 1779.56,-161.3 1795,-149 1847.15,-107.45 2328.59,-125.91 2394,-113 2394.22,-112.96 2394.44,-112.91 2394.66,-112.87"/>
<polygon fill="grey" stroke="grey" stroke-width="2" points="2395.7,-116.22 2404.62,-110.51 2394.08,-109.41 2395.7,-116.22"/>
</g>
<!-- 40&#45;&gt;29 -->
<g id="edge62" class="edge">
<title>40&#45;&gt;29</title>
<path fill="none" stroke="grey" stroke-width="2" d="M1748.01,-247.99C1741.42,-218.63 1737.39,-174.96 1762,-149 1792.02,-117.34 2109.72,-118.47 2153,-113 2155.73,-112.66 2158.49,-112.3 2161.27,-111.92"/>
<polygon fill="grey" stroke="grey" stroke-width="2" points="2161.99,-115.36 2171.42,-110.53 2161.04,-108.42 2161.99,-115.36"/>
</g>
<!-- 40&#45;&gt;41 -->
<g id="edge72" class="edge">
<title>40&#45;&gt;41</title>
<path fill="none" stroke="grey" stroke-width="2" d="M1656.98,-250.25C1653.96,-249.48 1650.96,-248.73 1648,-248 1576.43,-230.38 1494.95,-213.1 1433.2,-200.58"/>
<polygon fill="grey" stroke="grey" stroke-width="2" points="1433.58,-197.09 1423.08,-198.53 1432.19,-203.95 1433.58,-197.09"/>
</g>
<!-- 41&#45;&gt;13 -->
<g id="edge46" class="edge">
<title>41&#45;&gt;13</title>
<path fill="none" stroke="grey" stroke-width="2" d="M1334.58,-162.1C1333.62,-150.25 1332.32,-134.32 1331.22,-120.79"/>
<polygon fill="grey" stroke="grey" stroke-width="2" points="1334.69,-120.27 1330.39,-110.58 1327.71,-120.84 1334.69,-120.27"/>
</g>
<!-- 42 -->
<g id="node43" class="node">
<title>42</title>
<path fill="none" stroke="#d8cb56" stroke-width="2" stroke-dasharray="5,2" d="M2155.5,-311C2155.5,-311 1958.5,-311 1958.5,-311 1952.5,-311 1946.5,-305 1946.5,-299 1946.5,-299 1946.5,-260 1946.5,-260 1946.5,-254 1952.5,-248 1958.5,-248 1958.5,-248 2155.5,-248 2155.5,-248 2161.5,-248 2167.5,-254 2167.5,-260 2167.5,-260 2167.5,-299 2167.5,-299 2167.5,-305 2161.5,-311 2155.5,-311"/>
<text text-anchor="middle" x="2057" y="-299" font-family="sans" font-size="10.00">pastml_col</text>
<text text-anchor="middle" x="2057" y="-288" font-family="sans" font-size="10.00">col: country</text>
<text text-anchor="middle" x="2057" y="-277" font-family="sans" font-size="10.00">date: 20200425</text>
<text text-anchor="middle" x="2057" y="-266" font-family="sans" font-size="10.00">dating: lsd2</text>
<text text-anchor="middle" x="2057" y="-255" font-family="sans" font-size="10.00">tree: raxfast_subsampled_phylogenetic_0</text>
</g>
<!-- 42&#45;&gt;14 -->
<g id="edge47" class="edge">
<title>42&#45;&gt;14</title>
<path fill="none" stroke="grey" stroke-width="2" d="M2024.09,-247.81C2009.57,-234.26 1992.73,-218.56 1979.09,-205.84"/>
<polygon fill="grey" stroke="grey" stroke-width="2" points="1981.17,-202.99 1971.47,-198.73 1976.4,-208.11 1981.17,-202.99"/>
</g>
<!-- 42&#45;&gt;15 -->
<g id="edge48" class="edge">
<title>42&#45;&gt;15</title>
<path fill="none" stroke="grey" stroke-width="2" d="M1986.15,-247.86C1961.55,-236.9 1933.9,-224.24 1909,-212 1903.38,-209.24 1897.5,-206.23 1891.75,-203.22"/>
<polygon fill="grey" stroke="grey" stroke-width="2" points="1893.34,-200.1 1882.86,-198.51 1890.06,-206.29 1893.34,-200.1"/>
</g>
<!-- 42&#45;&gt;30 -->
<g id="edge63" class="edge">
<title>42&#45;&gt;30</title>
<path fill="none" stroke="grey" stroke-width="2" d="M2079.46,-247.81C2089.1,-234.64 2100.23,-219.44 2109.4,-206.91"/>
<polygon fill="grey" stroke="grey" stroke-width="2" points="2112.31,-208.87 2115.39,-198.73 2106.66,-204.73 2112.31,-208.87"/>
</g>
<!-- 47 -->
<g id="node48" class="node">
<title>47</title>
<path fill="none" stroke="#70d856" stroke-width="2" d="M3308,-198.5C3308,-198.5 3120,-198.5 3120,-198.5 3114,-198.5 3108,-192.5 3108,-186.5 3108,-186.5 3108,-174.5 3108,-174.5 3108,-168.5 3114,-162.5 3120,-162.5 3120,-162.5 3308,-162.5 3308,-162.5 3314,-162.5 3320,-168.5 3320,-174.5 3320,-174.5 3320,-186.5 3320,-186.5 3320,-192.5 3314,-198.5 3308,-198.5"/>
<text text-anchor="middle" x="3214" y="-183.5" font-family="sans" font-size="10.00">consensus</text>
<text text-anchor="middle" x="3214" y="-172.5" font-family="sans" font-size="10.00">type: raxfast_subsampled_phylogenetic</text>
</g>
<!-- 42&#45;&gt;47 -->
<g id="edge73" class="edge">
<title>42&#45;&gt;47</title>
<path fill="none" stroke="grey" stroke-width="2" d="M2167.73,-270.81C2259.02,-264.51 2391.9,-255.47 2508,-248 2770.17,-231.14 2838.6,-253.6 3098,-212 3114.43,-209.36 3131.91,-205.4 3148.18,-201.2"/>
<polygon fill="grey" stroke="grey" stroke-width="2" points="3149.36,-204.51 3158.13,-198.56 3147.57,-197.74 3149.36,-204.51"/>
</g>
<!-- 43 -->
<g id="node44" class="node">
<title>43</title>
<path fill="none" stroke="#d8cb56" stroke-width="2" stroke-dasharray="5,2" d="M2726.5,-311C2726.5,-311 2529.5,-311 2529.5,-311 2523.5,-311 2517.5,-305 2517.5,-299 2517.5,-299 2517.5,-260 2517.5,-260 2517.5,-254 2523.5,-248 2529.5,-248 2529.5,-248 2726.5,-248 2726.5,-248 2732.5,-248 2738.5,-254 2738.5,-260 2738.5,-260 2738.5,-299 2738.5,-299 2738.5,-305 2732.5,-311 2726.5,-311"/>
<text text-anchor="middle" x="2628" y="-299" font-family="sans" font-size="10.00">pastml_col</text>
<text text-anchor="middle" x="2628" y="-288" font-family="sans" font-size="10.00">col: country</text>
<text text-anchor="middle" x="2628" y="-277" font-family="sans" font-size="10.00">date: 20200425</text>
<text text-anchor="middle" x="2628" y="-266" font-family="sans" font-size="10.00">dating: lsd2</text>
<text text-anchor="middle" x="2628" y="-255" font-family="sans" font-size="10.00">tree: raxfast_subsampled_phylogenetic_1</text>
</g>
<!-- 43&#45;&gt;16 -->
<g id="edge49" class="edge">
<title>43&#45;&gt;16</title>
<path fill="none" stroke="grey" stroke-width="2" d="M2644.14,-247.81C2650.93,-234.89 2658.75,-220.02 2665.26,-207.64"/>
<polygon fill="grey" stroke="grey" stroke-width="2" points="2668.39,-209.21 2669.94,-198.73 2662.19,-205.95 2668.39,-209.21"/>
</g>
<!-- 43&#45;&gt;17 -->
<g id="edge50" class="edge">
<title>43&#45;&gt;17</title>
<path fill="none" stroke="grey" stroke-width="2" d="M2612.18,-247.81C2605.52,-234.89 2597.86,-220.02 2591.47,-207.64"/>
<polygon fill="grey" stroke="grey" stroke-width="2" points="2594.57,-206.01 2586.88,-198.73 2588.35,-209.22 2594.57,-206.01"/>
</g>
<!-- 43&#45;&gt;31 -->
<g id="edge64" class="edge">
<title>43&#45;&gt;31</title>
<path fill="none" stroke="grey" stroke-width="2" d="M2553.02,-247.94C2516.69,-233.13 2473.98,-215.73 2441.39,-202.44"/>
<polygon fill="grey" stroke="grey" stroke-width="2" points="2442.63,-199.17 2432.05,-198.64 2439.99,-205.65 2442.63,-199.17"/>
</g>
<!-- 43&#45;&gt;47 -->
<g id="edge74" class="edge">
<title>43&#45;&gt;47</title>
<path fill="none" stroke="grey" stroke-width="2" d="M2738.78,-266.52C2834.41,-255.3 2976.01,-236.58 3098,-212 3113.24,-208.93 3129.45,-205.06 3144.78,-201.11"/>
<polygon fill="grey" stroke="grey" stroke-width="2" points="3145.91,-204.43 3154.7,-198.51 3144.14,-197.66 3145.91,-204.43"/>
</g>
<!-- 44 -->
<g id="node45" class="node">
<title>44</title>
<path fill="none" stroke="#d8cb56" stroke-width="2" stroke-dasharray="5,2" d="M3226.5,-311C3226.5,-311 3029.5,-311 3029.5,-311 3023.5,-311 3017.5,-305 3017.5,-299 3017.5,-299 3017.5,-260 3017.5,-260 3017.5,-254 3023.5,-248 3029.5,-248 3029.5,-248 3226.5,-248 3226.5,-248 3232.5,-248 3238.5,-254 3238.5,-260 3238.5,-260 3238.5,-299 3238.5,-299 3238.5,-305 3232.5,-311 3226.5,-311"/>
<text text-anchor="middle" x="3128" y="-299" font-family="sans" font-size="10.00">pastml_col</text>
<text text-anchor="middle" x="3128" y="-288" font-family="sans" font-size="10.00">col: country</text>
<text text-anchor="middle" x="3128" y="-277" font-family="sans" font-size="10.00">date: 20200425</text>
<text text-anchor="middle" x="3128" y="-266" font-family="sans" font-size="10.00">dating: lsd2</text>
<text text-anchor="middle" x="3128" y="-255" font-family="sans" font-size="10.00">tree: raxfast_subsampled_phylogenetic_2</text>
</g>
<!-- 44&#45;&gt;18 -->
<g id="edge51" class="edge">
<title>44&#45;&gt;18</title>
<path fill="none" stroke="grey" stroke-width="2" d="M3238.51,-248.23C3268.56,-238.32 3300.63,-226.15 3329,-212 3333.44,-209.78 3337.95,-207.16 3342.3,-204.4"/>
<polygon fill="grey" stroke="grey" stroke-width="2" points="3344.56,-207.1 3350.93,-198.63 3340.67,-201.28 3344.56,-207.1"/>
</g>
<!-- 44&#45;&gt;19 -->
<g id="edge52" class="edge">
<title>44&#45;&gt;19</title>
<path fill="none" stroke="grey" stroke-width="2" d="M3100.79,-247.81C3089,-234.51 3075.38,-219.15 3064.21,-206.55"/>
<polygon fill="grey" stroke="grey" stroke-width="2" points="3066.53,-203.89 3057.28,-198.73 3061.29,-208.53 3066.53,-203.89"/>
</g>
<!-- 44&#45;&gt;32 -->
<g id="edge65" class="edge">
<title>44&#45;&gt;32</title>
<path fill="none" stroke="grey" stroke-width="2" d="M3041.68,-247.94C2999.49,-233.01 2949.83,-215.43 2912.2,-202.1"/>
<polygon fill="grey" stroke="grey" stroke-width="2" points="2913.01,-198.68 2902.41,-198.64 2910.67,-205.27 2913.01,-198.68"/>
</g>
<!-- 44&#45;&gt;47 -->
<g id="edge75" class="edge">
<title>44&#45;&gt;47</title>
<path fill="none" stroke="grey" stroke-width="2" d="M3155.21,-247.81C3167,-234.51 3180.62,-219.15 3191.79,-206.55"/>
<polygon fill="grey" stroke="grey" stroke-width="2" points="3194.71,-208.53 3198.72,-198.73 3189.47,-203.89 3194.71,-208.53"/>
</g>
<!-- 45 -->
<g id="node46" class="node">
<title>45</title>
<path fill="none" stroke="#d8cb56" stroke-width="2" stroke-dasharray="5,2" d="M3666.5,-311C3666.5,-311 3469.5,-311 3469.5,-311 3463.5,-311 3457.5,-305 3457.5,-299 3457.5,-299 3457.5,-260 3457.5,-260 3457.5,-254 3463.5,-248 3469.5,-248 3469.5,-248 3666.5,-248 3666.5,-248 3672.5,-248 3678.5,-254 3678.5,-260 3678.5,-260 3678.5,-299 3678.5,-299 3678.5,-305 3672.5,-311 3666.5,-311"/>
<text text-anchor="middle" x="3568" y="-299" font-family="sans" font-size="10.00">pastml_col</text>
<text text-anchor="middle" x="3568" y="-288" font-family="sans" font-size="10.00">col: country</text>
<text text-anchor="middle" x="3568" y="-277" font-family="sans" font-size="10.00">date: 20200425</text>
<text text-anchor="middle" x="3568" y="-266" font-family="sans" font-size="10.00">dating: lsd2</text>
<text text-anchor="middle" x="3568" y="-255" font-family="sans" font-size="10.00">tree: raxfast_subsampled_phylogenetic_3</text>
</g>
<!-- 45&#45;&gt;20 -->
<g id="edge53" class="edge">
<title>45&#45;&gt;20</title>
<path fill="none" stroke="grey" stroke-width="2" d="M3678.76,-253.32C3716.01,-242.89 3757.18,-229.16 3793,-212 3797.48,-209.85 3802.01,-207.28 3806.36,-204.54"/>
<polygon fill="grey" stroke="grey" stroke-width="2" points="3808.62,-207.24 3815.01,-198.78 3804.74,-201.41 3808.62,-207.24"/>
</g>
<!-- 45&#45;&gt;21 -->
<g id="edge54" class="edge">
<title>45&#45;&gt;21</title>
<path fill="none" stroke="grey" stroke-width="2" d="M3538.26,-247.81C3525.25,-234.39 3510.2,-218.85 3497.93,-206.19"/>
<polygon fill="grey" stroke="grey" stroke-width="2" points="3500.17,-203.48 3490.7,-198.73 3495.14,-208.35 3500.17,-203.48"/>
</g>
<!-- 45&#45;&gt;33 -->
<g id="edge66" class="edge">
<title>45&#45;&gt;33</title>
<path fill="none" stroke="grey" stroke-width="2" d="M3597.74,-247.81C3610.75,-234.39 3625.8,-218.85 3638.07,-206.19"/>
<polygon fill="grey" stroke="grey" stroke-width="2" points="3640.86,-208.35 3645.3,-198.73 3635.83,-203.48 3640.86,-208.35"/>
</g>
<!-- 45&#45;&gt;47 -->
<g id="edge76" class="edge">
<title>45&#45;&gt;47</title>
<path fill="none" stroke="grey" stroke-width="2" d="M3457.45,-248.21C3401.55,-232.89 3335.32,-214.74 3286.06,-201.24"/>
<polygon fill="grey" stroke="grey" stroke-width="2" points="3286.7,-197.79 3276.13,-198.52 3284.85,-204.54 3286.7,-197.79"/>
</g>
<!-- 46 -->
<g id="node47" class="node">
<title>46</title>
<path fill="none" stroke="#d8cb56" stroke-width="2" stroke-dasharray="5,2" d="M4073.5,-311C4073.5,-311 3876.5,-311 3876.5,-311 3870.5,-311 3864.5,-305 3864.5,-299 3864.5,-299 3864.5,-260 3864.5,-260 3864.5,-254 3870.5,-248 3876.5,-248 3876.5,-248 4073.5,-248 4073.5,-248 4079.5,-248 4085.5,-254 4085.5,-260 4085.5,-260 4085.5,-299 4085.5,-299 4085.5,-305 4079.5,-311 4073.5,-311"/>
<text text-anchor="middle" x="3975" y="-299" font-family="sans" font-size="10.00">pastml_col</text>
<text text-anchor="middle" x="3975" y="-288" font-family="sans" font-size="10.00">col: country</text>
<text text-anchor="middle" x="3975" y="-277" font-family="sans" font-size="10.00">date: 20200425</text>
<text text-anchor="middle" x="3975" y="-266" font-family="sans" font-size="10.00">dating: lsd2</text>
<text text-anchor="middle" x="3975" y="-255" font-family="sans" font-size="10.00">tree: raxfast_subsampled_phylogenetic_4</text>
</g>
<!-- 46&#45;&gt;22 -->
<g id="edge55" class="edge">
<title>46&#45;&gt;22</title>
<path fill="none" stroke="grey" stroke-width="2" d="M3959.18,-247.81C3952.52,-234.89 3944.86,-220.02 3938.47,-207.64"/>
<polygon fill="grey" stroke="grey" stroke-width="2" points="3941.57,-206.01 3933.88,-198.73 3935.35,-209.22 3941.57,-206.01"/>
</g>
<!-- 46&#45;&gt;23 -->
<g id="edge56" class="edge">
<title>46&#45;&gt;23</title>
<path fill="none" stroke="grey" stroke-width="2" d="M3991.14,-247.81C3997.93,-234.89 4005.75,-220.02 4012.26,-207.64"/>
<polygon fill="grey" stroke="grey" stroke-width="2" points="4015.39,-209.21 4016.94,-198.73 4009.19,-205.95 4015.39,-209.21"/>
</g>
<!-- 46&#45;&gt;34 -->
<g id="edge67" class="edge">
<title>46&#45;&gt;34</title>
<path fill="none" stroke="grey" stroke-width="2" d="M4050.29,-247.94C4086.78,-233.13 4129.67,-215.73 4162.4,-202.44"/>
<polygon fill="grey" stroke="grey" stroke-width="2" points="4163.82,-205.64 4171.77,-198.64 4161.19,-199.16 4163.82,-205.64"/>
</g>
<!-- 46&#45;&gt;47 -->
<g id="edge77" class="edge">
<title>46&#45;&gt;47</title>
<path fill="none" stroke="grey" stroke-width="2" d="M3864.24,-266.63C3810.7,-260.93 3745.52,-254.04 3687,-248 3527.93,-231.58 3486.34,-240.59 3329,-212 3313.33,-209.15 3296.67,-205.25 3281.03,-201.19"/>
<polygon fill="grey" stroke="grey" stroke-width="2" points="3281.48,-197.69 3270.92,-198.51 3279.69,-204.46 3281.48,-197.69"/>
</g>
<!-- 47&#45;&gt;24 -->
<g id="edge57" class="edge">
<title>47&#45;&gt;24</title>
<path fill="none" stroke="grey" stroke-width="2" d="M3203.88,-162.1C3196.79,-149.89 3187.18,-133.37 3179.17,-119.59"/>
<polygon fill="grey" stroke="grey" stroke-width="2" points="3181.98,-117.47 3173.93,-110.58 3175.93,-120.99 3181.98,-117.47"/>
</g>
</g>
</svg>
