<?xml version="1.0" encoding="UTF-8" standalone="no"?>
<!DOCTYPE svg PUBLIC "-//W3C//DTD SVG 1.1//EN"
 "http://www.w3.org/Graphics/SVG/1.1/DTD/svg11.dtd">
<!-- Generated by graphviz version 2.43.0 (0)
 -->
<!-- Title: snakemake_dag Pages: 1 -->
<svg width="369pt" height="276pt"
 viewBox="0.00 0.00 369.00 276.00" xmlns="http://www.w3.org/2000/svg" xmlns:xlink="http://www.w3.org/1999/xlink">
<g id="graph0" class="graph" transform="scale(1 1) rotate(0) translate(4 272)">
<title>snakemake_dag</title>
<polygon fill="white" stroke="transparent" points="-4,4 -4,-272 365,-272 365,4 -4,4"/>
<!-- 0 -->
<g id="node1" class="node">
<title>0</title>
<path fill="none" stroke="#56d8d8" stroke-width="2" stroke-dasharray="5,2" d="M195.5,-36C195.5,-36 165.5,-36 165.5,-36 159.5,-36 153.5,-30 153.5,-24 153.5,-24 153.5,-12 153.5,-12 153.5,-6 159.5,0 165.5,0 165.5,0 195.5,0 195.5,0 201.5,0 207.5,-6 207.5,-12 207.5,-12 207.5,-24 207.5,-24 207.5,-30 201.5,-36 195.5,-36"/>
<text text-anchor="middle" x="180.5" y="-15.5" font-family="sans" font-size="10.00">all</text>
</g>
<!-- 1 -->
<g id="node2" class="node">
<title>1</title>
<path fill="none" stroke="#d85656" stroke-width="2" stroke-dasharray="5,2" d="M218.5,-108C218.5,-108 142.5,-108 142.5,-108 136.5,-108 130.5,-102 130.5,-96 130.5,-96 130.5,-84 130.5,-84 130.5,-78 136.5,-72 142.5,-72 142.5,-72 218.5,-72 218.5,-72 224.5,-72 230.5,-78 230.5,-84 230.5,-84 230.5,-96 230.5,-96 230.5,-102 224.5,-108 218.5,-108"/>
<text text-anchor="middle" x="180.5" y="-93" font-family="sans" font-size="10.00">nex2nwk</text>
<text text-anchor="middle" x="180.5" y="-82" font-family="sans" font-size="10.00">tree: raxfast.lsd2</text>
</g>
<!-- 1&#45;&gt;0 -->
<g id="edge1" class="edge">
<title>1&#45;&gt;0</title>
<path fill="none" stroke="grey" stroke-width="2" d="M180.5,-71.7C180.5,-63.98 180.5,-54.71 180.5,-46.11"/>
<polygon fill="grey" stroke="grey" stroke-width="2" points="184,-46.1 180.5,-36.1 177,-46.1 184,-46.1"/>
</g>
<!-- 2 -->
<g id="node3" class="node">
<title>2</title>
<path fill="none" stroke="#59d856" stroke-width="2" stroke-dasharray="5,2" d="M207,-180C207,-180 154,-180 154,-180 148,-180 142,-174 142,-168 142,-168 142,-156 142,-156 142,-150 148,-144 154,-144 154,-144 207,-144 207,-144 213,-144 219,-150 219,-156 219,-156 219,-168 219,-168 219,-174 213,-180 207,-180"/>
<text text-anchor="middle" x="180.5" y="-165" font-family="sans" font-size="10.00">date_lsd2</text>
<text text-anchor="middle" x="180.5" y="-154" font-family="sans" font-size="10.00">tree: raxfast</text>
</g>
<!-- 2&#45;&gt;1 -->
<g id="edge2" class="edge">
<title>2&#45;&gt;1</title>
<path fill="none" stroke="grey" stroke-width="2" d="M180.5,-143.7C180.5,-135.98 180.5,-126.71 180.5,-118.11"/>
<polygon fill="grey" stroke="grey" stroke-width="2" points="184,-118.1 180.5,-108.1 177,-118.1 184,-118.1"/>
</g>
<!-- 3 -->
<g id="node4" class="node">
<title>3</title>
<path fill="none" stroke="#d6d856" stroke-width="2" stroke-dasharray="5,2" d="M349,-268C349,-268 12,-268 12,-268 6,-268 0,-262 0,-256 0,-256 0,-228 0,-228 0,-222 6,-216 12,-216 12,-216 349,-216 349,-216 355,-216 361,-222 361,-228 361,-228 361,-256 361,-256 361,-262 355,-268 349,-268"/>
<text text-anchor="middle" x="180.5" y="-256" font-family="sans" font-size="10.00">tree_size</text>
<text text-anchor="middle" x="180.5" y="-245" font-family="sans" font-size="10.00">date: 20200425</text>
<text text-anchor="middle" x="180.5" y="-234" font-family="sans" font-size="10.00">tree: rooted_raxfast.duplicated.has_dates.collapsed.zscore.no_outliers</text>
<text text-anchor="middle" x="180.5" y="-223" font-family="sans" font-size="10.00">type: phylogenies</text>
</g>
<!-- 3&#45;&gt;2 -->
<g id="edge3" class="edge">
<title>3&#45;&gt;2</title>
<path fill="none" stroke="grey" stroke-width="2" d="M180.5,-215.89C180.5,-207.84 180.5,-198.88 180.5,-190.66"/>
<polygon fill="grey" stroke="grey" stroke-width="2" points="184,-190.41 180.5,-180.41 177,-190.41 184,-190.41"/>
</g>
</g>
</svg>
