<?xml version="1.0" encoding="UTF-8" standalone="no"?>
<!DOCTYPE svg PUBLIC "-//W3C//DTD SVG 1.1//EN"
 "http://www.w3.org/Graphics/SVG/1.1/DTD/svg11.dtd">
<!-- Generated by graphviz version 2.43.0 (0)
 -->
<!-- Title: snakemake_dag Pages: 1 -->
<svg width="1298pt" height="220pt"
 viewBox="0.00 0.00 1297.50 220.00" xmlns="http://www.w3.org/2000/svg" xmlns:xlink="http://www.w3.org/1999/xlink">
<g id="graph0" class="graph" transform="scale(1 1) rotate(0) translate(4 216)">
<title>snakemake_dag</title>
<polygon fill="white" stroke="transparent" points="-4,4 -4,-216 1293.5,-216 1293.5,4 -4,4"/>
<!-- 0 -->
<g id="node1" class="node">
<title>0</title>
<path fill="none" stroke="#56c1d8" stroke-width="2" d="M601,-36C601,-36 571,-36 571,-36 565,-36 559,-30 559,-24 559,-24 559,-12 559,-12 559,-6 565,0 571,0 571,0 601,0 601,0 607,0 613,-6 613,-12 613,-12 613,-24 613,-24 613,-30 607,-36 601,-36"/>
<text text-anchor="middle" x="586" y="-15.5" font-family="sans" font-size="10.00">all</text>
</g>
<!-- 1 -->
<g id="node2" class="node">
<title>1</title>
<path fill="none" stroke="#88d856" stroke-width="2" stroke-dasharray="5,2" d="M80,-113C80,-113 12,-113 12,-113 6,-113 0,-107 0,-101 0,-101 0,-84 0,-84 0,-78 6,-72 12,-72 12,-72 80,-72 80,-72 86,-72 92,-78 92,-84 92,-84 92,-101 92,-101 92,-107 86,-113 80,-113"/>
<text text-anchor="middle" x="46" y="-101" font-family="sans" font-size="10.00">geomap</text>
<text text-anchor="middle" x="46" y="-90" font-family="sans" font-size="10.00">date: 20200425</text>
<text text-anchor="middle" x="46" y="-79" font-family="sans" font-size="10.00">loc: country</text>
</g>
<!-- 1&#45;&gt;0 -->
<g id="edge1" class="edge">
<title>1&#45;&gt;0</title>
<path fill="none" stroke="grey" stroke-width="2" d="M92.29,-74.24C95.21,-73.41 98.14,-72.65 101,-72 265.14,-34.47 466.81,-23.27 548.75,-20.13"/>
<polygon fill="grey" stroke="grey" stroke-width="2" points="548.96,-23.63 558.82,-19.77 548.7,-16.63 548.96,-23.63"/>
</g>
<!-- 2 -->
<g id="node3" class="node">
<title>2</title>
<path fill="none" stroke="#56d88a" stroke-width="2" d="M168,-110.5C168,-110.5 122,-110.5 122,-110.5 116,-110.5 110,-104.5 110,-98.5 110,-98.5 110,-86.5 110,-86.5 110,-80.5 116,-74.5 122,-74.5 122,-74.5 168,-74.5 168,-74.5 174,-74.5 180,-80.5 180,-86.5 180,-86.5 180,-98.5 180,-98.5 180,-104.5 174,-110.5 168,-110.5"/>
<text text-anchor="middle" x="145" y="-90" font-family="sans" font-size="10.00">pastml_vis</text>
</g>
<!-- 2&#45;&gt;0 -->
<g id="edge2" class="edge">
<title>2&#45;&gt;0</title>
<path fill="none" stroke="grey" stroke-width="2" d="M180.22,-74.86C183.15,-73.79 186.11,-72.82 189,-72 317.9,-35.64 477.57,-23.99 548.74,-20.45"/>
<polygon fill="grey" stroke="grey" stroke-width="2" points="549.16,-23.94 558.99,-19.97 548.83,-16.94 549.16,-23.94"/>
</g>
<!-- 3 -->
<g id="node4" class="node">
<title>3</title>
<path fill="none" stroke="#56d88a" stroke-width="2" d="M256,-110.5C256,-110.5 210,-110.5 210,-110.5 204,-110.5 198,-104.5 198,-98.5 198,-98.5 198,-86.5 198,-86.5 198,-80.5 204,-74.5 210,-74.5 210,-74.5 256,-74.5 256,-74.5 262,-74.5 268,-80.5 268,-86.5 268,-86.5 268,-98.5 268,-98.5 268,-104.5 262,-110.5 256,-110.5"/>
<text text-anchor="middle" x="233" y="-90" font-family="sans" font-size="10.00">pastml_vis</text>
</g>
<!-- 3&#45;&gt;0 -->
<g id="edge3" class="edge">
<title>3&#45;&gt;0</title>
<path fill="none" stroke="grey" stroke-width="2" d="M268.26,-74.98C271.18,-73.88 274.12,-72.87 277,-72 372.4,-43.17 489.41,-28.46 548.31,-22.43"/>
<polygon fill="grey" stroke="grey" stroke-width="2" points="549.01,-25.88 558.61,-21.4 548.32,-18.91 549.01,-25.88"/>
</g>
<!-- 4 -->
<g id="node5" class="node">
<title>4</title>
<path fill="none" stroke="#d8bc56" stroke-width="2" d="M369.5,-110.5C369.5,-110.5 298.5,-110.5 298.5,-110.5 292.5,-110.5 286.5,-104.5 286.5,-98.5 286.5,-98.5 286.5,-86.5 286.5,-86.5 286.5,-80.5 292.5,-74.5 298.5,-74.5 298.5,-74.5 369.5,-74.5 369.5,-74.5 375.5,-74.5 381.5,-80.5 381.5,-86.5 381.5,-86.5 381.5,-98.5 381.5,-98.5 381.5,-104.5 375.5,-110.5 369.5,-110.5"/>
<text text-anchor="middle" x="334" y="-90" font-family="sans" font-size="10.00">pastml_vis_tree</text>
</g>
<!-- 4&#45;&gt;0 -->
<g id="edge4" class="edge">
<title>4&#45;&gt;0</title>
<path fill="none" stroke="grey" stroke-width="2" d="M381.51,-74.99C384.72,-73.96 387.9,-72.95 391,-72 445.61,-55.26 509.64,-38.37 549.01,-28.3"/>
<polygon fill="grey" stroke="grey" stroke-width="2" points="549.89,-31.69 558.71,-25.83 548.16,-24.9 549.89,-31.69"/>
</g>
<!-- 5 -->
<g id="node6" class="node">
<title>5</title>
<path fill="none" stroke="#56d88a" stroke-width="2" d="M458,-110.5C458,-110.5 412,-110.5 412,-110.5 406,-110.5 400,-104.5 400,-98.5 400,-98.5 400,-86.5 400,-86.5 400,-80.5 406,-74.5 412,-74.5 412,-74.5 458,-74.5 458,-74.5 464,-74.5 470,-80.5 470,-86.5 470,-86.5 470,-98.5 470,-98.5 470,-104.5 464,-110.5 458,-110.5"/>
<text text-anchor="middle" x="435" y="-90" font-family="sans" font-size="10.00">pastml_vis</text>
</g>
<!-- 5&#45;&gt;0 -->
<g id="edge5" class="edge">
<title>5&#45;&gt;0</title>
<path fill="none" stroke="grey" stroke-width="2" d="M470.02,-74.68C493.87,-63.24 525.35,-48.12 549.5,-36.52"/>
<polygon fill="grey" stroke="grey" stroke-width="2" points="551.2,-39.59 558.7,-32.11 548.17,-33.28 551.2,-39.59"/>
</g>
<!-- 6 -->
<g id="node7" class="node">
<title>6</title>
<path fill="none" stroke="#d8bc56" stroke-width="2" d="M571.5,-110.5C571.5,-110.5 500.5,-110.5 500.5,-110.5 494.5,-110.5 488.5,-104.5 488.5,-98.5 488.5,-98.5 488.5,-86.5 488.5,-86.5 488.5,-80.5 494.5,-74.5 500.5,-74.5 500.5,-74.5 571.5,-74.5 571.5,-74.5 577.5,-74.5 583.5,-80.5 583.5,-86.5 583.5,-86.5 583.5,-98.5 583.5,-98.5 583.5,-104.5 577.5,-110.5 571.5,-110.5"/>
<text text-anchor="middle" x="536" y="-90" font-family="sans" font-size="10.00">pastml_vis_tree</text>
</g>
<!-- 6&#45;&gt;0 -->
<g id="edge6" class="edge">
<title>6&#45;&gt;0</title>
<path fill="none" stroke="grey" stroke-width="2" d="M547.85,-74.32C554.01,-65.38 561.67,-54.28 568.5,-44.37"/>
<polygon fill="grey" stroke="grey" stroke-width="2" points="571.44,-46.28 574.24,-36.06 565.68,-42.3 571.44,-46.28"/>
</g>
<!-- 7 -->
<g id="node8" class="node">
<title>7</title>
<path fill="none" stroke="#56d88a" stroke-width="2" d="M660,-110.5C660,-110.5 614,-110.5 614,-110.5 608,-110.5 602,-104.5 602,-98.5 602,-98.5 602,-86.5 602,-86.5 602,-80.5 608,-74.5 614,-74.5 614,-74.5 660,-74.5 660,-74.5 666,-74.5 672,-80.5 672,-86.5 672,-86.5 672,-98.5 672,-98.5 672,-104.5 666,-110.5 660,-110.5"/>
<text text-anchor="middle" x="637" y="-90" font-family="sans" font-size="10.00">pastml_vis</text>
</g>
<!-- 7&#45;&gt;0 -->
<g id="edge7" class="edge">
<title>7&#45;&gt;0</title>
<path fill="none" stroke="grey" stroke-width="2" d="M624.91,-74.32C618.63,-65.38 610.82,-54.28 603.85,-44.37"/>
<polygon fill="grey" stroke="grey" stroke-width="2" points="606.62,-42.22 598,-36.06 600.89,-46.25 606.62,-42.22"/>
</g>
<!-- 8 -->
<g id="node9" class="node">
<title>8</title>
<path fill="none" stroke="#d8bc56" stroke-width="2" d="M773.5,-110.5C773.5,-110.5 702.5,-110.5 702.5,-110.5 696.5,-110.5 690.5,-104.5 690.5,-98.5 690.5,-98.5 690.5,-86.5 690.5,-86.5 690.5,-80.5 696.5,-74.5 702.5,-74.5 702.5,-74.5 773.5,-74.5 773.5,-74.5 779.5,-74.5 785.5,-80.5 785.5,-86.5 785.5,-86.5 785.5,-98.5 785.5,-98.5 785.5,-104.5 779.5,-110.5 773.5,-110.5"/>
<text text-anchor="middle" x="738" y="-90" font-family="sans" font-size="10.00">pastml_vis_tree</text>
</g>
<!-- 8&#45;&gt;0 -->
<g id="edge8" class="edge">
<title>8&#45;&gt;0</title>
<path fill="none" stroke="grey" stroke-width="2" d="M701.98,-74.32C677.95,-62.86 646.48,-47.85 622.38,-36.35"/>
<polygon fill="grey" stroke="grey" stroke-width="2" points="623.74,-33.12 613.2,-31.98 620.72,-39.44 623.74,-33.12"/>
</g>
<!-- 9 -->
<g id="node10" class="node">
<title>9</title>
<path fill="none" stroke="#56d88a" stroke-width="2" d="M862,-110.5C862,-110.5 816,-110.5 816,-110.5 810,-110.5 804,-104.5 804,-98.5 804,-98.5 804,-86.5 804,-86.5 804,-80.5 810,-74.5 816,-74.5 816,-74.5 862,-74.5 862,-74.5 868,-74.5 874,-80.5 874,-86.5 874,-86.5 874,-98.5 874,-98.5 874,-104.5 868,-110.5 862,-110.5"/>
<text text-anchor="middle" x="839" y="-90" font-family="sans" font-size="10.00">pastml_vis</text>
</g>
<!-- 9&#45;&gt;0 -->
<g id="edge9" class="edge">
<title>9&#45;&gt;0</title>
<path fill="none" stroke="grey" stroke-width="2" d="M803.84,-75.63C800.54,-74.33 797.22,-73.1 794,-72 735.36,-51.97 665.14,-35.6 623.12,-26.58"/>
<polygon fill="grey" stroke="grey" stroke-width="2" points="623.84,-23.16 613.33,-24.51 622.38,-30 623.84,-23.16"/>
</g>
<!-- 10 -->
<g id="node11" class="node">
<title>10</title>
<path fill="none" stroke="#d8bc56" stroke-width="2" d="M975.5,-110.5C975.5,-110.5 904.5,-110.5 904.5,-110.5 898.5,-110.5 892.5,-104.5 892.5,-98.5 892.5,-98.5 892.5,-86.5 892.5,-86.5 892.5,-80.5 898.5,-74.5 904.5,-74.5 904.5,-74.5 975.5,-74.5 975.5,-74.5 981.5,-74.5 987.5,-80.5 987.5,-86.5 987.5,-86.5 987.5,-98.5 987.5,-98.5 987.5,-104.5 981.5,-110.5 975.5,-110.5"/>
<text text-anchor="middle" x="940" y="-90" font-family="sans" font-size="10.00">pastml_vis_tree</text>
</g>
<!-- 10&#45;&gt;0 -->
<g id="edge10" class="edge">
<title>10&#45;&gt;0</title>
<path fill="none" stroke="grey" stroke-width="2" d="M892.27,-74.58C889.15,-73.66 886.04,-72.79 883,-72 790.87,-48.17 679.91,-31.47 623.26,-23.78"/>
<polygon fill="grey" stroke="grey" stroke-width="2" points="623.7,-20.31 613.33,-22.45 622.77,-27.25 623.7,-20.31"/>
</g>
<!-- 11 -->
<g id="node12" class="node">
<title>11</title>
<path fill="none" stroke="#56d88a" stroke-width="2" d="M1082,-110.5C1082,-110.5 1036,-110.5 1036,-110.5 1030,-110.5 1024,-104.5 1024,-98.5 1024,-98.5 1024,-86.5 1024,-86.5 1024,-80.5 1030,-74.5 1036,-74.5 1036,-74.5 1082,-74.5 1082,-74.5 1088,-74.5 1094,-80.5 1094,-86.5 1094,-86.5 1094,-98.5 1094,-98.5 1094,-104.5 1088,-110.5 1082,-110.5"/>
<text text-anchor="middle" x="1059" y="-90" font-family="sans" font-size="10.00">pastml_vis</text>
</g>
<!-- 11&#45;&gt;0 -->
<g id="edge11" class="edge">
<title>11&#45;&gt;0</title>
<path fill="none" stroke="grey" stroke-width="2" d="M1023.96,-79.49C1014.93,-76.72 1005.17,-74 996,-72 860.31,-42.46 695.52,-27.3 623.13,-21.65"/>
<polygon fill="grey" stroke="grey" stroke-width="2" points="623.38,-18.16 613.14,-20.89 622.84,-25.14 623.38,-18.16"/>
</g>
<!-- 12 -->
<g id="node13" class="node">
<title>12</title>
<path fill="none" stroke="#d8bc56" stroke-width="2" d="M1204.5,-110.5C1204.5,-110.5 1133.5,-110.5 1133.5,-110.5 1127.5,-110.5 1121.5,-104.5 1121.5,-98.5 1121.5,-98.5 1121.5,-86.5 1121.5,-86.5 1121.5,-80.5 1127.5,-74.5 1133.5,-74.5 1133.5,-74.5 1204.5,-74.5 1204.5,-74.5 1210.5,-74.5 1216.5,-80.5 1216.5,-86.5 1216.5,-86.5 1216.5,-98.5 1216.5,-98.5 1216.5,-104.5 1210.5,-110.5 1204.5,-110.5"/>
<text text-anchor="middle" x="1169" y="-90" font-family="sans" font-size="10.00">pastml_vis_tree</text>
</g>
<!-- 12&#45;&gt;0 -->
<g id="edge12" class="edge">
<title>12&#45;&gt;0</title>
<path fill="none" stroke="grey" stroke-width="2" d="M1121.32,-76.28C1115.19,-74.66 1108.98,-73.18 1103,-72 925.4,-36.97 708.63,-24.3 623.17,-20.45"/>
<polygon fill="grey" stroke="grey" stroke-width="2" points="623.32,-16.95 613.17,-20.01 623.01,-23.95 623.32,-16.95"/>
</g>
<!-- 13 -->
<g id="node14" class="node">
<title>13</title>
<path fill="none" stroke="#d85656" stroke-width="2" d="M82,-212C82,-212 14,-212 14,-212 8,-212 2,-206 2,-200 2,-200 2,-161 2,-161 2,-155 8,-149 14,-149 14,-149 82,-149 82,-149 88,-149 94,-155 94,-161 94,-161 94,-200 94,-200 94,-206 88,-212 82,-212"/>
<text text-anchor="middle" x="48" y="-200" font-family="sans" font-size="10.00">pastml_col</text>
<text text-anchor="middle" x="48" y="-189" font-family="sans" font-size="10.00">col: country</text>
<text text-anchor="middle" x="48" y="-178" font-family="sans" font-size="10.00">date: 20200425</text>
<text text-anchor="middle" x="48" y="-167" font-family="sans" font-size="10.00">dating: lsd2</text>
<text text-anchor="middle" x="48" y="-156" font-family="sans" font-size="10.00">tree: raxfast</text>
</g>
<!-- 13&#45;&gt;2 -->
<g id="edge13" class="edge">
<title>13&#45;&gt;2</title>
<path fill="none" stroke="grey" stroke-width="2" d="M82.47,-148.94C94.13,-138.6 106.97,-127.22 117.96,-117.47"/>
<polygon fill="grey" stroke="grey" stroke-width="2" points="120.44,-119.95 125.6,-110.7 115.79,-114.72 120.44,-119.95"/>
</g>
<!-- 14 -->
<g id="node15" class="node">
<title>14</title>
<path fill="none" stroke="#d85656" stroke-width="2" d="M321.5,-212C321.5,-212 124.5,-212 124.5,-212 118.5,-212 112.5,-206 112.5,-200 112.5,-200 112.5,-161 112.5,-161 112.5,-155 118.5,-149 124.5,-149 124.5,-149 321.5,-149 321.5,-149 327.5,-149 333.5,-155 333.5,-161 333.5,-161 333.5,-200 333.5,-200 333.5,-206 327.5,-212 321.5,-212"/>
<text text-anchor="middle" x="223" y="-200" font-family="sans" font-size="10.00">pastml_col</text>
<text text-anchor="middle" x="223" y="-189" font-family="sans" font-size="10.00">col: country</text>
<text text-anchor="middle" x="223" y="-178" font-family="sans" font-size="10.00">date: 20200425</text>
<text text-anchor="middle" x="223" y="-167" font-family="sans" font-size="10.00">dating: lsd2</text>
<text text-anchor="middle" x="223" y="-156" font-family="sans" font-size="10.00">tree: raxfast_subsampled_phylogenetic_0</text>
</g>
<!-- 14&#45;&gt;3 -->
<g id="edge14" class="edge">
<title>14&#45;&gt;3</title>
<path fill="none" stroke="grey" stroke-width="2" d="M226.55,-148.94C227.61,-139.88 228.75,-130.01 229.79,-121.14"/>
<polygon fill="grey" stroke="grey" stroke-width="2" points="233.29,-121.29 230.97,-110.95 226.34,-120.48 233.29,-121.29"/>
</g>
<!-- 14&#45;&gt;4 -->
<g id="edge15" class="edge">
<title>14&#45;&gt;4</title>
<path fill="none" stroke="grey" stroke-width="2" d="M262.45,-148.94C276.04,-138.4 291.05,-126.78 303.79,-116.91"/>
<polygon fill="grey" stroke="grey" stroke-width="2" points="306.04,-119.59 311.8,-110.7 301.75,-114.06 306.04,-119.59"/>
</g>
<!-- 15 -->
<g id="node16" class="node">
<title>15</title>
<path fill="none" stroke="#d85656" stroke-width="2" d="M560.5,-212C560.5,-212 363.5,-212 363.5,-212 357.5,-212 351.5,-206 351.5,-200 351.5,-200 351.5,-161 351.5,-161 351.5,-155 357.5,-149 363.5,-149 363.5,-149 560.5,-149 560.5,-149 566.5,-149 572.5,-155 572.5,-161 572.5,-161 572.5,-200 572.5,-200 572.5,-206 566.5,-212 560.5,-212"/>
<text text-anchor="middle" x="462" y="-200" font-family="sans" font-size="10.00">pastml_col</text>
<text text-anchor="middle" x="462" y="-189" font-family="sans" font-size="10.00">col: country</text>
<text text-anchor="middle" x="462" y="-178" font-family="sans" font-size="10.00">date: 20200425</text>
<text text-anchor="middle" x="462" y="-167" font-family="sans" font-size="10.00">dating: lsd2</text>
<text text-anchor="middle" x="462" y="-156" font-family="sans" font-size="10.00">tree: raxfast_subsampled_phylogenetic_1</text>
</g>
<!-- 15&#45;&gt;5 -->
<g id="edge16" class="edge">
<title>15&#45;&gt;5</title>
<path fill="none" stroke="grey" stroke-width="2" d="M452.4,-148.94C449.5,-139.68 446.33,-129.57 443.5,-120.56"/>
<polygon fill="grey" stroke="grey" stroke-width="2" points="446.81,-119.44 440.48,-110.95 440.13,-121.54 446.81,-119.44"/>
</g>
<!-- 15&#45;&gt;6 -->
<g id="edge17" class="edge">
<title>15&#45;&gt;6</title>
<path fill="none" stroke="grey" stroke-width="2" d="M488.3,-148.94C496.87,-138.98 506.27,-128.05 514.45,-118.54"/>
<polygon fill="grey" stroke="grey" stroke-width="2" points="517.12,-120.81 520.99,-110.95 511.81,-116.25 517.12,-120.81"/>
</g>
<!-- 16 -->
<g id="node17" class="node">
<title>16</title>
<path fill="none" stroke="#d85656" stroke-width="2" d="M799.5,-212C799.5,-212 602.5,-212 602.5,-212 596.5,-212 590.5,-206 590.5,-200 590.5,-200 590.5,-161 590.5,-161 590.5,-155 596.5,-149 602.5,-149 602.5,-149 799.5,-149 799.5,-149 805.5,-149 811.5,-155 811.5,-161 811.5,-161 811.5,-200 811.5,-200 811.5,-206 805.5,-212 799.5,-212"/>
<text text-anchor="middle" x="701" y="-200" font-family="sans" font-size="10.00">pastml_col</text>
<text text-anchor="middle" x="701" y="-189" font-family="sans" font-size="10.00">col: country</text>
<text text-anchor="middle" x="701" y="-178" font-family="sans" font-size="10.00">date: 20200425</text>
<text text-anchor="middle" x="701" y="-167" font-family="sans" font-size="10.00">dating: lsd2</text>
<text text-anchor="middle" x="701" y="-156" font-family="sans" font-size="10.00">tree: raxfast_subsampled_phylogenetic_2</text>
</g>
<!-- 16&#45;&gt;7 -->
<g id="edge18" class="edge">
<title>16&#45;&gt;7</title>
<path fill="none" stroke="grey" stroke-width="2" d="M678.26,-148.94C670.99,-139.18 663.04,-128.49 656.06,-119.12"/>
<polygon fill="grey" stroke="grey" stroke-width="2" points="658.76,-116.88 649.99,-110.95 653.15,-121.06 658.76,-116.88"/>
</g>
<!-- 16&#45;&gt;8 -->
<g id="edge19" class="edge">
<title>16&#45;&gt;8</title>
<path fill="none" stroke="grey" stroke-width="2" d="M714.15,-148.94C718.18,-139.58 722.57,-129.36 726.48,-120.27"/>
<polygon fill="grey" stroke="grey" stroke-width="2" points="729.76,-121.52 730.49,-110.95 723.33,-118.75 729.76,-121.52"/>
</g>
<!-- 17 -->
<g id="node18" class="node">
<title>17</title>
<path fill="none" stroke="#d85656" stroke-width="2" d="M1038.5,-212C1038.5,-212 841.5,-212 841.5,-212 835.5,-212 829.5,-206 829.5,-200 829.5,-200 829.5,-161 829.5,-161 829.5,-155 835.5,-149 841.5,-149 841.5,-149 1038.5,-149 1038.5,-149 1044.5,-149 1050.5,-155 1050.5,-161 1050.5,-161 1050.5,-200 1050.5,-200 1050.5,-206 1044.5,-212 1038.5,-212"/>
<text text-anchor="middle" x="940" y="-200" font-family="sans" font-size="10.00">pastml_col</text>
<text text-anchor="middle" x="940" y="-189" font-family="sans" font-size="10.00">col: country</text>
<text text-anchor="middle" x="940" y="-178" font-family="sans" font-size="10.00">date: 20200425</text>
<text text-anchor="middle" x="940" y="-167" font-family="sans" font-size="10.00">dating: lsd2</text>
<text text-anchor="middle" x="940" y="-156" font-family="sans" font-size="10.00">tree: raxfast_subsampled_phylogenetic_3</text>
</g>
<!-- 17&#45;&gt;9 -->
<g id="edge20" class="edge">
<title>17&#45;&gt;9</title>
<path fill="none" stroke="grey" stroke-width="2" d="M904.11,-148.94C891.85,-138.5 878.34,-127 866.82,-117.19"/>
<polygon fill="grey" stroke="grey" stroke-width="2" points="869.08,-114.52 859.2,-110.7 864.55,-119.85 869.08,-114.52"/>
</g>
<!-- 17&#45;&gt;10 -->
<g id="edge21" class="edge">
<title>17&#45;&gt;10</title>
<path fill="none" stroke="grey" stroke-width="2" d="M940,-148.94C940,-139.88 940,-130.01 940,-121.14"/>
<polygon fill="grey" stroke="grey" stroke-width="2" points="943.5,-120.95 940,-110.95 936.5,-120.95 943.5,-120.95"/>
</g>
<!-- 18 -->
<g id="node19" class="node">
<title>18</title>
<path fill="none" stroke="#d85656" stroke-width="2" d="M1277.5,-212C1277.5,-212 1080.5,-212 1080.5,-212 1074.5,-212 1068.5,-206 1068.5,-200 1068.5,-200 1068.5,-161 1068.5,-161 1068.5,-155 1074.5,-149 1080.5,-149 1080.5,-149 1277.5,-149 1277.5,-149 1283.5,-149 1289.5,-155 1289.5,-161 1289.5,-161 1289.5,-200 1289.5,-200 1289.5,-206 1283.5,-212 1277.5,-212"/>
<text text-anchor="middle" x="1179" y="-200" font-family="sans" font-size="10.00">pastml_col</text>
<text text-anchor="middle" x="1179" y="-189" font-family="sans" font-size="10.00">col: country</text>
<text text-anchor="middle" x="1179" y="-178" font-family="sans" font-size="10.00">date: 20200425</text>
<text text-anchor="middle" x="1179" y="-167" font-family="sans" font-size="10.00">dating: lsd2</text>
<text text-anchor="middle" x="1179" y="-156" font-family="sans" font-size="10.00">tree: raxfast_subsampled_phylogenetic_4</text>
</g>
<!-- 18&#45;&gt;11 -->
<g id="edge22" class="edge">
<title>18&#45;&gt;11</title>
<path fill="none" stroke="grey" stroke-width="2" d="M1136.35,-148.94C1121.52,-138.3 1105.13,-126.56 1091.27,-116.63"/>
<polygon fill="grey" stroke="grey" stroke-width="2" points="1093.17,-113.68 1083,-110.7 1089.09,-119.37 1093.17,-113.68"/>
</g>
<!-- 18&#45;&gt;12 -->
<g id="edge23" class="edge">
<title>18&#45;&gt;12</title>
<path fill="none" stroke="grey" stroke-width="2" d="M1175.45,-148.94C1174.39,-139.88 1173.25,-130.01 1172.21,-121.14"/>
<polygon fill="grey" stroke="grey" stroke-width="2" points="1175.66,-120.48 1171.03,-110.95 1168.71,-121.29 1175.66,-120.48"/>
</g>
</g>
</svg>
