<?xml version="1.0" encoding="UTF-8" standalone="no"?>
<!DOCTYPE svg PUBLIC "-//W3C//DTD SVG 1.1//EN"
 "http://www.w3.org/Graphics/SVG/1.1/DTD/svg11.dtd">
<!-- Generated by graphviz version 2.43.0 (0)
 -->
<!-- Title: snakemake_dag Pages: 1 -->
<svg width="378pt" height="841pt"
 viewBox="0.00 0.00 378.00 841.00" xmlns="http://www.w3.org/2000/svg" xmlns:xlink="http://www.w3.org/1999/xlink">
<g id="graph0" class="graph" transform="scale(1 1) rotate(0) translate(4 837)">
<title>snakemake_dag</title>
<polygon fill="white" stroke="transparent" points="-4,4 -4,-837 374,-837 374,4 -4,4"/>
<!-- 0 -->
<g id="node1" class="node">
<title>0</title>
<path fill="none" stroke="#59d856" stroke-width="2" stroke-dasharray="5,2" d="M195.5,-36C195.5,-36 165.5,-36 165.5,-36 159.5,-36 153.5,-30 153.5,-24 153.5,-24 153.5,-12 153.5,-12 153.5,-6 159.5,0 165.5,0 165.5,0 195.5,0 195.5,0 201.5,0 207.5,-6 207.5,-12 207.5,-12 207.5,-24 207.5,-24 207.5,-30 201.5,-36 195.5,-36"/>
<text text-anchor="middle" x="180.5" y="-15.5" font-family="sans" font-size="10.00">all</text>
</g>
<!-- 1 -->
<g id="node2" class="node">
<title>1</title>
<path fill="none" stroke="#d87d56" stroke-width="2" stroke-dasharray="5,2" d="M349,-108C349,-108 12,-108 12,-108 6,-108 0,-102 0,-96 0,-96 0,-84 0,-84 0,-78 6,-72 12,-72 12,-72 349,-72 349,-72 355,-72 361,-78 361,-84 361,-84 361,-96 361,-96 361,-102 355,-108 349,-108"/>
<text text-anchor="middle" x="180.5" y="-93" font-family="sans" font-size="10.00">upload_to_itol</text>
<text text-anchor="middle" x="180.5" y="-82" font-family="sans" font-size="10.00">tree: rooted_raxfast.duplicated.has_dates.collapsed.zscore.no_outliers</text>
</g>
<!-- 1&#45;&gt;0 -->
<g id="edge1" class="edge">
<title>1&#45;&gt;0</title>
<path fill="none" stroke="grey" stroke-width="2" d="M180.5,-71.7C180.5,-63.98 180.5,-54.71 180.5,-46.11"/>
<polygon fill="grey" stroke="grey" stroke-width="2" points="184,-46.1 180.5,-36.1 177,-46.1 184,-46.1"/>
</g>
<!-- 2 -->
<g id="node3" class="node">
<title>2</title>
<path fill="none" stroke="#56d8a2" stroke-width="2" stroke-dasharray="5,2" d="M206.5,-180C206.5,-180 154.5,-180 154.5,-180 148.5,-180 142.5,-174 142.5,-168 142.5,-168 142.5,-156 142.5,-156 142.5,-150 148.5,-144 154.5,-144 154.5,-144 206.5,-144 206.5,-144 212.5,-144 218.5,-150 218.5,-156 218.5,-156 218.5,-168 218.5,-168 218.5,-174 212.5,-180 206.5,-180"/>
<text text-anchor="middle" x="180.5" y="-165" font-family="sans" font-size="10.00">rm_outliers</text>
<text text-anchor="middle" x="180.5" y="-154" font-family="sans" font-size="10.00">type: zscore</text>
</g>
<!-- 2&#45;&gt;1 -->
<g id="edge2" class="edge">
<title>2&#45;&gt;1</title>
<path fill="none" stroke="grey" stroke-width="2" d="M180.5,-143.7C180.5,-135.98 180.5,-126.71 180.5,-118.11"/>
<polygon fill="grey" stroke="grey" stroke-width="2" points="184,-118.1 180.5,-108.1 177,-118.1 184,-118.1"/>
</g>
<!-- 3 -->
<g id="node4" class="node">
<title>3</title>
<path fill="none" stroke="#d85656" stroke-width="2" stroke-dasharray="5,2" d="M278.5,-324C278.5,-324 82.5,-324 82.5,-324 76.5,-324 70.5,-318 70.5,-312 70.5,-312 70.5,-300 70.5,-300 70.5,-294 76.5,-288 82.5,-288 82.5,-288 278.5,-288 278.5,-288 284.5,-288 290.5,-294 290.5,-300 290.5,-300 290.5,-312 290.5,-312 290.5,-318 284.5,-324 278.5,-324"/>
<text text-anchor="middle" x="180.5" y="-309" font-family="sans" font-size="10.00">collapse_non_informative_branches</text>
<text text-anchor="middle" x="180.5" y="-298" font-family="sans" font-size="10.00">tree: rooted_raxfast.duplicated.has_dates</text>
</g>
<!-- 3&#45;&gt;2 -->
<g id="edge3" class="edge">
<title>3&#45;&gt;2</title>
<path fill="none" stroke="grey" stroke-width="2" d="M156.75,-287.91C145.95,-278.65 134.3,-266.2 128.5,-252 122.45,-237.19 122.45,-230.81 128.5,-216 132.99,-205.02 140.97,-195.08 149.35,-186.86"/>
<polygon fill="grey" stroke="grey" stroke-width="2" points="151.74,-189.42 156.75,-180.09 147.01,-184.26 151.74,-189.42"/>
</g>
<!-- 4 -->
<g id="node5" class="node">
<title>4</title>
<path fill="none" stroke="#56d87b" stroke-width="2" stroke-dasharray="5,2" d="M358,-252C358,-252 149,-252 149,-252 143,-252 137,-246 137,-240 137,-240 137,-228 137,-228 137,-222 143,-216 149,-216 149,-216 358,-216 358,-216 364,-216 370,-222 370,-228 370,-228 370,-240 370,-240 370,-246 364,-252 358,-252"/>
<text text-anchor="middle" x="253.5" y="-237" font-family="sans" font-size="10.00">detect_outliers_z_score</text>
<text text-anchor="middle" x="253.5" y="-226" font-family="sans" font-size="10.00">tree: raxfast.duplicated.has_dates.collapsed</text>
</g>
<!-- 3&#45;&gt;4 -->
<g id="edge7" class="edge">
<title>3&#45;&gt;4</title>
<path fill="none" stroke="grey" stroke-width="2" d="M198.54,-287.7C207.56,-279.05 218.62,-268.45 228.44,-259.03"/>
<polygon fill="grey" stroke="grey" stroke-width="2" points="230.87,-261.55 235.66,-252.1 226.02,-256.5 230.87,-261.55"/>
</g>
<!-- 4&#45;&gt;2 -->
<g id="edge4" class="edge">
<title>4&#45;&gt;2</title>
<path fill="none" stroke="grey" stroke-width="2" d="M235.46,-215.7C226.44,-207.05 215.38,-196.45 205.56,-187.03"/>
<polygon fill="grey" stroke="grey" stroke-width="2" points="207.98,-184.5 198.34,-180.1 203.13,-189.55 207.98,-184.5"/>
</g>
<!-- 5 -->
<g id="node6" class="node">
<title>5</title>
<path fill="none" stroke="#d8a456" stroke-width="2" stroke-dasharray="5,2" d="M308,-396C308,-396 165,-396 165,-396 159,-396 153,-390 153,-384 153,-384 153,-372 153,-372 153,-366 159,-360 165,-360 165,-360 308,-360 308,-360 314,-360 320,-366 320,-372 320,-372 320,-384 320,-384 320,-390 314,-396 308,-396"/>
<text text-anchor="middle" x="236.5" y="-381" font-family="sans" font-size="10.00">prune_sequences_wo_dates</text>
<text text-anchor="middle" x="236.5" y="-370" font-family="sans" font-size="10.00">tree: rooted_raxfast.duplicated</text>
</g>
<!-- 5&#45;&gt;3 -->
<g id="edge5" class="edge">
<title>5&#45;&gt;3</title>
<path fill="none" stroke="grey" stroke-width="2" d="M222.66,-359.7C216.01,-351.39 207.92,-341.28 200.61,-332.14"/>
<polygon fill="grey" stroke="grey" stroke-width="2" points="203.16,-329.73 194.18,-324.1 197.7,-334.1 203.16,-329.73"/>
</g>
<!-- 6 -->
<g id="node7" class="node">
<title>6</title>
<path fill="none" stroke="#c6d856" stroke-width="2" stroke-dasharray="5,2" d="M169.5,-689C169.5,-689 101.5,-689 101.5,-689 95.5,-689 89.5,-683 89.5,-677 89.5,-677 89.5,-660 89.5,-660 89.5,-654 95.5,-648 101.5,-648 101.5,-648 169.5,-648 169.5,-648 175.5,-648 181.5,-654 181.5,-660 181.5,-660 181.5,-677 181.5,-677 181.5,-683 175.5,-689 169.5,-689"/>
<text text-anchor="middle" x="135.5" y="-677" font-family="sans" font-size="10.00">aln_length</text>
<text text-anchor="middle" x="135.5" y="-666" font-family="sans" font-size="10.00">aln: aln</text>
<text text-anchor="middle" x="135.5" y="-655" font-family="sans" font-size="10.00">date: 20200425</text>
</g>
<!-- 6&#45;&gt;3 -->
<g id="edge6" class="edge">
<title>6&#45;&gt;3</title>
<path fill="none" stroke="grey" stroke-width="2" d="M133.28,-647.9C130.33,-620.14 125.5,-567.76 125.5,-523 125.5,-523 125.5,-523 125.5,-449 125.5,-408.55 128.62,-397.2 144.5,-360 148.58,-350.43 154.49,-340.78 160.34,-332.39"/>
<polygon fill="grey" stroke="grey" stroke-width="2" points="163.28,-334.29 166.34,-324.15 157.62,-330.17 163.28,-334.29"/>
</g>
<!-- 9 -->
<g id="node10" class="node">
<title>9</title>
<path fill="none" stroke="#56a2d8" stroke-width="2" stroke-dasharray="5,2" d="M246.5,-612C246.5,-612 216.5,-612 216.5,-612 210.5,-612 204.5,-606 204.5,-600 204.5,-600 204.5,-588 204.5,-588 204.5,-582 210.5,-576 216.5,-576 216.5,-576 246.5,-576 246.5,-576 252.5,-576 258.5,-582 258.5,-588 258.5,-588 258.5,-600 258.5,-600 258.5,-606 252.5,-612 246.5,-612"/>
<text text-anchor="middle" x="231.5" y="-591.5" font-family="sans" font-size="10.00">raxfast</text>
</g>
<!-- 6&#45;&gt;9 -->
<g id="edge11" class="edge">
<title>6&#45;&gt;9</title>
<path fill="none" stroke="grey" stroke-width="2" d="M161.48,-647.88C173.6,-638.73 188.1,-627.77 200.76,-618.21"/>
<polygon fill="grey" stroke="grey" stroke-width="2" points="202.9,-620.99 208.77,-612.17 198.68,-615.4 202.9,-620.99"/>
</g>
<!-- 7 -->
<g id="node8" class="node">
<title>7</title>
<path fill="none" stroke="#d8c356" stroke-width="2" stroke-dasharray="5,2" d="M279,-468C279,-468 190,-468 190,-468 184,-468 178,-462 178,-456 178,-456 178,-444 178,-444 178,-438 184,-432 190,-432 190,-432 279,-432 279,-432 285,-432 291,-438 291,-444 291,-444 291,-456 291,-456 291,-462 285,-468 279,-468"/>
<text text-anchor="middle" x="234.5" y="-453" font-family="sans" font-size="10.00">repopulate</text>
<text text-anchor="middle" x="234.5" y="-442" font-family="sans" font-size="10.00">tree: rooted_raxfast</text>
</g>
<!-- 7&#45;&gt;5 -->
<g id="edge8" class="edge">
<title>7&#45;&gt;5</title>
<path fill="none" stroke="grey" stroke-width="2" d="M234.99,-431.7C235.21,-423.98 235.48,-414.71 235.73,-406.11"/>
<polygon fill="grey" stroke="grey" stroke-width="2" points="239.22,-406.2 236.01,-396.1 232.23,-406 239.22,-406.2"/>
</g>
<!-- 8 -->
<g id="node9" class="node">
<title>8</title>
<path fill="none" stroke="#56d8c9" stroke-width="2" stroke-dasharray="5,2" d="M260,-540C260,-540 207,-540 207,-540 201,-540 195,-534 195,-528 195,-528 195,-516 195,-516 195,-510 201,-504 207,-504 207,-504 260,-504 260,-504 266,-504 272,-510 272,-516 272,-516 272,-528 272,-528 272,-534 266,-540 260,-540"/>
<text text-anchor="middle" x="233.5" y="-525" font-family="sans" font-size="10.00">root</text>
<text text-anchor="middle" x="233.5" y="-514" font-family="sans" font-size="10.00">tree: raxfast</text>
</g>
<!-- 8&#45;&gt;7 -->
<g id="edge9" class="edge">
<title>8&#45;&gt;7</title>
<path fill="none" stroke="grey" stroke-width="2" d="M233.75,-503.7C233.86,-495.98 233.99,-486.71 234.11,-478.11"/>
<polygon fill="grey" stroke="grey" stroke-width="2" points="237.61,-478.15 234.26,-468.1 230.61,-478.05 237.61,-478.15"/>
</g>
<!-- 9&#45;&gt;8 -->
<g id="edge10" class="edge">
<title>9&#45;&gt;8</title>
<path fill="none" stroke="grey" stroke-width="2" d="M231.99,-575.7C232.21,-567.98 232.48,-558.71 232.73,-550.11"/>
<polygon fill="grey" stroke="grey" stroke-width="2" points="236.22,-550.2 233.01,-540.1 229.23,-550 236.22,-550.2"/>
</g>
<!-- 10 -->
<g id="node11" class="node">
<title>10</title>
<path fill="none" stroke="#78d856" stroke-width="2" stroke-dasharray="5,2" d="M246.5,-686.5C246.5,-686.5 216.5,-686.5 216.5,-686.5 210.5,-686.5 204.5,-680.5 204.5,-674.5 204.5,-674.5 204.5,-662.5 204.5,-662.5 204.5,-656.5 210.5,-650.5 216.5,-650.5 216.5,-650.5 246.5,-650.5 246.5,-650.5 252.5,-650.5 258.5,-656.5 258.5,-662.5 258.5,-662.5 258.5,-674.5 258.5,-674.5 258.5,-680.5 252.5,-686.5 246.5,-686.5"/>
<text text-anchor="middle" x="231.5" y="-666" font-family="sans" font-size="10.00">rescale</text>
</g>
<!-- 10&#45;&gt;9 -->
<g id="edge12" class="edge">
<title>10&#45;&gt;9</title>
<path fill="none" stroke="grey" stroke-width="2" d="M231.5,-650.32C231.5,-641.92 231.5,-631.62 231.5,-622.19"/>
<polygon fill="grey" stroke="grey" stroke-width="2" points="235,-622.06 231.5,-612.06 228,-622.06 235,-622.06"/>
</g>
<!-- 11 -->
<g id="node12" class="node">
<title>11</title>
<path fill="none" stroke="#9fd856" stroke-width="2" stroke-dasharray="5,2" d="M273.5,-761C273.5,-761 243.5,-761 243.5,-761 237.5,-761 231.5,-755 231.5,-749 231.5,-749 231.5,-737 231.5,-737 231.5,-731 237.5,-725 243.5,-725 243.5,-725 273.5,-725 273.5,-725 279.5,-725 285.5,-731 285.5,-737 285.5,-737 285.5,-749 285.5,-749 285.5,-755 279.5,-761 273.5,-761"/>
<text text-anchor="middle" x="258.5" y="-740.5" font-family="sans" font-size="10.00">fastme</text>
</g>
<!-- 11&#45;&gt;10 -->
<g id="edge13" class="edge">
<title>11&#45;&gt;10</title>
<path fill="none" stroke="grey" stroke-width="2" d="M252.1,-724.82C248.91,-716.24 244.97,-705.67 241.4,-696.08"/>
<polygon fill="grey" stroke="grey" stroke-width="2" points="244.62,-694.71 237.85,-686.56 238.06,-697.15 244.62,-694.71"/>
</g>
<!-- 12 -->
<g id="node13" class="node">
<title>12</title>
<path fill="none" stroke="#56c9d8" stroke-width="2" stroke-dasharray="5,2" d="M264.5,-833C264.5,-833 196.5,-833 196.5,-833 190.5,-833 184.5,-827 184.5,-821 184.5,-821 184.5,-809 184.5,-809 184.5,-803 190.5,-797 196.5,-797 196.5,-797 264.5,-797 264.5,-797 270.5,-797 276.5,-803 276.5,-809 276.5,-809 276.5,-821 276.5,-821 276.5,-827 270.5,-833 264.5,-833"/>
<text text-anchor="middle" x="230.5" y="-818" font-family="sans" font-size="10.00">dist_matrix</text>
<text text-anchor="middle" x="230.5" y="-807" font-family="sans" font-size="10.00">date: 20200425</text>
</g>
<!-- 12&#45;&gt;10 -->
<g id="edge14" class="edge">
<title>12&#45;&gt;10</title>
<path fill="none" stroke="grey" stroke-width="2" d="M227.25,-796.89C225.45,-786.54 223.41,-773.06 222.5,-761 221.3,-745.04 221.22,-740.95 222.5,-725 223.24,-715.77 224.67,-705.76 226.18,-696.81"/>
<polygon fill="grey" stroke="grey" stroke-width="2" points="229.63,-697.37 227.94,-686.91 222.74,-696.14 229.63,-697.37"/>
</g>
<!-- 12&#45;&gt;11 -->
<g id="edge15" class="edge">
<title>12&#45;&gt;11</title>
<path fill="none" stroke="grey" stroke-width="2" d="M237.42,-796.7C240.57,-788.81 244.38,-779.3 247.88,-770.55"/>
<polygon fill="grey" stroke="grey" stroke-width="2" points="251.19,-771.69 251.66,-761.1 244.69,-769.09 251.19,-771.69"/>
</g>
</g>
</svg>
