<?xml version="1.0" encoding="UTF-8" standalone="no"?>
<!DOCTYPE svg PUBLIC "-//W3C//DTD SVG 1.1//EN"
 "http://www.w3.org/Graphics/SVG/1.1/DTD/svg11.dtd">
<!-- Generated by graphviz version 2.43.0 (0)
 -->
<!-- Title: snakemake_dag Pages: 1 -->
<svg width="308pt" height="769pt"
 viewBox="0.00 0.00 307.50 769.00" xmlns="http://www.w3.org/2000/svg" xmlns:xlink="http://www.w3.org/1999/xlink">
<g id="graph0" class="graph" transform="scale(1 1) rotate(0) translate(4 765)">
<title>snakemake_dag</title>
<polygon fill="white" stroke="transparent" points="-4,4 -4,-765 303.5,-765 303.5,4 -4,4"/>
<!-- 0 -->
<g id="node1" class="node">
<title>0</title>
<path fill="none" stroke="#56d8d8" stroke-width="2" d="M125,-36C125,-36 95,-36 95,-36 89,-36 83,-30 83,-24 83,-24 83,-12 83,-12 83,-6 89,0 95,0 95,0 125,0 125,0 131,0 137,-6 137,-12 137,-12 137,-24 137,-24 137,-30 131,-36 125,-36"/>
<text text-anchor="middle" x="110" y="-15.5" font-family="sans" font-size="10.00">all</text>
</g>
<!-- 1 -->
<g id="node2" class="node">
<title>1</title>
<path fill="none" stroke="#56d8a9" stroke-width="2" d="M136,-108C136,-108 84,-108 84,-108 78,-108 72,-102 72,-96 72,-96 72,-84 72,-84 72,-78 78,-72 84,-72 84,-72 136,-72 136,-72 142,-72 148,-78 148,-84 148,-84 148,-96 148,-96 148,-102 142,-108 136,-108"/>
<text text-anchor="middle" x="110" y="-93" font-family="sans" font-size="10.00">rm_outliers</text>
<text text-anchor="middle" x="110" y="-82" font-family="sans" font-size="10.00">type: zscore</text>
</g>
<!-- 1&#45;&gt;0 -->
<g id="edge1" class="edge">
<title>1&#45;&gt;0</title>
<path fill="none" stroke="grey" stroke-width="2" d="M110,-71.7C110,-63.98 110,-54.71 110,-46.11"/>
<polygon fill="grey" stroke="grey" stroke-width="2" points="113.5,-46.1 110,-36.1 106.5,-46.1 113.5,-46.1"/>
</g>
<!-- 2 -->
<g id="node3" class="node">
<title>2</title>
<path fill="none" stroke="#afd856" stroke-width="2" d="M208,-252C208,-252 12,-252 12,-252 6,-252 0,-246 0,-240 0,-240 0,-228 0,-228 0,-222 6,-216 12,-216 12,-216 208,-216 208,-216 214,-216 220,-222 220,-228 220,-228 220,-240 220,-240 220,-246 214,-252 208,-252"/>
<text text-anchor="middle" x="110" y="-237" font-family="sans" font-size="10.00">collapse_non_informative_branches</text>
<text text-anchor="middle" x="110" y="-226" font-family="sans" font-size="10.00">tree: rooted_raxfast.duplicated.has_dates</text>
</g>
<!-- 2&#45;&gt;1 -->
<g id="edge2" class="edge">
<title>2&#45;&gt;1</title>
<path fill="none" stroke="grey" stroke-width="2" d="M86.25,-215.91C75.45,-206.65 63.8,-194.2 58,-180 51.95,-165.19 51.95,-158.81 58,-144 62.49,-133.02 70.47,-123.08 78.85,-114.86"/>
<polygon fill="grey" stroke="grey" stroke-width="2" points="81.24,-117.42 86.25,-108.09 76.51,-112.26 81.24,-117.42"/>
</g>
<!-- 3 -->
<g id="node4" class="node">
<title>3</title>
<path fill="none" stroke="#56d882" stroke-width="2" d="M287.5,-180C287.5,-180 78.5,-180 78.5,-180 72.5,-180 66.5,-174 66.5,-168 66.5,-168 66.5,-156 66.5,-156 66.5,-150 72.5,-144 78.5,-144 78.5,-144 287.5,-144 287.5,-144 293.5,-144 299.5,-150 299.5,-156 299.5,-156 299.5,-168 299.5,-168 299.5,-174 293.5,-180 287.5,-180"/>
<text text-anchor="middle" x="183" y="-165" font-family="sans" font-size="10.00">detect_outliers_z_score</text>
<text text-anchor="middle" x="183" y="-154" font-family="sans" font-size="10.00">tree: raxfast.duplicated.has_dates.collapsed</text>
</g>
<!-- 2&#45;&gt;3 -->
<g id="edge6" class="edge">
<title>2&#45;&gt;3</title>
<path fill="none" stroke="grey" stroke-width="2" d="M128.04,-215.7C137.06,-207.05 148.12,-196.45 157.94,-187.03"/>
<polygon fill="grey" stroke="grey" stroke-width="2" points="160.37,-189.55 165.16,-180.1 155.52,-184.5 160.37,-189.55"/>
</g>
<!-- 3&#45;&gt;1 -->
<g id="edge3" class="edge">
<title>3&#45;&gt;1</title>
<path fill="none" stroke="grey" stroke-width="2" d="M164.96,-143.7C155.94,-135.05 144.88,-124.45 135.06,-115.03"/>
<polygon fill="grey" stroke="grey" stroke-width="2" points="137.48,-112.5 127.84,-108.1 132.63,-117.55 137.48,-112.5"/>
</g>
<!-- 4 -->
<g id="node5" class="node">
<title>4</title>
<path fill="none" stroke="#56a9d8" stroke-width="2" d="M237.5,-324C237.5,-324 94.5,-324 94.5,-324 88.5,-324 82.5,-318 82.5,-312 82.5,-312 82.5,-300 82.5,-300 82.5,-294 88.5,-288 94.5,-288 94.5,-288 237.5,-288 237.5,-288 243.5,-288 249.5,-294 249.5,-300 249.5,-300 249.5,-312 249.5,-312 249.5,-318 243.5,-324 237.5,-324"/>
<text text-anchor="middle" x="166" y="-309" font-family="sans" font-size="10.00">prune_sequences_wo_dates</text>
<text text-anchor="middle" x="166" y="-298" font-family="sans" font-size="10.00">tree: rooted_raxfast.duplicated</text>
</g>
<!-- 4&#45;&gt;2 -->
<g id="edge4" class="edge">
<title>4&#45;&gt;2</title>
<path fill="none" stroke="grey" stroke-width="2" d="M152.16,-287.7C145.51,-279.39 137.42,-269.28 130.11,-260.14"/>
<polygon fill="grey" stroke="grey" stroke-width="2" points="132.66,-257.73 123.68,-252.1 127.2,-262.1 132.66,-257.73"/>
</g>
<!-- 5 -->
<g id="node6" class="node">
<title>5</title>
<path fill="none" stroke="#d85656" stroke-width="2" d="M99,-617C99,-617 31,-617 31,-617 25,-617 19,-611 19,-605 19,-605 19,-588 19,-588 19,-582 25,-576 31,-576 31,-576 99,-576 99,-576 105,-576 111,-582 111,-588 111,-588 111,-605 111,-605 111,-611 105,-617 99,-617"/>
<text text-anchor="middle" x="65" y="-605" font-family="sans" font-size="10.00">aln_length</text>
<text text-anchor="middle" x="65" y="-594" font-family="sans" font-size="10.00">aln: aln</text>
<text text-anchor="middle" x="65" y="-583" font-family="sans" font-size="10.00">date: 20200425</text>
</g>
<!-- 5&#45;&gt;2 -->
<g id="edge5" class="edge">
<title>5&#45;&gt;2</title>
<path fill="none" stroke="grey" stroke-width="2" d="M62.78,-575.9C59.83,-548.14 55,-495.76 55,-451 55,-451 55,-451 55,-377 55,-336.55 58.12,-325.2 74,-288 78.08,-278.43 83.99,-268.78 89.84,-260.39"/>
<polygon fill="grey" stroke="grey" stroke-width="2" points="92.78,-262.29 95.84,-252.15 87.12,-258.17 92.78,-262.29"/>
</g>
<!-- 8 -->
<g id="node9" class="node">
<title>8</title>
<path fill="none" stroke="#80d856" stroke-width="2" d="M176,-540C176,-540 146,-540 146,-540 140,-540 134,-534 134,-528 134,-528 134,-516 134,-516 134,-510 140,-504 146,-504 146,-504 176,-504 176,-504 182,-504 188,-510 188,-516 188,-516 188,-528 188,-528 188,-534 182,-540 176,-540"/>
<text text-anchor="middle" x="161" y="-519.5" font-family="sans" font-size="10.00">raxfast</text>
</g>
<!-- 5&#45;&gt;8 -->
<g id="edge10" class="edge">
<title>5&#45;&gt;8</title>
<path fill="none" stroke="grey" stroke-width="2" d="M90.98,-575.88C103.1,-566.73 117.6,-555.77 130.26,-546.21"/>
<polygon fill="grey" stroke="grey" stroke-width="2" points="132.4,-548.99 138.27,-540.17 128.18,-543.4 132.4,-548.99"/>
</g>
<!-- 6 -->
<g id="node7" class="node">
<title>6</title>
<path fill="none" stroke="#d6d856" stroke-width="2" d="M208.5,-396C208.5,-396 119.5,-396 119.5,-396 113.5,-396 107.5,-390 107.5,-384 107.5,-384 107.5,-372 107.5,-372 107.5,-366 113.5,-360 119.5,-360 119.5,-360 208.5,-360 208.5,-360 214.5,-360 220.5,-366 220.5,-372 220.5,-372 220.5,-384 220.5,-384 220.5,-390 214.5,-396 208.5,-396"/>
<text text-anchor="middle" x="164" y="-381" font-family="sans" font-size="10.00">repopulate</text>
<text text-anchor="middle" x="164" y="-370" font-family="sans" font-size="10.00">tree: rooted_raxfast</text>
</g>
<!-- 6&#45;&gt;4 -->
<g id="edge7" class="edge">
<title>6&#45;&gt;4</title>
<path fill="none" stroke="grey" stroke-width="2" d="M164.49,-359.7C164.71,-351.98 164.98,-342.71 165.23,-334.11"/>
<polygon fill="grey" stroke="grey" stroke-width="2" points="168.72,-334.2 165.51,-324.1 161.73,-334 168.72,-334.2"/>
</g>
<!-- 7 -->
<g id="node8" class="node">
<title>7</title>
<path fill="none" stroke="#59d856" stroke-width="2" d="M189.5,-468C189.5,-468 136.5,-468 136.5,-468 130.5,-468 124.5,-462 124.5,-456 124.5,-456 124.5,-444 124.5,-444 124.5,-438 130.5,-432 136.5,-432 136.5,-432 189.5,-432 189.5,-432 195.5,-432 201.5,-438 201.5,-444 201.5,-444 201.5,-456 201.5,-456 201.5,-462 195.5,-468 189.5,-468"/>
<text text-anchor="middle" x="163" y="-453" font-family="sans" font-size="10.00">root</text>
<text text-anchor="middle" x="163" y="-442" font-family="sans" font-size="10.00">tree: raxfast</text>
</g>
<!-- 7&#45;&gt;6 -->
<g id="edge8" class="edge">
<title>7&#45;&gt;6</title>
<path fill="none" stroke="grey" stroke-width="2" d="M163.25,-431.7C163.36,-423.98 163.49,-414.71 163.61,-406.11"/>
<polygon fill="grey" stroke="grey" stroke-width="2" points="167.11,-406.15 163.76,-396.1 160.11,-406.05 167.11,-406.15"/>
</g>
<!-- 8&#45;&gt;7 -->
<g id="edge9" class="edge">
<title>8&#45;&gt;7</title>
<path fill="none" stroke="grey" stroke-width="2" d="M161.49,-503.7C161.71,-495.98 161.98,-486.71 162.23,-478.11"/>
<polygon fill="grey" stroke="grey" stroke-width="2" points="165.72,-478.2 162.51,-468.1 158.73,-478 165.72,-478.2"/>
</g>
<!-- 9 -->
<g id="node10" class="node">
<title>9</title>
<path fill="none" stroke="#d88556" stroke-width="2" d="M176,-614.5C176,-614.5 146,-614.5 146,-614.5 140,-614.5 134,-608.5 134,-602.5 134,-602.5 134,-590.5 134,-590.5 134,-584.5 140,-578.5 146,-578.5 146,-578.5 176,-578.5 176,-578.5 182,-578.5 188,-584.5 188,-590.5 188,-590.5 188,-602.5 188,-602.5 188,-608.5 182,-614.5 176,-614.5"/>
<text text-anchor="middle" x="161" y="-594" font-family="sans" font-size="10.00">rescale</text>
</g>
<!-- 9&#45;&gt;8 -->
<g id="edge11" class="edge">
<title>9&#45;&gt;8</title>
<path fill="none" stroke="grey" stroke-width="2" d="M161,-578.32C161,-569.92 161,-559.62 161,-550.19"/>
<polygon fill="grey" stroke="grey" stroke-width="2" points="164.5,-550.06 161,-540.06 157.5,-550.06 164.5,-550.06"/>
</g>
<!-- 10 -->
<g id="node11" class="node">
<title>10</title>
<path fill="none" stroke="#d8ac56" stroke-width="2" d="M203,-689C203,-689 173,-689 173,-689 167,-689 161,-683 161,-677 161,-677 161,-665 161,-665 161,-659 167,-653 173,-653 173,-653 203,-653 203,-653 209,-653 215,-659 215,-665 215,-665 215,-677 215,-677 215,-683 209,-689 203,-689"/>
<text text-anchor="middle" x="188" y="-668.5" font-family="sans" font-size="10.00">fastme</text>
</g>
<!-- 10&#45;&gt;9 -->
<g id="edge12" class="edge">
<title>10&#45;&gt;9</title>
<path fill="none" stroke="grey" stroke-width="2" d="M181.6,-652.82C178.41,-644.24 174.47,-633.67 170.9,-624.08"/>
<polygon fill="grey" stroke="grey" stroke-width="2" points="174.12,-622.71 167.35,-614.56 167.56,-625.15 174.12,-622.71"/>
</g>
<!-- 11 -->
<g id="node12" class="node">
<title>11</title>
<path fill="none" stroke="#5682d8" stroke-width="2" d="M194,-761C194,-761 126,-761 126,-761 120,-761 114,-755 114,-749 114,-749 114,-737 114,-737 114,-731 120,-725 126,-725 126,-725 194,-725 194,-725 200,-725 206,-731 206,-737 206,-737 206,-749 206,-749 206,-755 200,-761 194,-761"/>
<text text-anchor="middle" x="160" y="-746" font-family="sans" font-size="10.00">dist_matrix</text>
<text text-anchor="middle" x="160" y="-735" font-family="sans" font-size="10.00">date: 20200425</text>
</g>
<!-- 11&#45;&gt;9 -->
<g id="edge13" class="edge">
<title>11&#45;&gt;9</title>
<path fill="none" stroke="grey" stroke-width="2" d="M156.75,-724.89C154.95,-714.54 152.91,-701.06 152,-689 150.8,-673.04 150.72,-668.95 152,-653 152.74,-643.77 154.17,-633.76 155.68,-624.81"/>
<polygon fill="grey" stroke="grey" stroke-width="2" points="159.13,-625.37 157.44,-614.91 152.24,-624.14 159.13,-625.37"/>
</g>
<!-- 11&#45;&gt;10 -->
<g id="edge14" class="edge">
<title>11&#45;&gt;10</title>
<path fill="none" stroke="grey" stroke-width="2" d="M166.92,-724.7C170.07,-716.81 173.88,-707.3 177.38,-698.55"/>
<polygon fill="grey" stroke="grey" stroke-width="2" points="180.69,-699.69 181.16,-689.1 174.19,-697.09 180.69,-699.69"/>
</g>
</g>
</svg>
