<?xml version="1.0" encoding="UTF-8" standalone="no"?>
<!DOCTYPE svg PUBLIC "-//W3C//DTD SVG 1.1//EN"
 "http://www.w3.org/Graphics/SVG/1.1/DTD/svg11.dtd">
<!-- Generated by graphviz version 2.43.0 (0)
 -->
<!-- Title: snakemake_dag Pages: 1 -->
<svg width="369pt" height="348pt"
 viewBox="0.00 0.00 369.00 348.00" xmlns="http://www.w3.org/2000/svg" xmlns:xlink="http://www.w3.org/1999/xlink">
<g id="graph0" class="graph" transform="scale(1 1) rotate(0) translate(4 344)">
<title>snakemake_dag</title>
<polygon fill="white" stroke="transparent" points="-4,4 -4,-344 365,-344 365,4 -4,4"/>
<!-- 0 -->
<g id="node1" class="node">
<title>0</title>
<path fill="none" stroke="#56d88a" stroke-width="2" d="M195.5,-36C195.5,-36 165.5,-36 165.5,-36 159.5,-36 153.5,-30 153.5,-24 153.5,-24 153.5,-12 153.5,-12 153.5,-6 159.5,0 165.5,0 165.5,0 195.5,0 195.5,0 201.5,0 207.5,-6 207.5,-12 207.5,-12 207.5,-24 207.5,-24 207.5,-30 201.5,-36 195.5,-36"/>
<text text-anchor="middle" x="180.5" y="-15.5" font-family="sans" font-size="10.00">all</text>
</g>
<!-- 1 -->
<g id="node2" class="node">
<title>1</title>
<path fill="none" stroke="#88d856" stroke-width="2" d="M214.5,-108C214.5,-108 146.5,-108 146.5,-108 140.5,-108 134.5,-102 134.5,-96 134.5,-96 134.5,-84 134.5,-84 134.5,-78 140.5,-72 146.5,-72 146.5,-72 214.5,-72 214.5,-72 220.5,-72 226.5,-78 226.5,-84 226.5,-84 226.5,-96 226.5,-96 226.5,-102 220.5,-108 214.5,-108"/>
<text text-anchor="middle" x="180.5" y="-93" font-family="sans" font-size="10.00">upload_to_itol</text>
<text text-anchor="middle" x="180.5" y="-82" font-family="sans" font-size="10.00">type: timetrees</text>
</g>
<!-- 1&#45;&gt;0 -->
<g id="edge1" class="edge">
<title>1&#45;&gt;0</title>
<path fill="none" stroke="grey" stroke-width="2" d="M180.5,-71.7C180.5,-63.98 180.5,-54.71 180.5,-46.11"/>
<polygon fill="grey" stroke="grey" stroke-width="2" points="184,-46.1 180.5,-36.1 177,-46.1 184,-46.1"/>
</g>
<!-- 2 -->
<g id="node3" class="node">
<title>2</title>
<path fill="none" stroke="#56c1d8" stroke-width="2" d="M218.5,-180C218.5,-180 142.5,-180 142.5,-180 136.5,-180 130.5,-174 130.5,-168 130.5,-168 130.5,-156 130.5,-156 130.5,-150 136.5,-144 142.5,-144 142.5,-144 218.5,-144 218.5,-144 224.5,-144 230.5,-150 230.5,-156 230.5,-156 230.5,-168 230.5,-168 230.5,-174 224.5,-180 218.5,-180"/>
<text text-anchor="middle" x="180.5" y="-165" font-family="sans" font-size="10.00">nex2nwk</text>
<text text-anchor="middle" x="180.5" y="-154" font-family="sans" font-size="10.00">tree: raxfast.lsd2</text>
</g>
<!-- 2&#45;&gt;1 -->
<g id="edge2" class="edge">
<title>2&#45;&gt;1</title>
<path fill="none" stroke="grey" stroke-width="2" d="M180.5,-143.7C180.5,-135.98 180.5,-126.71 180.5,-118.11"/>
<polygon fill="grey" stroke="grey" stroke-width="2" points="184,-118.1 180.5,-108.1 177,-118.1 184,-118.1"/>
</g>
<!-- 3 -->
<g id="node4" class="node">
<title>3</title>
<path fill="none" stroke="#d85656" stroke-width="2" d="M207,-252C207,-252 154,-252 154,-252 148,-252 142,-246 142,-240 142,-240 142,-228 142,-228 142,-222 148,-216 154,-216 154,-216 207,-216 207,-216 213,-216 219,-222 219,-228 219,-228 219,-240 219,-240 219,-246 213,-252 207,-252"/>
<text text-anchor="middle" x="180.5" y="-237" font-family="sans" font-size="10.00">date_lsd2</text>
<text text-anchor="middle" x="180.5" y="-226" font-family="sans" font-size="10.00">tree: raxfast</text>
</g>
<!-- 3&#45;&gt;2 -->
<g id="edge3" class="edge">
<title>3&#45;&gt;2</title>
<path fill="none" stroke="grey" stroke-width="2" d="M180.5,-215.7C180.5,-207.98 180.5,-198.71 180.5,-190.11"/>
<polygon fill="grey" stroke="grey" stroke-width="2" points="184,-190.1 180.5,-180.1 177,-190.1 184,-190.1"/>
</g>
<!-- 4 -->
<g id="node5" class="node">
<title>4</title>
<path fill="none" stroke="#d8bc56" stroke-width="2" d="M349,-340C349,-340 12,-340 12,-340 6,-340 0,-334 0,-328 0,-328 0,-300 0,-300 0,-294 6,-288 12,-288 12,-288 349,-288 349,-288 355,-288 361,-294 361,-300 361,-300 361,-328 361,-328 361,-334 355,-340 349,-340"/>
<text text-anchor="middle" x="180.5" y="-328" font-family="sans" font-size="10.00">tree_size</text>
<text text-anchor="middle" x="180.5" y="-317" font-family="sans" font-size="10.00">date: 20200425</text>
<text text-anchor="middle" x="180.5" y="-306" font-family="sans" font-size="10.00">tree: rooted_raxfast.duplicated.has_dates.collapsed.zscore.no_outliers</text>
<text text-anchor="middle" x="180.5" y="-295" font-family="sans" font-size="10.00">type: phylogenies</text>
</g>
<!-- 4&#45;&gt;3 -->
<g id="edge4" class="edge">
<title>4&#45;&gt;3</title>
<path fill="none" stroke="grey" stroke-width="2" d="M180.5,-287.89C180.5,-279.84 180.5,-270.88 180.5,-262.66"/>
<polygon fill="grey" stroke="grey" stroke-width="2" points="184,-262.41 180.5,-252.41 177,-262.41 184,-262.41"/>
</g>
</g>
</svg>
