<?xml version="1.0" encoding="UTF-8" standalone="no"?>
<!DOCTYPE svg PUBLIC "-//W3C//DTD SVG 1.1//EN"
 "http://www.w3.org/Graphics/SVG/1.1/DTD/svg11.dtd">
<!-- Generated by graphviz version 2.43.0 (0)
 -->
<!-- Title: snakemake_dag Pages: 1 -->
<svg width="1205pt" height="220pt"
 viewBox="0.00 0.00 1204.50 220.00" xmlns="http://www.w3.org/2000/svg" xmlns:xlink="http://www.w3.org/1999/xlink">
<g id="graph0" class="graph" transform="scale(1 1) rotate(0) translate(4 216)">
<title>snakemake_dag</title>
<polygon fill="white" stroke="transparent" points="-4,4 -4,-216 1200.5,-216 1200.5,4 -4,4"/>
<!-- 0 -->
<g id="node1" class="node">
<title>0</title>
<path fill="none" stroke="#d8bc56" stroke-width="2" d="M564,-36C564,-36 534,-36 534,-36 528,-36 522,-30 522,-24 522,-24 522,-12 522,-12 522,-6 528,0 534,0 534,0 564,0 564,0 570,0 576,-6 576,-12 576,-12 576,-24 576,-24 576,-30 570,-36 564,-36"/>
<text text-anchor="middle" x="549" y="-15.5" font-family="sans" font-size="10.00">all</text>
</g>
<!-- 1 -->
<g id="node2" class="node">
<title>1</title>
<path fill="none" stroke="#88d856" stroke-width="2" stroke-dasharray="5,2" d="M80,-113C80,-113 12,-113 12,-113 6,-113 0,-107 0,-101 0,-101 0,-84 0,-84 0,-78 6,-72 12,-72 12,-72 80,-72 80,-72 86,-72 92,-78 92,-84 92,-84 92,-101 92,-101 92,-107 86,-113 80,-113"/>
<text text-anchor="middle" x="46" y="-101" font-family="sans" font-size="10.00">geomap</text>
<text text-anchor="middle" x="46" y="-90" font-family="sans" font-size="10.00">date: 20200425</text>
<text text-anchor="middle" x="46" y="-79" font-family="sans" font-size="10.00">loc: country</text>
</g>
<!-- 1&#45;&gt;0 -->
<g id="edge1" class="edge">
<title>1&#45;&gt;0</title>
<path fill="none" stroke="grey" stroke-width="2" d="M92.29,-74.27C95.22,-73.43 98.14,-72.67 101,-72 250.7,-37.07 434.19,-24.55 511.66,-20.6"/>
<polygon fill="grey" stroke="grey" stroke-width="2" points="512.06,-24.09 521.88,-20.1 511.72,-17.1 512.06,-24.09"/>
</g>
<!-- 2 -->
<g id="node3" class="node">
<title>2</title>
<path fill="none" stroke="#56c1d8" stroke-width="2" d="M168,-110.5C168,-110.5 122,-110.5 122,-110.5 116,-110.5 110,-104.5 110,-98.5 110,-98.5 110,-86.5 110,-86.5 110,-80.5 116,-74.5 122,-74.5 122,-74.5 168,-74.5 168,-74.5 174,-74.5 180,-80.5 180,-86.5 180,-86.5 180,-98.5 180,-98.5 180,-104.5 174,-110.5 168,-110.5"/>
<text text-anchor="middle" x="145" y="-90" font-family="sans" font-size="10.00">pastml_vis</text>
</g>
<!-- 2&#45;&gt;0 -->
<g id="edge2" class="edge">
<title>2&#45;&gt;0</title>
<path fill="none" stroke="grey" stroke-width="2" d="M180.23,-74.9C183.16,-73.82 186.11,-72.84 189,-72 303.68,-38.82 445.23,-25.74 511.48,-21.17"/>
<polygon fill="grey" stroke="grey" stroke-width="2" points="512.08,-24.64 521.82,-20.49 511.62,-17.66 512.08,-24.64"/>
</g>
<!-- 3 -->
<g id="node4" class="node">
<title>3</title>
<path fill="none" stroke="#56d88a" stroke-width="2" d="M281.5,-110.5C281.5,-110.5 210.5,-110.5 210.5,-110.5 204.5,-110.5 198.5,-104.5 198.5,-98.5 198.5,-98.5 198.5,-86.5 198.5,-86.5 198.5,-80.5 204.5,-74.5 210.5,-74.5 210.5,-74.5 281.5,-74.5 281.5,-74.5 287.5,-74.5 293.5,-80.5 293.5,-86.5 293.5,-86.5 293.5,-98.5 293.5,-98.5 293.5,-104.5 287.5,-110.5 281.5,-110.5"/>
<text text-anchor="middle" x="246" y="-90" font-family="sans" font-size="10.00">pastml_vis_tree</text>
</g>
<!-- 3&#45;&gt;0 -->
<g id="edge3" class="edge">
<title>3&#45;&gt;0</title>
<path fill="none" stroke="grey" stroke-width="2" d="M293.77,-74.7C296.88,-73.75 299.98,-72.84 303,-72 376.14,-51.69 463.32,-34.53 511.79,-25.61"/>
<polygon fill="grey" stroke="grey" stroke-width="2" points="512.6,-29.02 521.81,-23.78 511.34,-22.13 512.6,-29.02"/>
</g>
<!-- 4 -->
<g id="node5" class="node">
<title>4</title>
<path fill="none" stroke="#56c1d8" stroke-width="2" d="M370,-110.5C370,-110.5 324,-110.5 324,-110.5 318,-110.5 312,-104.5 312,-98.5 312,-98.5 312,-86.5 312,-86.5 312,-80.5 318,-74.5 324,-74.5 324,-74.5 370,-74.5 370,-74.5 376,-74.5 382,-80.5 382,-86.5 382,-86.5 382,-98.5 382,-98.5 382,-104.5 376,-110.5 370,-110.5"/>
<text text-anchor="middle" x="347" y="-90" font-family="sans" font-size="10.00">pastml_vis</text>
</g>
<!-- 4&#45;&gt;0 -->
<g id="edge4" class="edge">
<title>4&#45;&gt;0</title>
<path fill="none" stroke="grey" stroke-width="2" d="M382.42,-75.46C385.31,-74.26 388.2,-73.09 391,-72 431.89,-56.12 479.75,-40.46 512,-30.33"/>
<polygon fill="grey" stroke="grey" stroke-width="2" points="513.39,-33.57 521.89,-27.25 511.3,-26.88 513.39,-33.57"/>
</g>
<!-- 5 -->
<g id="node6" class="node">
<title>5</title>
<path fill="none" stroke="#56d88a" stroke-width="2" d="M483.5,-110.5C483.5,-110.5 412.5,-110.5 412.5,-110.5 406.5,-110.5 400.5,-104.5 400.5,-98.5 400.5,-98.5 400.5,-86.5 400.5,-86.5 400.5,-80.5 406.5,-74.5 412.5,-74.5 412.5,-74.5 483.5,-74.5 483.5,-74.5 489.5,-74.5 495.5,-80.5 495.5,-86.5 495.5,-86.5 495.5,-98.5 495.5,-98.5 495.5,-104.5 489.5,-110.5 483.5,-110.5"/>
<text text-anchor="middle" x="448" y="-90" font-family="sans" font-size="10.00">pastml_vis_tree</text>
</g>
<!-- 5&#45;&gt;0 -->
<g id="edge5" class="edge">
<title>5&#45;&gt;0</title>
<path fill="none" stroke="grey" stroke-width="2" d="M471.94,-74.32C485.39,-64.66 502.37,-52.47 516.96,-42"/>
<polygon fill="grey" stroke="grey" stroke-width="2" points="519.15,-44.73 525.24,-36.06 515.07,-39.05 519.15,-44.73"/>
</g>
<!-- 6 -->
<g id="node7" class="node">
<title>6</title>
<path fill="none" stroke="#56c1d8" stroke-width="2" d="M572,-110.5C572,-110.5 526,-110.5 526,-110.5 520,-110.5 514,-104.5 514,-98.5 514,-98.5 514,-86.5 514,-86.5 514,-80.5 520,-74.5 526,-74.5 526,-74.5 572,-74.5 572,-74.5 578,-74.5 584,-80.5 584,-86.5 584,-86.5 584,-98.5 584,-98.5 584,-104.5 578,-110.5 572,-110.5"/>
<text text-anchor="middle" x="549" y="-90" font-family="sans" font-size="10.00">pastml_vis</text>
</g>
<!-- 6&#45;&gt;0 -->
<g id="edge6" class="edge">
<title>6&#45;&gt;0</title>
<path fill="none" stroke="grey" stroke-width="2" d="M549,-74.32C549,-65.92 549,-55.62 549,-46.19"/>
<polygon fill="grey" stroke="grey" stroke-width="2" points="552.5,-46.06 549,-36.06 545.5,-46.06 552.5,-46.06"/>
</g>
<!-- 7 -->
<g id="node8" class="node">
<title>7</title>
<path fill="none" stroke="#56d88a" stroke-width="2" d="M685.5,-110.5C685.5,-110.5 614.5,-110.5 614.5,-110.5 608.5,-110.5 602.5,-104.5 602.5,-98.5 602.5,-98.5 602.5,-86.5 602.5,-86.5 602.5,-80.5 608.5,-74.5 614.5,-74.5 614.5,-74.5 685.5,-74.5 685.5,-74.5 691.5,-74.5 697.5,-80.5 697.5,-86.5 697.5,-86.5 697.5,-98.5 697.5,-98.5 697.5,-104.5 691.5,-110.5 685.5,-110.5"/>
<text text-anchor="middle" x="650" y="-90" font-family="sans" font-size="10.00">pastml_vis_tree</text>
</g>
<!-- 7&#45;&gt;0 -->
<g id="edge7" class="edge">
<title>7&#45;&gt;0</title>
<path fill="none" stroke="grey" stroke-width="2" d="M626.06,-74.32C612.61,-64.66 595.63,-52.47 581.04,-42"/>
<polygon fill="grey" stroke="grey" stroke-width="2" points="582.93,-39.05 572.76,-36.06 578.85,-44.73 582.93,-39.05"/>
</g>
<!-- 8 -->
<g id="node9" class="node">
<title>8</title>
<path fill="none" stroke="#56c1d8" stroke-width="2" d="M774,-110.5C774,-110.5 728,-110.5 728,-110.5 722,-110.5 716,-104.5 716,-98.5 716,-98.5 716,-86.5 716,-86.5 716,-80.5 722,-74.5 728,-74.5 728,-74.5 774,-74.5 774,-74.5 780,-74.5 786,-80.5 786,-86.5 786,-86.5 786,-98.5 786,-98.5 786,-104.5 780,-110.5 774,-110.5"/>
<text text-anchor="middle" x="751" y="-90" font-family="sans" font-size="10.00">pastml_vis</text>
</g>
<!-- 8&#45;&gt;0 -->
<g id="edge8" class="edge">
<title>8&#45;&gt;0</title>
<path fill="none" stroke="grey" stroke-width="2" d="M715.74,-75.89C712.46,-74.54 709.18,-73.22 706,-72 665.42,-56.39 618.03,-40.74 586.02,-30.53"/>
<polygon fill="grey" stroke="grey" stroke-width="2" points="586.78,-27.1 576.19,-27.42 584.67,-33.78 586.78,-27.1"/>
</g>
<!-- 9 -->
<g id="node10" class="node">
<title>9</title>
<path fill="none" stroke="#56d88a" stroke-width="2" d="M887.5,-110.5C887.5,-110.5 816.5,-110.5 816.5,-110.5 810.5,-110.5 804.5,-104.5 804.5,-98.5 804.5,-98.5 804.5,-86.5 804.5,-86.5 804.5,-80.5 810.5,-74.5 816.5,-74.5 816.5,-74.5 887.5,-74.5 887.5,-74.5 893.5,-74.5 899.5,-80.5 899.5,-86.5 899.5,-86.5 899.5,-98.5 899.5,-98.5 899.5,-104.5 893.5,-110.5 887.5,-110.5"/>
<text text-anchor="middle" x="852" y="-90" font-family="sans" font-size="10.00">pastml_vis_tree</text>
</g>
<!-- 9&#45;&gt;0 -->
<g id="edge9" class="edge">
<title>9&#45;&gt;0</title>
<path fill="none" stroke="grey" stroke-width="2" d="M804.23,-74.7C801.12,-73.75 798.02,-72.84 795,-72 721.86,-51.69 634.68,-34.53 586.21,-25.61"/>
<polygon fill="grey" stroke="grey" stroke-width="2" points="586.66,-22.13 576.19,-23.78 585.4,-29.02 586.66,-22.13"/>
</g>
<!-- 10 -->
<g id="node11" class="node">
<title>10</title>
<path fill="none" stroke="#56c1d8" stroke-width="2" d="M994,-110.5C994,-110.5 948,-110.5 948,-110.5 942,-110.5 936,-104.5 936,-98.5 936,-98.5 936,-86.5 936,-86.5 936,-80.5 942,-74.5 948,-74.5 948,-74.5 994,-74.5 994,-74.5 1000,-74.5 1006,-80.5 1006,-86.5 1006,-86.5 1006,-98.5 1006,-98.5 1006,-104.5 1000,-110.5 994,-110.5"/>
<text text-anchor="middle" x="971" y="-90" font-family="sans" font-size="10.00">pastml_vis</text>
</g>
<!-- 10&#45;&gt;0 -->
<g id="edge10" class="edge">
<title>10&#45;&gt;0</title>
<path fill="none" stroke="grey" stroke-width="2" d="M935.94,-79.6C926.91,-76.83 917.16,-74.08 908,-72 792.19,-45.69 652.28,-29.39 586.55,-22.62"/>
<polygon fill="grey" stroke="grey" stroke-width="2" points="586.59,-19.11 576.28,-21.58 585.88,-26.07 586.59,-19.11"/>
</g>
<!-- 11 -->
<g id="node12" class="node">
<title>11</title>
<path fill="none" stroke="#56d88a" stroke-width="2" d="M1116.5,-110.5C1116.5,-110.5 1045.5,-110.5 1045.5,-110.5 1039.5,-110.5 1033.5,-104.5 1033.5,-98.5 1033.5,-98.5 1033.5,-86.5 1033.5,-86.5 1033.5,-80.5 1039.5,-74.5 1045.5,-74.5 1045.5,-74.5 1116.5,-74.5 1116.5,-74.5 1122.5,-74.5 1128.5,-80.5 1128.5,-86.5 1128.5,-86.5 1128.5,-98.5 1128.5,-98.5 1128.5,-104.5 1122.5,-110.5 1116.5,-110.5"/>
<text text-anchor="middle" x="1081" y="-90" font-family="sans" font-size="10.00">pastml_vis_tree</text>
</g>
<!-- 11&#45;&gt;0 -->
<g id="edge11" class="edge">
<title>11&#45;&gt;0</title>
<path fill="none" stroke="grey" stroke-width="2" d="M1033.3,-76.35C1027.18,-74.72 1020.97,-73.21 1015,-72 857.3,-39.99 665.37,-25.82 586.04,-21.02"/>
<polygon fill="grey" stroke="grey" stroke-width="2" points="586.24,-17.52 576.05,-20.43 585.82,-24.51 586.24,-17.52"/>
</g>
<!-- 12 -->
<g id="node13" class="node">
<title>12</title>
<path fill="none" stroke="#d85656" stroke-width="2" d="M228.5,-212C228.5,-212 31.5,-212 31.5,-212 25.5,-212 19.5,-206 19.5,-200 19.5,-200 19.5,-161 19.5,-161 19.5,-155 25.5,-149 31.5,-149 31.5,-149 228.5,-149 228.5,-149 234.5,-149 240.5,-155 240.5,-161 240.5,-161 240.5,-200 240.5,-200 240.5,-206 234.5,-212 228.5,-212"/>
<text text-anchor="middle" x="130" y="-200" font-family="sans" font-size="10.00">pastml_col</text>
<text text-anchor="middle" x="130" y="-189" font-family="sans" font-size="10.00">col: country</text>
<text text-anchor="middle" x="130" y="-178" font-family="sans" font-size="10.00">date: 20200425</text>
<text text-anchor="middle" x="130" y="-167" font-family="sans" font-size="10.00">dating: lsd2</text>
<text text-anchor="middle" x="130" y="-156" font-family="sans" font-size="10.00">tree: raxfast_subsampled_phylogenetic_0</text>
</g>
<!-- 12&#45;&gt;2 -->
<g id="edge12" class="edge">
<title>12&#45;&gt;2</title>
<path fill="none" stroke="grey" stroke-width="2" d="M135.33,-148.94C136.93,-139.78 138.67,-129.79 140.23,-120.85"/>
<polygon fill="grey" stroke="grey" stroke-width="2" points="143.69,-121.4 141.96,-110.95 136.79,-120.2 143.69,-121.4"/>
</g>
<!-- 12&#45;&gt;3 -->
<g id="edge13" class="edge">
<title>12&#45;&gt;3</title>
<path fill="none" stroke="grey" stroke-width="2" d="M171.22,-148.94C185.43,-138.4 201.11,-126.78 214.43,-116.91"/>
<polygon fill="grey" stroke="grey" stroke-width="2" points="216.85,-119.47 222.8,-110.7 212.68,-113.85 216.85,-119.47"/>
</g>
<!-- 13 -->
<g id="node14" class="node">
<title>13</title>
<path fill="none" stroke="#d85656" stroke-width="2" d="M467.5,-212C467.5,-212 270.5,-212 270.5,-212 264.5,-212 258.5,-206 258.5,-200 258.5,-200 258.5,-161 258.5,-161 258.5,-155 264.5,-149 270.5,-149 270.5,-149 467.5,-149 467.5,-149 473.5,-149 479.5,-155 479.5,-161 479.5,-161 479.5,-200 479.5,-200 479.5,-206 473.5,-212 467.5,-212"/>
<text text-anchor="middle" x="369" y="-200" font-family="sans" font-size="10.00">pastml_col</text>
<text text-anchor="middle" x="369" y="-189" font-family="sans" font-size="10.00">col: country</text>
<text text-anchor="middle" x="369" y="-178" font-family="sans" font-size="10.00">date: 20200425</text>
<text text-anchor="middle" x="369" y="-167" font-family="sans" font-size="10.00">dating: lsd2</text>
<text text-anchor="middle" x="369" y="-156" font-family="sans" font-size="10.00">tree: raxfast_subsampled_phylogenetic_1</text>
</g>
<!-- 13&#45;&gt;4 -->
<g id="edge14" class="edge">
<title>13&#45;&gt;4</title>
<path fill="none" stroke="grey" stroke-width="2" d="M361.18,-148.94C358.84,-139.78 356.28,-129.79 354,-120.85"/>
<polygon fill="grey" stroke="grey" stroke-width="2" points="357.33,-119.77 351.46,-110.95 350.55,-121.5 357.33,-119.77"/>
</g>
<!-- 13&#45;&gt;5 -->
<g id="edge15" class="edge">
<title>13&#45;&gt;5</title>
<path fill="none" stroke="grey" stroke-width="2" d="M397.07,-148.94C406.22,-138.98 416.26,-128.05 424.99,-118.54"/>
<polygon fill="grey" stroke="grey" stroke-width="2" points="427.78,-120.68 431.97,-110.95 422.63,-115.95 427.78,-120.68"/>
</g>
<!-- 14 -->
<g id="node15" class="node">
<title>14</title>
<path fill="none" stroke="#d85656" stroke-width="2" d="M706.5,-212C706.5,-212 509.5,-212 509.5,-212 503.5,-212 497.5,-206 497.5,-200 497.5,-200 497.5,-161 497.5,-161 497.5,-155 503.5,-149 509.5,-149 509.5,-149 706.5,-149 706.5,-149 712.5,-149 718.5,-155 718.5,-161 718.5,-161 718.5,-200 718.5,-200 718.5,-206 712.5,-212 706.5,-212"/>
<text text-anchor="middle" x="608" y="-200" font-family="sans" font-size="10.00">pastml_col</text>
<text text-anchor="middle" x="608" y="-189" font-family="sans" font-size="10.00">col: country</text>
<text text-anchor="middle" x="608" y="-178" font-family="sans" font-size="10.00">date: 20200425</text>
<text text-anchor="middle" x="608" y="-167" font-family="sans" font-size="10.00">dating: lsd2</text>
<text text-anchor="middle" x="608" y="-156" font-family="sans" font-size="10.00">tree: raxfast_subsampled_phylogenetic_2</text>
</g>
<!-- 14&#45;&gt;6 -->
<g id="edge16" class="edge">
<title>14&#45;&gt;6</title>
<path fill="none" stroke="grey" stroke-width="2" d="M587.03,-148.94C580.41,-139.28 573.15,-128.7 566.77,-119.4"/>
<polygon fill="grey" stroke="grey" stroke-width="2" points="569.51,-117.21 560.97,-110.95 563.74,-121.17 569.51,-117.21"/>
</g>
<!-- 14&#45;&gt;7 -->
<g id="edge17" class="edge">
<title>14&#45;&gt;7</title>
<path fill="none" stroke="grey" stroke-width="2" d="M622.93,-148.94C627.55,-139.48 632.59,-129.14 637.07,-119.98"/>
<polygon fill="grey" stroke="grey" stroke-width="2" points="640.24,-121.47 641.48,-110.95 633.95,-118.4 640.24,-121.47"/>
</g>
<!-- 15 -->
<g id="node16" class="node">
<title>15</title>
<path fill="none" stroke="#d85656" stroke-width="2" d="M945.5,-212C945.5,-212 748.5,-212 748.5,-212 742.5,-212 736.5,-206 736.5,-200 736.5,-200 736.5,-161 736.5,-161 736.5,-155 742.5,-149 748.5,-149 748.5,-149 945.5,-149 945.5,-149 951.5,-149 957.5,-155 957.5,-161 957.5,-161 957.5,-200 957.5,-200 957.5,-206 951.5,-212 945.5,-212"/>
<text text-anchor="middle" x="847" y="-200" font-family="sans" font-size="10.00">pastml_col</text>
<text text-anchor="middle" x="847" y="-189" font-family="sans" font-size="10.00">col: country</text>
<text text-anchor="middle" x="847" y="-178" font-family="sans" font-size="10.00">date: 20200425</text>
<text text-anchor="middle" x="847" y="-167" font-family="sans" font-size="10.00">dating: lsd2</text>
<text text-anchor="middle" x="847" y="-156" font-family="sans" font-size="10.00">tree: raxfast_subsampled_phylogenetic_3</text>
</g>
<!-- 15&#45;&gt;8 -->
<g id="edge18" class="edge">
<title>15&#45;&gt;8</title>
<path fill="none" stroke="grey" stroke-width="2" d="M812.88,-148.94C801.35,-138.6 788.64,-127.22 777.76,-117.47"/>
<polygon fill="grey" stroke="grey" stroke-width="2" points="779.99,-114.77 770.2,-110.7 775.31,-119.98 779.99,-114.77"/>
</g>
<!-- 15&#45;&gt;9 -->
<g id="edge19" class="edge">
<title>15&#45;&gt;9</title>
<path fill="none" stroke="grey" stroke-width="2" d="M848.78,-148.94C849.3,-139.88 849.88,-130.01 850.39,-121.14"/>
<polygon fill="grey" stroke="grey" stroke-width="2" points="853.9,-121.14 850.99,-110.95 846.91,-120.73 853.9,-121.14"/>
</g>
<!-- 16 -->
<g id="node17" class="node">
<title>16</title>
<path fill="none" stroke="#d85656" stroke-width="2" d="M1184.5,-212C1184.5,-212 987.5,-212 987.5,-212 981.5,-212 975.5,-206 975.5,-200 975.5,-200 975.5,-161 975.5,-161 975.5,-155 981.5,-149 987.5,-149 987.5,-149 1184.5,-149 1184.5,-149 1190.5,-149 1196.5,-155 1196.5,-161 1196.5,-161 1196.5,-200 1196.5,-200 1196.5,-206 1190.5,-212 1184.5,-212"/>
<text text-anchor="middle" x="1086" y="-200" font-family="sans" font-size="10.00">pastml_col</text>
<text text-anchor="middle" x="1086" y="-189" font-family="sans" font-size="10.00">col: country</text>
<text text-anchor="middle" x="1086" y="-178" font-family="sans" font-size="10.00">date: 20200425</text>
<text text-anchor="middle" x="1086" y="-167" font-family="sans" font-size="10.00">dating: lsd2</text>
<text text-anchor="middle" x="1086" y="-156" font-family="sans" font-size="10.00">tree: raxfast_subsampled_phylogenetic_4</text>
</g>
<!-- 16&#45;&gt;10 -->
<g id="edge20" class="edge">
<title>16&#45;&gt;10</title>
<path fill="none" stroke="grey" stroke-width="2" d="M1045.13,-148.94C1031.04,-138.4 1015.5,-126.78 1002.3,-116.91"/>
<polygon fill="grey" stroke="grey" stroke-width="2" points="1004.11,-113.89 994,-110.7 999.91,-119.49 1004.11,-113.89"/>
</g>
<!-- 16&#45;&gt;11 -->
<g id="edge21" class="edge">
<title>16&#45;&gt;11</title>
<path fill="none" stroke="grey" stroke-width="2" d="M1084.22,-148.94C1083.7,-139.88 1083.12,-130.01 1082.61,-121.14"/>
<polygon fill="grey" stroke="grey" stroke-width="2" points="1086.09,-120.73 1082.01,-110.95 1079.1,-121.14 1086.09,-120.73"/>
</g>
</g>
</svg>
